<svg id="Layer_1" data-name="Layer 1" xmlns="http://www.w3.org/2000/svg" viewBox="0 0 127 120"><path d="M75.12,0H127V120H0V75.12A75.12,75.12,0,0,1,75.12,0Z" transform="translate(0 0)" fill="#ffc13f"/><path d="M65.93,60.49V56.82c0-.39.16-.53.53-.52a8.34,8.34,0,0,0,1,0c.4,0,.56.14.55.55C68,57.91,68,59,68,60v.47h.13v-3.6c0-.45.16-.63.61-.6a8.34,8.34,0,0,0,1,0c.37,0,.5.15.5.51v3.69h.14V56.86c0-.45.17-.62.6-.59a8.34,8.34,0,0,0,1,0c.41,0,.55.16.55.56v3.63h.14a3.18,3.18,0,0,0,.06-.43V56.81c0-.4.13-.58.54-.56a8.34,8.34,0,0,0,1,0c.43,0,.62.14.61.59v3.61H75V56.94c0-.58,0-.63.64-.64h1c.35,0,.49.15.49.51v3.67h.13V56.86c0-.42.14-.6.57-.58a8.34,8.34,0,0,0,1,0c.41,0,.55.18.55.57v3.58a.3.3,0,0,0,.08.07c.75.07.75.07.74.88a4.69,4.69,0,0,0,0,.53c.41,0,.81-.06,1.22-.06.09,0,.23.24.24.37v1.12c0,.1.1.18.16.27.06-.08.19-.17.18-.25-.07-.48.21-1-.22-1.46v-.3c.22-.5.26-1.1.81-1.41a.39.39,0,0,1,.06-.21l.37-.89a2.16,2.16,0,0,1-.66-2.76,7.85,7.85,0,0,1,2.43-2.6c.5-.38,1-.68,1.56-1,.13-.09.29-.27.28-.4,0-.45.15-.65.55-.62l.32-.64a1,1,0,0,0-.12-1.37,1.12,1.12,0,0,1,.43-1.36,4.41,4.41,0,0,1,1-.17,1.27,1.27,0,0,1,1.44.89.61.61,0,0,1,0,.56,1.17,1.17,0,0,0-.07,1.64h0a2.28,2.28,0,0,1,.2.45c.43,0,.59.17.58.61a.62.62,0,0,0,.32.43,13.08,13.08,0,0,1,3.08,2.41,7.25,7.25,0,0,1,.75,1,2.2,2.2,0,0,1-.62,3v1.68c.72.14.72.14.72.84v1.44c1,0,1.57.8,2.33,1.25.1.06.21.3.16.38a.52.52,0,0,1-.39.23H95.61v.67a5.05,5.05,0,0,1,.68-.07H103a.73.73,0,0,1,.36,0c.11.06.24.2.24.3s-.14.24-.24.28a1,1,0,0,1-.42,0h-6.4a3.19,3.19,0,0,1-.81-.19l-.32.21c.62,0,.75.37.64.79,0,.21-.26.37-.39.55l-.14-.07V70H96c0-.19-.12-.43,0-.52a.79.79,0,0,1,.53-.18H103c.56,0,.66.17.39.71H105c.23,0,.51,0,.51.32s-.28.32-.52.32H96v.85h9.13a2.31,2.31,0,0,1,.39.31c-.13.11-.24.28-.38.31a4,4,0,0,1-.85,0c.17.62-.2.64-.62.64H95.47v2c-.62-.2-.74-.62-.69-1.19a13.71,13.71,0,0,0,0-1.57h-8.2a.86.86,0,0,1-.32,0c-.12-.06-.31-.21-.3-.28a.63.63,0,0,1,.3-.34h7.61c.3,0,.6.06.92.09v-3.6c0-.38-.25-.33-.48-.33H88.1c-.7,0-1.39-.15-2.09-.22H85.5a23.22,23.22,0,0,0,0,2.36,7.44,7.44,0,0,1,0,2,.52.52,0,0,1-.38.34,11.77,11.77,0,0,1-1.68,0,.63.63,0,0,1-.38-.4V69.44h-.48c0,.38,0,.79-.42,1,.07.65-.48.39-.77.5v12c.48,0,.51.35.51.73v3h1.31V73c0-.84,0-.84.89-.84a8.34,8.34,0,0,1,1,0,.45.45,0,0,1,.33.32V86.57c.91.17.91.17.91,1.1v1.45h3.51c.39,0,.58.14.56.55s0,.72,0,1h4c.34,0,.43-.11.42-.43V76.55l.61.15V90.12h1.84V78.69a2.38,2.38,0,0,1,.35-1.35A4.3,4.3,0,0,1,99,76.08a2,2,0,0,1,2.46.64,2.17,2.17,0,0,1,.84,1.51c0,.17.15.34.15.51v11.4h1.42c.17,0,.32.2.48.31-.16.11-.31.31-.47.31H95.47c0,.44-.32.52-.73.51H91.09a3.51,3.51,0,0,1-.65-.09h0c0,.24,0,.56-.33.56s-.32-.35-.32-.61V89.74H46.47v1.38c0,.26.06.62-.32.6-.15,0-.29-.32-.43-.48H41.41c-.46,0-.5,0-.64-.5H33a2.94,2.94,0,0,1-.42,0c-.26,0-.66.11-.66-.31s.42-.32.69-.33h1.18V78.8a2.87,2.87,0,0,1,.32-1.44,3.9,3.9,0,0,1,1.26-1.23,2.41,2.41,0,0,1,1.29-.25c.55,0,.9.41,1.32.75a3.11,3.11,0,0,1,.94,1.67,1.35,1.35,0,0,1,.08.4V90.11h1.81V72.77H32.53c-.44,0-.76-.06-.63-.64h-.73c-.23,0-.47,0-.48-.3s.26-.34.5-.34h9v-.85H31.37a.86.86,0,0,1-.32,0,2.48,2.48,0,0,1-.36-.28c.12-.12.23-.32.35-.33h1.79c0-.19-.16-.4-.09-.5a.63.63,0,0,1,.47-.2h6.63c.55,0,.65.17.39.69h.57V67.54c-.5,0-.67-.35-.54-.79.05-.21.27-.37.44-.59-.07,0-.16-.31-.42,0a.73.73,0,0,1-.43.11H33.21c-.24,0-.54,0-.5-.32,0-.12.33-.31.5-.31h6.64a3.31,3.31,0,0,1,.55.08V65H38.84a1.75,1.75,0,0,1-.54-.24,1.82,1.82,0,0,1,.31-.47,13.1,13.1,0,0,1,1.29-.92,5,5,0,0,1,.92-.3V61.63c0-.67,0-.67.69-.76V59.18a2.23,2.23,0,0,1-.58-3.11,1.66,1.66,0,0,1,.16-.21,10.94,10.94,0,0,1,3.59-3.07c.27-.15.45-.3.41-.64a.46.46,0,0,1,.18-.38,1.32,1.32,0,0,0,.77-1.7,1.34,1.34,0,0,0-.27-.44,1.23,1.23,0,0,1,.54-1.34,2.57,2.57,0,0,1,1.77,0,1.12,1.12,0,0,1,.43,1.44A1,1,0,0,0,48.42,51c.19.32.24.76.74.82.06,0,.15.22.13.32-.06.38.17.54.46.7a11.61,11.61,0,0,1,3.37,2.79,2.27,2.27,0,0,1,.27,3,4,4,0,0,1-.45.47l.36.91s0,.14.05.16c.53.33.61.91.82,1.42a.5.5,0,0,1,0,.34c-.42.47-.14,1-.2,1.52l.15.18c.05.06.17-.14.18-.21v-.88c0-.29.09-.63.19-.65a3.73,3.73,0,0,1,1,0l.22.19c0-.29.07-.49.07-.69,0-.86,0-.86.83-1V56.87c0-.38.15-.54.53-.53h1.07c.35,0,.53.15.53.53v3.66h.15V56.89c0-.42.14-.6.57-.57a7.71,7.71,0,0,0,.84,0c.67,0,.69,0,.69.68v3.49h.13a3.38,3.38,0,0,0,0-.45V56.86c0-.42.15-.6.57-.58a8.34,8.34,0,0,0,1,0c.38,0,.52.15.52.53v3.68h.13a3.09,3.09,0,0,0,0-.43V56.88c0-.44.13-.64.59-.61a8.34,8.34,0,0,0,1,0c.4,0,.52.17.52.54v3.66ZM41.46,71.43a5,5,0,0,1,.66-.11h7.94a.51.51,0,0,1,.24.33c0,.08-.15.22-.26.26a.77.77,0,0,1-.37,0H42.38a4.29,4.29,0,0,1-.88-.06V90.67h4.33v-.4c0-1.24-.19-1.18,1.18-1.17h2.93V87.46c0-1,.07-.88.81-.91l.08-.06V76.13c0-1.22-.06-2.43,0-3.64,0-.12.23-.32.37-.34a4.18,4.18,0,0,1,1,0,2,2,0,0,1,.88.14c.11.06,0,.47,0,.73V86.56h1.31v-3c0-.4,0-.74.52-.82V70.84c-1,0-1.06-.81-1.26-1.52h-.42v2.13c0,.25-.06.47-.38.48H51.07c-.12,0-.34-.18-.34-.28a7.39,7.39,0,0,1,0-2.1c.2-.8-.16-1.52,0-2.32a4.86,4.86,0,0,0-.54,0c-.66.07-1.32.21-2,.22H41.88c-.25,0-.45,0-.44.36C41.47,69,41.46,70.23,41.46,71.43Zm21.61-.59v2.93h-.62V72.06c0-.73,0-.73-.81-.6v11h.81V77.69a.73.73,0,0,1,.58-.81,5.56,5.56,0,0,1,.08.7v4.49c0,.34-.17.76.36.91.07,0,.11.24.12.37v3.21h9.08V83.5c0-.37,0-.67.5-.66v-12c-.33,0-.83.11-.8-.52a.11.11,0,0,1-.1-.08c0-.08-.25-.29-.24-.44,0-.43-.19-.46-.54-.46H64.26c0,.4,0,.79-.38,1C63.93,71,63.43,70.75,63.07,70.84ZM49.86,66.56H86.39c-.42-.53-.82-1-1.14-1.45a1.69,1.69,0,0,0-1.75-.84,19.28,19.28,0,0,1-2.15,0V62.75a.59.59,0,0,0-.64-.54l-.1,0c-.32.09-.54.3-.37.78l.66-.38c-.06.19-.05.38-.13.41a1.08,1.08,0,0,0-.62,1.2H53.34V62.86a.62.62,0,0,0-.55-.68.61.61,0,0,0-.45.13l-.59.32.31,1.56c-.21.09-.41.11-.51.22C51,65.1,50.48,65.79,49.86,66.56Zm2.53,20V72.8h-.86V86.55h.7c0,.57-.36.68-.82.63a5.21,5.21,0,0,0-.79,0V89h35V87.22H82c-.59,0-.73-.17-.72-.77V83.52H79.43v3h.85c-.06.46-.25.64-.73.64H53.84c-.17,0-.46,0-.49-.13C53.23,86.59,52.87,86.54,52.39,86.56ZM75.3,70.83v12c.46,0,.5.31.5.65v3.1h3v-3.2a1.49,1.49,0,0,1,.24-.49c.08-.14.23-.26.24-.41a9.55,9.55,0,0,0,0-1.07V70.84c-.3-.12-.85.16-.77-.51-.48-.16-.37-.61-.43-1H76.49c0,.39.07.81-.41,1C76.16,71,75.6,70.74,75.3,70.83ZM60.46,86.56V83.43c0-.18.09-.47.2-.51.31-.09.3-.29.3-.53V70.85c-.28-.14-.78.16-.81-.5,0-.31-.34-.6-.58-1H58.16a.88.88,0,0,1-.38,1c.06.66-.49.4-.79.52V82.23c0,.28-.07.58.34.69.09,0,.16.29.16.44v3.2Zm41.39,3.54v-.47c-.13-3.88.28-7.78-.23-11.66a.42.42,0,0,0-.36-.49.65.65,0,0,1-.36-.29,1.17,1.17,0,0,0-1.55-.57,1.12,1.12,0,0,0-.29.19c-.25.31-.34.74-.83.79v.12A13.21,13.21,0,0,0,98,79.61V90.15Zm-67.44,0h3.93V90c-.18-4,.29-8-.25-12,0-.3-.07-.5-.41-.55a.48.48,0,0,1-.31-.23,1.15,1.15,0,0,0-1.49-.65,1,1,0,0,0-.31.18c-.29.3-.39.78-.89.86v.08a11.65,11.65,0,0,0-.24,1.66v10ZM89.08,56.46H83.75c-.15,0-.36,0-.43.08a1.26,1.26,0,0,0-.15,1.28c.16.4.34.67.87.67h9.85a1,1,0,0,0,1.18-.78,1.28,1.28,0,0,0,0-.39c0-.6-.23-.85-.81-.85Zm-41.86,0H42c-.58,0-.69.1-.79.67s.33,1.35.81,1.35H52.37a.6.6,0,0,0,.39-.1A1.52,1.52,0,0,0,53.15,57a.61.61,0,0,0-.66-.55h0C50.71,56.48,49,56.46,47.22,56.46Zm47.55,5.11H85.38a5.13,5.13,0,0,0-.33.76,5.34,5.34,0,0,0,0,.8h9.73ZM51.29,63.15,51,61.58H41.5v1.57Zm.56-7.84.07-.12c-.54-.42-1.08-.86-1.63-1.27a3.26,3.26,0,0,0-2.5-.81,3.51,3.51,0,0,1-1.12,0,3.31,3.31,0,0,0-2.59.81L42.46,55.2l.07.11Zm32.46-.15.1.13h9.33l.06-.13-2.06-1.52a2.62,2.62,0,0,0-1.83-.53,16.68,16.68,0,0,1-2,0,1.87,1.87,0,0,0-1.27.35ZM68.14,67.66H52c-.19,0-.51-.19-.54.19A1.13,1.13,0,0,0,52,68H84.29a2.43,2.43,0,0,0,.6-.17,2.11,2.11,0,0,0-.59-.18Zm16.59,18.9V72.81H83.9V86.56ZM74.62,82.43v-11h-.78v11Zm-18.32,0v-11h-.76v11Zm24.4,0v-11H80v11ZM39.75,64.15v.21H50.23c.45,0,.72-.09.86-.53H40.74A3.82,3.82,0,0,0,39.75,64.15Zm45.39-.32-.07.15c.2.13.4.38.6.39H96.52a1.42,1.42,0,0,0-1.21-.55H85.14ZM62.93,86.55V83.49H61.37a.36.36,0,0,0-.25.24v2.81Zm-6.08,0V83.69a.35.35,0,0,0-.25-.19H55.05v3.06Zm16.5-3v3h1.77v-3ZM78.15,57v3.38h.76V57ZM62.74,60.34V57H62v3.37ZM64.29,57v3.36h.76V57Zm-6.92,0v3.38h.74V57ZM71.2,60.32H72V57h-.8Zm2.32,0h.76V57h-.76Zm-3.86,0V57h-.75v3.38ZM75.85,57v3.38h.74V57Zm-8.51,3.38V57H66.6v3.37Zm-6.93,0V57h-.72v3.39Zm-3.62.87ZM46.68,49.32c-.11.75.51,1.43-.13,2.07h1.31c-.67-.66,0-1.37-.18-2.07Zm43,0h-1.1c-.12.73.5,1.41-.12,2h1.12a5.58,5.58,0,0,1-.12-1,6.55,6.55,0,0,1,.2-1ZM51.39,69.93v1.36H52.5V69.93Zm33.51,1.3v-.52c0-.86-.06-.92-.91-.8a.38.38,0,0,0-.26.19c-.26,1,0,1.32,1,1.2C84.8,71.3,84.82,71.27,84.9,71.23ZM83,62.51v1.1h1.39V62.55H84Zm11.77,3.77v-.14H86.92c.12.14.18.27.23.27Zm-45.46,0-.05-.11H41.52v.14h3.41c1.35,0,2.7.07,4,.09a.5.5,0,0,0,.35-.15Zm4.08-4.8c-.09-.56-.41-.84-.83-.8a.75.75,0,0,0-.68.8Zm31.07,0c-.08-.58-.46-.89-.91-.79a.63.63,0,0,0-.56.69s0,.07,0,.1ZM86.11,65v.1c.13.13.25.35.4.37a4.18,4.18,0,0,0,1,0,.3.3,0,0,0,.2-.22.28.28,0,0,0-.2-.22C87,65,86.57,65,86.11,65ZM50.23,65H48.86c-.33,0-.36.16-.25.47C49.12,65.32,49.78,65.82,50.23,65Zm43.61,0c-.09.31-.06.47.27.46h1c.1-.32.07-.48-.26-.47Zm-52.73.43h1.31c.1-.28.07-.44-.26-.43s-.52,0-.78,0-.38.16-.27.44ZM92.64,65H91.55c-.09,0-.17.15-.25.23.08.07.15.2.24.21h.83C92.65,65.44,92.74,65.32,92.64,65ZM47.49,65H46.11c0,.42,0,.48.3.42S47.3,65.77,47.49,65Zm41.37,0c-.1.32,0,.46.29.45s.46,0,.69,0,.43-.14.3-.45Zm-43.94.45V65h-1.3c-.12.32,0,.46.3.44s.65,0,1,0Zm6.67-5.18h.11l.55-1.16h-.66Zm33.09-1.14H84a2.76,2.76,0,0,1,.38.58c.14.46.12.46.34.58Zm2.91,0h-.08v1.64h.08Zm5.7,1.58h.08v-1.6h-.08Zm-2.91,0h.06V59.65h-.06Z" transform="translate(0 0)"/><path d="M56.6,56.16V60a3.61,3.61,0,0,1-.33.44c-.1-.15-.3-.3-.3-.45V56.16c0-.31.09-.64.42-.63l-.26-1.15H56a3,3,0,0,0,0,.6c0,.36-.15.51-.5.5a3,3,0,0,1-.6,0,.43.43,0,0,1-.34-.31c-.11-.75-.16-1.52-.24-2.28,0-.46.17-.6.6-.59h2.82v-3a3.07,3.07,0,0,1-1.19-.3c-.17-.14-.07-.61-.11-.93-.08-.64.4-.57.84-.6a1.71,1.71,0,0,0-.13-.23,3.76,3.76,0,0,1,0-5,18.34,18.34,0,0,1,4.72-4.41c.73-.49,1.5-.94,2.27-1.38a.59.59,0,0,0,.36-.61c0-1,0-1,1.12-1.09a3,3,0,0,1,.79-1.8,1.56,1.56,0,0,0,0-1,10.11,10.11,0,0,0-.35-1.19c-.56-.2-.7-.59-.36-1.15.15-.25.3-.51.46-.75.3-.47.39-.48.84-.14l.13.1.45-.68.45.37.58-.34.35.66h0c.69-.46.69-.46,1.13.26l.32.52c.34.55.19,1-.41,1.16-.12.59-.27,1.18-.35,1.77a1.52,1.52,0,0,0,.25.58c.1.19.15.23.2.35s0,.24.06.26c.48.2.31.62.34,1h.68c.3,0,.52.12.46.43-.18.85.29,1.2,1,1.58a20.42,20.42,0,0,1,5.93,4.85A11.52,11.52,0,0,1,79.46,43a3.6,3.6,0,0,1-.21,4.12L79,47.5c.84.18.84.18.83,1.2s-.82.35-1.23.64v3h2.84c.41,0,.62.13.58.57-.07.76-.13,1.52-.23,2.28,0,.13-.23.27-.38.33a2.09,2.09,0,0,1-.5,0c-.43,0-.6-.17-.57-.59a4.34,4.34,0,0,0,0-.51h-.15L80,55.57c.32,0,.39.27.38.61V60c0,.26,0,.57-.34.53-.12,0-.3-.33-.3-.51V56.71c0-.38-.09-.49-.46-.48H56.6ZM68.13,43H58a.76.76,0,0,0-.55.21,2.49,2.49,0,0,0-.4,2.25,4.3,4.3,0,0,0,.9,1.6c.23.23.81.11,1.24.15H77.87a.86.86,0,0,0,.58-.18A3,3,0,0,0,79,43.45a.71.71,0,0,0-.72-.44Zm9.38-1.54a1.37,1.37,0,0,0-.18-.24A22.74,22.74,0,0,0,71.57,37a1,1,0,0,0-.49-.09H65.19a1.08,1.08,0,0,0-.53.11,22.36,22.36,0,0,0-5.72,4.22,1.28,1.28,0,0,0-.15.25Zm.41,7.72h-.33a.66.66,0,0,1-.69.36s-.11,0-.11.06c-.13.46-.51.34-.81.34H58.34v2.25H77.92ZM81.34,53H54.92v.71H81.34ZM69.49,34.32c.05-.33.13-.63-.23-.84a.52.52,0,0,1-.18-.4,2.75,2.75,0,0,1,.19-1.55,1.33,1.33,0,0,0,.11-.81c-.1-.47,0-.72.56-.67l-.42-.65c-.23.19-.42.35-.62.49a.37.37,0,0,1-.6-.24,1.29,1.29,0,0,0-.17-.33,1.41,1.41,0,0,0-.17.32c-.1.4-.3.48-.63.23l-.61-.48-.4.67c.54,0,.67.15.57.61a1.25,1.25,0,0,0,.08.81,3,3,0,0,1,.2,1.6.5.5,0,0,1-.16.4c-.38.22-.31.52-.24.84ZM79.1,48.17H57.58a.45.45,0,0,0-.23,0,1.18,1.18,0,0,0-.25.19,1,1,0,0,0,.23.18H78.82C79.07,48.56,79.22,48.5,79.1,48.17Zm-.9-5.85V42.2a.23.23,0,0,0-.12-.06H58.28a.5.5,0,0,0-.2.08,0,0,0,0,0,0,.05h0Zm-7.14-6.57V35.6l-.3-.09H65.48a1.66,1.66,0,0,0-.31.12v.13ZM64.73,54.23c-.37.45.1,1.06-.61,1.26h.81ZM61,55.52h.32l.46-.05c-.72-.2-.2-.83-.61-1.19Zm-3,0-.21-1.14h-.1l-.21,1.14Zm16.73,0h.5L75,54.37H74.9Zm-1.72,0h.48l-.17-1.13H73.2ZM59.58,54.35h-.14l-.17,1.12h.48Zm12.07,0H71.5l-.17,1.12h.48ZM68.39,55.5l-.21-1.15h-.12l-.17,1.13Zm8.6,0-.18-1.15h-.14l-.16,1.14Zm-6.86,0-.25-1.22c-.33.4.11,1-.58,1.22Zm8.1,0H79c-.68-.22-.24-.82-.58-1.22ZM63,54.35h-.1l-.18,1.15h.49Zm3.15,1.15h.5l-.21-1.15h-.1Z" transform="translate(0 0)"/><path d="M92.2,79.06v2c0,.25,0,.53-.33.48-.12,0-.29-.3-.3-.47V77.43c0-.18-.14-.35-.17-.54a3.41,3.41,0,0,1-.1-.9.57.57,0,0,0-.44-.66h-.09c-.15,0-.27-.25-.39-.4s-.22-.43-.39-.53a1.79,1.79,0,0,0-1.79,0c-.15.08-.35.25-.36.39,0,.4-.19.58-.6.61s-.38.22-.36.51c.08.88-.41,1.69-.31,2.61a16.75,16.75,0,0,1,0,2.65c0,.15-.21.28-.33.42-.1-.14-.29-.29-.29-.44V76.85a1.36,1.36,0,0,1,.12-.39c.06-.21.11-.42.17-.63s.12-.65.31-.77a4.67,4.67,0,0,0,.92-.91,2.3,2.3,0,0,1,3.25.09,1.89,1.89,0,0,1,.25.31.7.7,0,0,0,.34.27,1,1,0,0,1,.63.94,4.55,4.55,0,0,0,.23.8,1.41,1.41,0,0,1,0,.41C92.21,77.69,92.2,78.37,92.2,79.06Z" transform="translate(0 0)"/><path d="M89.07,81H87.76a.37.37,0,0,1-.42-.31.24.24,0,0,1,0-.12V78.09c0-.3.15-.42.44-.42h2.57a.37.37,0,0,1,.44.3.41.41,0,0,1,0,.11v2.57c0,.27-.15.39-.42.38Zm1.05-.67v-2H88v2Z" transform="translate(0 0)"/><path d="M98.67,67.68c0,1-.28,1.22-1.26,1a.49.49,0,0,1-.3-.34,7.61,7.61,0,0,1,0-1.35.43.43,0,0,1,.26-.33,4.7,4.7,0,0,1,1.06,0c.1,0,.22.21.24.34A5.14,5.14,0,0,1,98.67,67.68Z" transform="translate(0 0)"/><path d="M100.69,67.67c0,1-.37,1.25-1.31,1a.35.35,0,0,1-.25-.27c0-.5,0-1,0-1.49a.37.37,0,0,1,.26-.27,4.18,4.18,0,0,1,1,0,.48.48,0,0,1,.28.35A3.1,3.1,0,0,1,100.69,67.67Z" transform="translate(0 0)"/><path d="M35.57,67.59c0-1,0-1,1-1,.4,0,.58.14.56.55s0,.75,0,1.12a.57.57,0,0,1-.38.39C35.45,68.69,35.57,68.75,35.57,67.59Z" transform="translate(0 0)"/><path d="M35.17,67.62c0,1.12,0,1.12-1.16,1a.37.37,0,0,1-.43-.42V67c0-.28.12-.44.41-.44h.1C35.17,66.56,35.17,66.56,35.17,67.62Z" transform="translate(0 0)"/><path d="M102.68,67.62c0,1.15.12,1.07-1.2,1a.61.61,0,0,1-.37-.4,5.23,5.23,0,0,1,0-1.25c0-.15.23-.32.39-.38a2,2,0,0,1,.6,0c.41,0,.61.12.57.55C102.67,67.31,102.68,67.46,102.68,67.62Z" transform="translate(0 0)"/><path d="M37.58,67.61c0-1,.28-1.25,1.28-1a.54.54,0,0,1,.3.39,5.23,5.23,0,0,1,0,1.25c0,.15-.25.27-.39.41h-.05C37.59,68.75,37.59,68.74,37.58,67.61Z" transform="translate(0 0)"/><path d="M56.79,61.22h0Z" transform="translate(0 0)" fill="#fff"/><path d="M44.06,79V77.23a6.28,6.28,0,0,1,.23-.85,2,2,0,0,1,.06-.6c.06-.19.16-.61.36-.75a3.21,3.21,0,0,0,.79-.77c.8-1.08,3.13-.88,3.57.31a.55.55,0,0,0,.28.26,1,1,0,0,1,.69,1,2.19,2.19,0,0,0,.2.66,1.37,1.37,0,0,1,.08.35v4.25c0,.16-.2.32-.31.48-.11-.17-.3-.32-.31-.49V77.53a4.6,4.6,0,0,0-.2-.66,4.27,4.27,0,0,1-.08-.87.53.53,0,0,0-.38-.66l-.13,0c-.16,0-.29-.24-.41-.39s-.18-.42-.34-.51a1.76,1.76,0,0,0-1.9,0c-.14.08-.3.25-.3.38,0,.41-.23.53-.59.58a.45.45,0,0,0-.33.27,16.46,16.46,0,0,0-.31,2.09c0,1.09,0,2.18,0,3.27,0,.25,0,.57-.34.52-.12,0-.28-.34-.29-.52A13.36,13.36,0,0,1,44.06,79Z" transform="translate(0 0)"/><path d="M47.19,81H45.94c-.42,0-.49-.13-.48-.47V78.11c0-.34.14-.49.47-.48h2.52c.34,0,.48.14.47.47v2.47c0,.29-.13.43-.42.42H47.19Zm1.07-2.73H46.35a.29.29,0,0,0-.23.21v1.83h2.15Z" transform="translate(0 0)"/><path d="M63,75.63a2.53,2.53,0,0,1,0,.55c0,.09-.13.16-.2.25-.06-.11-.2-.23-.18-.32a2.38,2.38,0,0,1,.24-.51Z" transform="translate(0 0)"/><path d="M62.46,75.2a1.2,1.2,0,0,1,.28-.72.31.31,0,0,1,.2.13,1.89,1.89,0,0,1-.19.44C62.71,75.11,62.6,75.13,62.46,75.2Z" transform="translate(0 0)"/></svg>