<svg id="Layer_1" data-name="Layer 1" xmlns="http://www.w3.org/2000/svg" viewBox="0 0 127 120"><path d="M75.12,0H127V120H0V75.12A75.12,75.12,0,0,1,75.12,0Z" transform="translate(0 0)" fill="#ffc13f"/><path d="M93.89,72.35c.85.48,1.74.9,2.54,1.45,1,.69,1.89,1.52,2.86,2.24a4.48,4.48,0,0,0,3.86,1,6.12,6.12,0,0,0,2.64-1.64,20.82,20.82,0,0,0,3.33-4.26c.28-.47.54-1,.84-1.41.06-.1.25-.12.38-.17,0,.13.08.29,0,.38a19.11,19.11,0,0,1-5.45,6.81,4.34,4.34,0,0,1-5.13.19c-1.1-.69-2.09-1.56-3.14-2.33-.62-.46-1.26-.9-1.91-1.32a5.13,5.13,0,0,0-.83-.37v7.32h4.63c.41,0,.66.07.57.55a.92.92,0,0,0,0,.33h5v1.29c-.82.67-.11,1.55-.41,2.31l.48.09c.17,1.07.11,1.29-.44,1.44V93h-5v1H88.37l-.46-.22c.16-.08.31-.22.46-.22h9.91V86.37H85.59v6l.81.08v1.08a5.48,5.48,0,0,1,.81,0c.1,0,.18.14.27.22a.89.89,0,0,1-.26.21,1,1,0,0,1-.34,0H66.41L53.12,94a1,1,0,0,1-.34,0,2.71,2.71,0,0,1-.35-.24,1.07,1.07,0,0,1,.37-.22,4.45,4.45,0,0,1,.73,0V92.46l.82-.08v-6H41.76V93.5h9.32a3.32,3.32,0,0,1,.63,0,1.07,1.07,0,0,1,.37.22,2.71,2.71,0,0,1-.35.24.71.71,0,0,1-.29,0H41.27l-.05-1H36.6c-.46,0-.44-.11-.41-.42a5.1,5.1,0,0,0,0-.68V86.26c-.58-.22-.63-.4-.47-1.47l.44-.09V82.62c-.71-.34-.17-1-.44-1.5h5c.07-.07.1-.1.1-.12.11-.78.1-.79.93-.79h4.33V71.53c0-.53-.28-1.06-.08-1.53a9.54,9.54,0,0,0,.11-2.72,14.83,14.83,0,0,0-.14-2H47.8v-6.1l-.09-5.49a.88.88,0,1,1,1.74-.08c0,3.25-.07,6.5-.08,9.75,0,.62.06,1.24.1,1.93h1.66v.86h3.42v-3.3c0-.19-.22-.38-.2-.56.06-.64.22-1.26.27-1.9.07-.84.05-1.68.1-2.52a9.71,9.71,0,0,1,1.22-4,15.3,15.3,0,0,1,8.49-7.24,1.69,1.69,0,0,1,.55,0c-.14.13-.25.33-.41.39A15.22,15.22,0,0,0,57,53a10.19,10.19,0,0,0-1.82,5.62c0,.87-.07,1.74-.11,2.61v.56h11.1V55a4.18,4.18,0,0,0,0-1,1,1,0,0,1,.4-1.18c.45-.29.79,0,1.15.27.49-.27,1-.71,1.47,0,.67-.44.8-.44,1.57,0,.68-.51.86-.51,1.52,0a1,1,0,0,1,1.18-.21c.47.26.45.68.41,1.14s-.06,1.08-.07,1.62v9.25c0,.28-.06.63.49.49V62.81c-.51-.07-.18-.55-.3-.85a1.69,1.69,0,0,1,.43-.15h10c.42,0,.57-.1.53-.54A40.77,40.77,0,0,0,84.55,57a12.72,12.72,0,0,0-5.94-8.37c-1-.64-2.1-1.06-3.14-1.61-.15-.07-.25-.26-.37-.39.17,0,.37-.09.51,0,4.8,1.89,8.17,5.12,9.4,10.26a18.79,18.79,0,0,1,.26,3,7.1,7.1,0,0,0,.12,1.59.47.47,0,0,0,.29.32.6.6,0,0,1,.46.71.5.5,0,0,1-.08.2,1.64,1.64,0,0,0-.14.22V66.2h2.9l.06-.87h1.26c.41,0,.43-.08.43-.41,0-3.28,0-6.57.07-9.85,0-.46-.06-.92-.08-1.38a.88.88,0,1,1,1.74-.08c0,3.29-.07,6.57-.09,9.85,0,.58.07,1.17.11,1.82h1.57a31.06,31.06,0,0,0,0,3.61,13.28,13.28,0,0,1,0,3.45l-.71-.92H89.77c-.12.79-.12.79-.44.93,0-.24-.07-.47-.09-.71s.07-.88-.12-1-.71,0-1.07,0h-.13v2.7a5.51,5.51,0,0,1,.94-.55,4.78,4.78,0,0,1,1-.1,4.93,4.93,0,0,0-.11.67V79.7c0,.11-.14.21-.22.32a1.34,1.34,0,0,1-.22-.31V74.34a6.57,6.57,0,0,0-.07-1.14l-1.53.8a1.84,1.84,0,0,1,.19.51v4.84c0,.24.17.6-.25.65a1.3,1.3,0,0,1-.2-.64V76.54c-.91,0-1.77-.06-2.61,0a6.84,6.84,0,0,0-1.61.5c-.07,0-.12.13-.16.22-.14.3-.28.3-.46,0a.45.45,0,0,0-.27-.2c-.32,0-.64-.07-1-.09a.54.54,0,0,0-.07.13v.18a.52.52,0,0,1-.26.17.67.67,0,0,1-.17-.19,1,1,0,0,0-1.1-.74H76.25c-.15,0-.29-.15-.44-.24.14-.07.29-.2.43-.2h2.28A4,4,0,0,0,79,76c-1-.58-1.65-1.52-2.84-1.25a.17.17,0,0,1-.1,0l-.24-.19c.08-.09.14-.22.24-.25a2.31,2.31,0,0,1,.52-.06c0-.11-.08-.15-.09-.19-.08-.19-.26-.48-.21-.54.27-.26.44,0,.57.21a1.53,1.53,0,0,0,1.45.57,3.31,3.31,0,0,1,.63,0h1.72c0,.46-.21.47-.47.47H78.33v.15a6.82,6.82,0,0,0,2.58,1.29V74a27.86,27.86,0,0,1,0-2.89c.1-1-.12-1,1-1h.24c1,0,1,0,1,1v5.1A4.82,4.82,0,0,1,84,76.1c1,0,1.46-.72,2.11-1.23a1.27,1.27,0,0,0-.47-.09h-2a1.5,1.5,0,0,1-.41-.18l0-.2h3.77c0,.87-1,1-1.41,1.69H87.5c-.09-.49-.19-1-.25-1.46a2.73,2.73,0,0,1,0-.7,4.88,4.88,0,0,0,.12-.55V70.17H89V67.32h-.78V69.1c0,.12.18.24.27.35l.23.25a1.15,1.15,0,0,1-.29.2.66.66,0,0,1-.28,0H82.4c-.67,0-1.35-.07-2-.07-1.15,0-2.29,0-3.43.06a1.44,1.44,0,0,1-.48-.2c.16-.09.32-.24.48-.24h3.72c.43,0,.53-.17.5-.55,0-.56-.07-1.12-.06-1.69,0-.14.16-.29.24-.43.07.14.2.28.2.43V69c0,.44.31.38.57.4s.32-.18.31-.43a15,15,0,0,1,0-1.64,2,2,0,0,1,.24-.59,2.21,2.21,0,0,1,.21.61v2h4.63c.09,0,.26-.22.27-.34V66.61H52.27V69c0,.33.1.45.44.44h4c.38,0,.47-.14.46-.48V67.19c0-.14.15-.27.23-.4a2.1,2.1,0,0,1,.22.42,1.21,1.21,0,0,1,0,.38v1.76c.85.12.85.1.81-.64a13.19,13.19,0,0,1,0-1.54c0-.13.13-.26.2-.38.08.13.23.26.23.39V69c0,.32,0,.46.42.45h4.07a3.56,3.56,0,0,1,.72.23V67.28c0-.14.14-.27.22-.41.08.14.21.28.22.42v2.53h1.32v-2.6c0-.12.16-.23.25-.35a1.38,1.38,0,0,1,.2.33c0,.27,0,.55,0,.82v1.79h7.33V67.24c0-.12.12-.23.19-.34a1.46,1.46,0,0,1,.26.34,1.55,1.55,0,0,1,0,.43v2.17h1.31V67.52a1.05,1.05,0,0,1,.21-.59c.4,0,.23.39.24.61v1.94a1,1,0,0,0,.11.39,2.35,2.35,0,0,0,.23.32,2.6,2.6,0,0,1-.47.16H64.18c-.17,0-.46-.07-.49-.16-.09-.3-.29-.26-.49-.26H51v.18l1.6.15v4.08h3.88c.1,0,.2.14.31.21a1.86,1.86,0,0,1-.28.21.71.71,0,0,1-.29,0H52.84a.4.4,0,0,0-.29.26,9.37,9.37,0,0,0,0,1.06H56c.26,0,.63-.2.77.24a3.52,3.52,0,0,1-.77.21H52.56v3c0,.16-.15.32-.23.49-.07-.16-.21-.31-.21-.47v-8c0-1.15,0-.91-.92-1-.36,0-.49.1-.48.46v8.61c0,.13-.15.27-.23.4-.07-.14-.16-.27-.23-.42a1,1,0,0,1,0-.24v-7.9H46.51V80.2h7.83V78.36h3.41l.09-.67h3.65c-.05.26-.09.47-.12.69a9.88,9.88,0,0,0-.27,1.52v6.25a16.46,16.46,0,0,0,.2,1.72H78.63a4.94,4.94,0,0,0,.25-1.14V79.52a2.5,2.5,0,0,0-.13-.54c-.09-.42-.18-.84-.28-1.28h3.68l.07.67h3.41v1.81h7.84v-7.4l.65-.08ZM85.73,84.67H98.25v-2.5H85.55c.06.41.15.81.18,1.2S85.73,84.22,85.73,84.67Zm-31.31,0a4.67,4.67,0,0,1,0-2.46H41.75v2.46Zm44.34,1.64V92.5h4c.47,0,.57-.17.57-.59V86.1a42.66,42.66,0,0,0-4.57.22Zm-62.13-.08V92c0,.34.1.54.51.51h4.09V86.4a15.77,15.77,0,0,0-4.6-.16ZM61.2,62.78V65.7c0,.44.14.55.55.53.9,0,1.8-.08,2.69-.08H75.62c1.07,0,2.14,0,3.21.07.34,0,.45-.1.45-.44v-3h-3.2c0,.86-.06,1.7,0,2.53,0,.45-.06.53-.45.53H64.36c-.17,0-.34-.15-.51-.23l.46-.25.1-.09V62.78ZM55,91.23H85.1c.08-.39.12-.65-.4-.65h-19c-1.33,0-2.66,0-4,.06H55.44C55,90.59,54.79,90.7,55,91.23Zm30.12.5H54.92v.61H85.07Zm.82,1.77c.1-.65.1-.66-.51-.66H54.51c-.22,0-.46-.06-.47.31s.23.32.46.32H85.29a5.6,5.6,0,0,0,.6,0Zm-28-3.41a17.2,17.2,0,0,1,.21-3.36,7.86,7.86,0,0,0,0-1.68c0-.43-.08-.61-.55-.59H55.42c-.41,0-.56.09-.55.53v5.09Zm27.11,0V84.8c0-.33-.2-.32-.42-.32H82.26c-.39,0-.5.13-.49.5A16.75,16.75,0,0,0,82,87.9a11.34,11.34,0,0,1,0,2.18Zm-3.68-2.82V79.55c0-.1-.21-.26-.33-.27h-1.3c-.24,0-.35.08-.35.34V87c0,.11.15.31.23.31h1.75Zm-22.72,0h1.74c.09,0,.24-.23.24-.36V79.66c0-.3-.12-.39-.4-.38s-.74,0-1.11,0-.5.09-.5.48v4.83ZM61.33,89H78.65v-.65H61.33ZM50.56,66.74a2.75,2.75,0,0,1-.69.21H47c-.14,0-.4.15-.41.24-.05.74-.06,1.48-.07,2.22,0,.25.11.42.41.41h2.61a6.25,6.25,0,0,1,1.05.19Zm38.88,3.42.12.14c0-.57.35-.46.63-.46H93c.37,0,.48-.11.47-.47v-2c0-.33-.11-.45-.44-.44H90.16a3,3,0,0,1-.72-.21Zm-28.11,20H78.64v-.64H61.33Zm-1.88-24v-3.4H56.28v3.4ZM81,62.78v3c0,.13.17.37.27.38h2.61a.45.45,0,0,0,.3-.31V62.73Zm17.76,20v1.88h4.52V82.83Zm-57.53,0H36.72v1.84h4.51Zm13.66,0h3.26v-2.3a.47.47,0,0,0-.31-.3H55.23a.47.47,0,0,0-.32.29c0,.77,0,1.53,0,2.33Zm27,0H85.1v-2.3a.45.45,0,0,0-.3-.3H82.14c-.09,0-.27.15-.27.23,0,.81,0,1.59,0,2.39Zm.77-12.14a6.73,6.73,0,0,0-1-.07.43.43,0,0,0-.32.29v1.63c0,1.14.07,2.28,0,3.42,0,.46.17.61.58.63h.38a.36.36,0,0,0,.38-.35V74.26Zm9.27-5.36c0-.65-.12-1.27-.13-1.89V56a8.34,8.34,0,0,0,0-1,.39.39,0,0,0-.28-.26c-.1,0-.24.14-.3.25s0,.22,0,.33v6.53c0,.77-.08,1.54-.1,2.31v1.1ZM48.2,54.84V65.29H49c0-.65-.11-1.26-.11-1.88V55.23C48.86,54.8,48.71,54.67,48.2,54.84Zm21.52.27v9.71c.42.14.59,0,.58-.41V55.52C70.31,55.08,70.16,55,69.72,55.11Zm-3,9.71c.5.16.61,0,.6-.43v-9c0-.11-.16-.21-.25-.31a3.26,3.26,0,0,0-.33.31v6.81ZM68.17,60v4.45c0,.21-.07.47.3.47s.3-.25.3-.47V55.56c0-.21.08-.49-.29-.48s-.31.25-.31.47Zm3,0v4.45c0,.21-.07.47.3.47s.31-.25.31-.47v-8.9c0-.21.07-.46-.31-.47s-.3.27-.3.47Zm2.08,4.86V55.51c0-.2.1-.49-.29-.47s-.31.25-.31.48v8.89c.06.44.22.59.64.41ZM58.43,90.07h2.41v-2a.43.43,0,0,0-.24-.3H58.45Zm23.13-2.34H79.39c-.08,0-.22.11-.22.18v2.17h2.4Zm3.12-21.55h.79v-3.4h-.79Zm-24.74-3.4v3.4h.78v-3.4Zm19.79,0v3.1c0,.3.16.34.4.33s.42,0,.41-.31V62.79Zm-24,0H55v3.39h.78Zm19,0v2.61c.3-.12.76.27.78-.35s0-1.51,0-2.26Zm-9.89,0v2.57h.76V62.78ZM51,69.47a2.09,2.09,0,0,0,.5,0,.32.32,0,0,0,.26-.24V67.34H51ZM69.79,54.3c.23-.18.49-.28.54-.45a1,1,0,0,0-.15-.63.42.42,0,0,0-.38,0C69.45,53.48,69.61,53.81,69.79,54.3Zm3.42,0,.2-.13c-.06-.3-.09-.6-.18-.9h-.41a1.21,1.21,0,0,0-.1.7c0,.1.28.18.49.28Zm-1.12-.59-.58-.52c-.13.17-.34.33-.37.51s0,.6.36.51c.19-.09.33-.32.59-.55Zm-5.71,0c.26.25.4.49.58.54.4.1.4-.29.38-.49s-.24-.35-.36-.53Zm2.67,0-.58-.49c-.13.17-.35.33-.37.52s0,.58.38.51a6.39,6.39,0,0,0,.57-.62Zm-19.91-.06-.64-.48c-.12.17-.3.32-.34.51a.32.32,0,0,0,.41.35c.26-.07.29-.27.57-.46Zm42.29.59c.2-.27.41-.43.39-.54a3.11,3.11,0,0,0-.36-.53,1.92,1.92,0,0,0-.39.51c-.07,0,.17.2.36.48Z" transform="translate(0 0)"/><path d="M65.47,35.77,64.93,33h-.61c-.19-.66-.7-.7-1.29-.62-.3,0-.73.15-.82-.28s.37-.52.67-.6c.86-.23,1.73-.4,2.59-.62.18-.05.33-.23.51-.32a1.75,1.75,0,0,1,.69-.29c1.72-.07,3.45-.13,5.17-.16a8.09,8.09,0,0,1,1.39.14c.34.05.72.05.87.49,0,.08.25.11.38.14.87.2,1.73.39,2.59.6a1.7,1.7,0,0,1,.53.24c.1.07.21.25.18.34a.45.45,0,0,1-.31.3H76.36a.53.53,0,0,0-.37.17c-.32.45-.31.46-.94.44l-.53,2.79h2a12.51,12.51,0,0,1,0,1.5c0,.12-.28.21-.5.36-.08.73-.08.73-1,.73H64.11V37.08H76v-.84H64.13a2.14,2.14,0,0,1-.6-.21,2,2,0,0,1,.59-.24C64.55,35.75,65,35.77,65.47,35.77Zm5.12,0h2.93l.54-3c-.64,0-.7-.47-.71-.94l-1.51-.45-.44,1.11a2.53,2.53,0,0,0-.55,0,.32.32,0,0,0-.25.21c0,1,0,2,0,3Zm-4.67-3c.18,1,.34,1.9.53,2.81a.33.33,0,0,0,.25.22h2.71V33.3c0-.77,0-.77-.75-.82h-.1l-.42-1.07-1.52.46c0,.42-.05.83-.7.86Zm4,5.14H74.8a1.27,1.27,0,0,0,.39,0,1,1,0,0,0,.22-.18.8.8,0,0,0-.21-.15H65.07a1,1,0,0,0-.34,0c-.07,0-.12.12-.18.18s.11.12.17.13h.39ZM68.31,31c.21.32,1.24.41,3,.29a1.37,1.37,0,0,0,.38-.15V31ZM70,32.66a6.63,6.63,0,0,0,0,3.13Z" transform="translate(0 0)"/><path d="M65.09,41H66V39.68a2.71,2.71,0,0,1-.57,0,2,2,0,0,1-.45-.24c.14-.07.28-.2.42-.2h8.86a.71.71,0,0,1,.29,0,3.26,3.26,0,0,1,.4.24,1.72,1.72,0,0,1-.43.21,3,3,0,0,1-.6,0V41h.86c0,.6.21,1.2-.32,1.71a.69.69,0,0,0-.13.44v1.3c0,.26-.06.54.35.55,0,0,.14.16.15.25v1.52h-9.1a.71.71,0,0,1-.29,0,1.74,1.74,0,0,1-.29-.25,1.07,1.07,0,0,1,.28-.19,1.21,1.21,0,0,1,.38,0h8.55v-.84H65.79a1.28,1.28,0,0,1-.39,0,.43.43,0,0,1-.21-.21c0-.05.09-.2.15-.2.38,0,.32-.3.32-.54V43.48a1.85,1.85,0,0,0-.32-1A5.34,5.34,0,0,1,65.09,41Zm.58.47c-.14.45.12.46.41.46h8.07a.42.42,0,0,0,.19-.26s-.11-.16-.19-.19a.71.71,0,0,0-.29,0H65.67ZM71.51,41V39.71h-3V41Zm.43,4a2.26,2.26,0,0,1,.52,0c.42,0,.59-.1.54-.54V43.6c0-1,0-1-1-.78ZM68,45V42.73a4.57,4.57,0,0,0-.74,0c-.11,0-.28.14-.28.22v2Zm1.44,0h1V42.8a2.81,2.81,0,0,0-.71,0,.37.37,0,0,0-.28.27c0,.57,0,1.2,0,1.87Zm-2.23-4c.58,0,.83-.2.81-.67s-.25-.62-.76-.62-.84.18-.84.65S66.68,41,67.24,41Zm5.49,0c.59,0,.8-.16.8-.62s-.26-.67-.82-.67-.78.23-.78.67S72.15,41,72.73,41Zm-1.29,2.9h0V43c0-.1-.13-.18-.2-.27-.08.08-.22.15-.22.23v1.78c0,.07.12.14.19.21s.21-.15.22-.23a8.81,8.81,0,0,0,0-.89ZM69,43.9a6.76,6.76,0,0,0,0-.9c0-.1-.15-.19-.23-.28-.06.09-.19.17-.19.26v1.68c0,.1.15.19.23.28.06-.09.18-.17.19-.26,0-.28,0-.57,0-.85Zm4.91,0a6.17,6.17,0,0,0,0-.86c0-.1-.13-.18-.19-.27-.08.09-.22.17-.22.25v1.74c0,.08.15.15.23.23.06-.09.17-.17.18-.27a6,6,0,0,0,0-.85Zm-7.37,0q0-.43,0-.87c0-.09-.12-.18-.19-.27-.08.08-.21.16-.21.25v1.73c0,.08.14.16.21.24.07-.09.18-.17.19-.26a5.89,5.89,0,0,0,0-.84Z" transform="translate(0 0)"/><path d="M70,94.63H86.88a1.15,1.15,0,0,1,.62.21c0,.39-.39.24-.61.24H53.06a.66.66,0,0,1-.28,0,1.7,1.7,0,0,1-.34-.26l.33-.21a.17.17,0,0,1,.1,0H70Z" transform="translate(0 0)"/><path d="M69.94,39.05H65.16a1.28,1.28,0,0,1-.39,0,.26.26,0,0,1-.16-.19.25.25,0,0,1,.15-.21,1.48,1.48,0,0,1,.42,0H74.8l.54.25a1.44,1.44,0,0,1-.52.2C73.23,39.06,71.59,39.05,69.94,39.05Z" transform="translate(0 0)"/><path d="M35.84,79.67h3.75L39.37,81H36.05Z" transform="translate(0 0)"/><path d="M100.61,81l-.22-1.31h3.74L103.94,81Z" transform="translate(0 0)"/><path d="M66.76,81.09H73.2v-.35c0-2.74.09-5.47.14-8.2,0-.27-.09-.55-.08-.82,0-.11.16-.3.25-.3h1.93c.1,0,.3.18.28.23a11,11,0,0,0-.08,2.56v2.37c0,1.49.11,3,.16,4.54h2a.71.71,0,0,1,.29,0c.17.06.33.15.5.23-.17.07-.34.21-.51.21H61.74c-.15,0-.3-.14-.46-.22.16-.08.31-.22.46-.22h2.38a1.71,1.71,0,0,0,0-.32c0-2.7.1-5.4.13-8.1,0-.34-.09-.67-.08-1a.38.38,0,0,1,.29-.27h1.88c.27,0,.37.12.25.41a1.47,1.47,0,0,0,0,.59v3.73C66.63,77.77,66.7,79.4,66.76,81.09Zm8.59,0v-.63c0-1.6-.1-3.2-.13-4.81V71.9H73.91c-.06,3.08-.12,6.13-.17,9.19Zm-9.1,0-.17-9.2H64.82l-.16,9.2Z" transform="translate(0 0)"/><path d="M59.17,70.22v4.1h4.34a.91.91,0,0,1,.33,0,1.46,1.46,0,0,1,.33.22c-.11.08-.23.22-.34.22H59.21V76.1h4.41a.92.92,0,0,1,.33,0c.09,0,.15.14.21.21a1.51,1.51,0,0,1-.23.21H59.68a4.26,4.26,0,0,1-.5-.06,3.75,3.75,0,0,1,0,.67c0,.12-.16.23-.24.34-.08-.11-.22-.22-.22-.33V74.58c0-1.22,0-2.44.06-3.66,0-.26-.07-.42-.41-.36a8.34,8.34,0,0,1-1,0V77c0,.16-.14.31-.22.47-.07-.15-.22-.3-.22-.45V70.6c0-.27.1-.43.39-.42Z" transform="translate(0 0)"/><path d="M69.89,83.84H62a1.21,1.21,0,0,1-.38,0,1.42,1.42,0,0,1-.34-.25l.32-.2a.71.71,0,0,1,.29,0H78a1.19,1.19,0,0,1,.63.21c0,.4-.39.24-.61.24Z" transform="translate(0 0)"/><path d="M70,85.63h8a1.55,1.55,0,0,1,.43,0,.3.3,0,0,1,.2.21.34.34,0,0,1-.2.22,1.28,1.28,0,0,1-.39,0H61.66c-.13-.06-.25-.14-.38-.21.13-.09.26-.24.39-.24h4.25Z" transform="translate(0 0)"/><path d="M70,82.25h8a1.21,1.21,0,0,1,.38,0c.1,0,.18.14.27.21-.08.08-.15.19-.25.23a1,1,0,0,1-.34,0H61.91a1.55,1.55,0,0,1-.58-.24,1.78,1.78,0,0,1,.56-.2C64.56,82.24,67.27,82.25,70,82.25Z" transform="translate(0 0)"/><path d="M69.94,84.49h8a1,1,0,0,1,.43,0c.1,0,.17.15.25.23-.08.07-.14.17-.23.2A1.8,1.8,0,0,1,78,85H61.92c-.22,0-.57.16-.6-.24,0-.06.38-.21.59-.21Z" transform="translate(0 0)"/><path d="M70,87.21H62c-.23,0-.58.15-.6-.25,0-.06.39-.21.6-.21H78.06c.22,0,.57-.15.6.26a1.18,1.18,0,0,1-.6.19H70Z" transform="translate(0 0)"/><path d="M70,70.63h5.57a.71.71,0,0,1,.29,0,2.16,2.16,0,0,1,.36.22c-.12.08-.24.22-.36.22H64.19l-.51-.24c.17-.07.34-.22.51-.22Z" transform="translate(0 0)"/><path d="M93.08,72.61a4.18,4.18,0,0,1-.71-.09c-.1,0-.17-.2-.25-.31.12-.06.28-.21.36-.17a4.24,4.24,0,0,1,.65.46Z" transform="translate(0 0)"/><path d="M91.25,72c.25.67-.18.55-.5.57Z" transform="translate(0 0)"/></svg>