<svg id="Layer_1" data-name="Layer 1" xmlns="http://www.w3.org/2000/svg" viewBox="0 0 127 120"><path d="M75.12,0H127V120H0V75.12A75.12,75.12,0,0,1,75.12,0Z" transform="translate(0 0)" fill="#ffc13f"/><path d="M22.25,73.55c.38-1.36.75-2.67,1.11-4a2.33,2.33,0,0,0,.22-.86c-.08-.58.24-1,.16-1.62-.15-1.08-.29-2.17-.48-3.52L25,64.2v.21l-1.49.16c.16,1,.25,2,.47,2.93a4.86,4.86,0,0,0,.74,1.16l1.82,3.1.26.43.43-2L29,73.13V54.81c1.24-.49,2.45-1,3.67-1.45a.46.46,0,0,1,.36.06c.78.45,1.56.92,2.36,1.4V72h.11V54.11a1,1,0,0,0-.33-.91A2,2,0,0,1,34.6,51c.27-.84.92-1.22,1.59-.9A18.65,18.65,0,0,1,43.68,57,27.64,27.64,0,0,1,47,64.14l.19.54Q52,50,63.39,48.64c-.61-.08-1.22-.14-1.83-.23a1.52,1.52,0,0,1-.58-.19.77.77,0,0,1-.33-.42.87.87,0,0,1,.26-.5c.45-.51.92-1,1.49-1.59a1.7,1.7,0,0,1-.1.32c-.19.42-.39.84-.59,1.26.34.23.67.59,1,.66A9.28,9.28,0,0,0,67,48a.3.3,0,0,0,.21,0c.32-.28.85-.53.89-.88a1.07,1.07,0,0,0-.86-1.13,5.39,5.39,0,0,0-1.39-.15,21.2,21.2,0,0,1-2.64-.11,2.13,2.13,0,0,1-1.51-1.21c-.53-.9-1.1-1.75-1.52-2.41A10.26,10.26,0,0,0,68.26,42a9.6,9.6,0,0,0,1-.66L69.21,41a6.71,6.71,0,0,0-1.32.33,9.84,9.84,0,0,1-6,.77l-.32-.1h2.65a7.18,7.18,0,0,0,4.13-1.31c.65-.47,1.1-.25,1.55.6.29.54.6,1.07,1,1.77a4.84,4.84,0,0,1-.7-.57c-.62-.75-1.12-.72-1.64.2-.22.4-.37.87-.58,1.28s-.46.82-.71,1.25c.56.66,1.14,1.35,1.72,2.06a.45.45,0,0,1,.05.63.49.49,0,0,1-.21.14A13,13,0,0,1,67,48.6c-.5.11-1,.14-1.56.21C72.77,50,77.89,55.29,81,64.68c.19-.59.37-1.13.56-1.66q3.3-9.29,10.27-12.84a1.13,1.13,0,0,1,1.56.36,1.27,1.27,0,0,1,.15.41,2.11,2.11,0,0,1-.6,2.36,1,1,0,0,0-.22.53V72.09c0,9.13,0,0,.1.19V55.56a1.13,1.13,0,0,1,.49-1.07,3.3,3.3,0,0,1,4.25-.35,9.73,9.73,0,0,0,1.64.67V73.28l.12.09,1.44-2.55.44,2c.3-.51.53-.94.78-1.34a11.7,11.7,0,0,0,1-1.42,9.64,9.64,0,0,1,.77-1.41,6.81,6.81,0,0,0,.65-2.54c.21-.83.08-1-.58-1h-.77v-.27l1.77-.64c-.18,1.33-.32,2.39-.45,3.45a1.89,1.89,0,0,0,0,.67c.11.48.29.92.4,1.4.32,1.42.62,2.84.94,4.26a2.65,2.65,0,0,0,.18.42c.28-.73.53-1.33.74-2s-.07-.76-.43-.78a.9.9,0,0,1-.55-.15c.12-.09.23-.23.35-.26a7.55,7.55,0,0,1,.83-.13,5.57,5.57,0,0,1,0,1,4.75,4.75,0,0,0,.15,2.48,8.32,8.32,0,0,1,.28,1.92c0,.59.14,1,.55,1v.72H108l.52-1.43v.51a2.7,2.7,0,0,0,.08.74c.15-.16.3-.32.44-.49s.15-.24.22-.36l.6,2.17.25-.59a4.93,4.93,0,0,1,.06,2.53c0,.53-.06.92.32,1.19l1.34,1a58.13,58.13,0,0,0,.12-7.23l-.15-.14-1.34,2.3-.17-.79-.42.41-.14-.1.33-1.35-.5.25c-.13-1,.52-1.16.93-1.71l-1.06.45-.06-.25,1.51-.71c-.3-.51-.3-.51-1.25-.42l.17-.55-.56-.17v-.25a4,4,0,0,0,.92-.07,3.65,3.65,0,0,0,.64-.2,4.54,4.54,0,0,0-.19-.81c-.22-.47-.47-.9-.66-1.42.64-.07.93.55,1.26,1.07l.47-1.07.19.09a5.87,5.87,0,0,0,0,3c.17-.78.3-1.56.49-2.32a2.53,2.53,0,0,1,.44-.94c.14-.18.39-.2.6-.29a6.46,6.46,0,0,1,0,.88,1.64,1.64,0,0,1-.22.51l.57.3-1.54,2.5v.09a1.31,1.31,0,0,0,.25-.22L113.54,73c.49-.57,1-.31,1.62.17l-1.48.83c.51.26,1.13-.15,1.47.83l-1.59.16v.21c.42.54,1.25.52,1.24,1.7l-2.06-1.21a3.58,3.58,0,0,0,1.61,3.11l-.06-.86.12-.08.4.7.13-1.28.69-.18.31,1.06.49-.11-.4.62h.58l.09.21-1.26,1.35c1.22,0,1.66.29,1.83,1.07l-1.63-.59.94,1.38-.09.12-.56-.26v.7l-.12.09L114.92,81a1.57,1.57,0,0,0-.2.46c-.12,1.24-.25,2.48-.32,3.73-.05.76.26,1.16.91,1.1-.39.54-.07.77.17,1a28.35,28.35,0,0,1,1.84,2.26,1.23,1.23,0,0,1-.31-.14A59,59,0,0,0,99.3,81.64c-4.23-1.15-8.49-2.08-12.76-2.86-3.45-.63-6.93-.94-10.41-1.3A121.82,121.82,0,0,0,58.21,77c-4.49.2-9,.52-13.46,1a97.72,97.72,0,0,0-21.56,4.86A53.45,53.45,0,0,0,10,89.47a.21.21,0,0,1-.29,0c.62-.73,1.24-1.46,1.88-2.17a1.41,1.41,0,0,0,.31-1.63c.46.1.78-.1.85-.74a12.42,12.42,0,0,0-.35-4.25.66.66,0,0,0-.11-.24h0l-.8,1.82-.12-.08v-.74l-.59.29-.08-.09.59-1.08c-.5-.5-.87.23-1.31.32.17-.86.76-1.2,1.89-1.12L10.5,78.42v-.18l.61-.1-.37-.57.52.1.29-1.19c.44.38.73.38,1.06-.15s.65-.58,1-1.07L12,75.06c.35-1,1-.55,1.5-.78L12,73.43c1.53-1.27,2.1.63,3,1.3l-1.56-2.52.57-.28a3,3,0,0,1-.24-.59,5.61,5.61,0,0,1,0-.82c.19.07.45,0,.56.21a5.26,5.26,0,0,1,.85,2.86V74c0,.12,0,.08.07.17a5,5,0,0,0,0-3.06c.57.05.53.64.64,1.16.31-.7.67-1.22,1.2-1.37l.15.18-1,1.95.21.54h1.47v.21l-.63.17.21.55c-.49,0-1-.3-1.32.4l1.55.72-.05.24-1.1-.44a5.36,5.36,0,0,1,.71.72,4.66,4.66,0,0,1,.28.82h-.52l.32,1.28-.14.11L17,77.89l-.16.82-1.33-2.34-.13.1v7.11l2.47-2a.66.66,0,0,0,.17-.44c0-.55-.18-1.09-.2-1.65A9.33,9.33,0,0,1,18,78l.27.84.62-2.18.73,1.07V76.08l.53,1.56h.17v-.72c.39,0,.51-.4.53-1a6.4,6.4,0,0,1,.27-1.84,5.82,5.82,0,0,0,.11-2.93,2,2,0,0,0-.05-.53c.51-.43.89,0,1.39.34a2.79,2.79,0,0,1-.39.1c-.77,0-1,.54-.6,1.45A7.09,7.09,0,0,0,22.25,73.55ZM92,53.72c-.68.47-1.28.87-1.86,1.31a1,1,0,0,0-.22.61V71.15c0,.18,0,.49.13.52.62.24,1.26.43,2,.65ZM38.17,71.25V55.53a.71.71,0,0,0-.15-.44c-.61-.45-1.24-.88-1.93-1.35V71.93ZM67.09,52.59V66.88c0,.34-.07.75.33.74h1.74a1.31,1.31,0,0,0,0-.28V53.88a.77.77,0,0,0-.27-.54C68.37,53.07,67.77,52.86,67.09,52.59Zm-6.1,0c-.55.21-1,.43-1.55.59s-.57.39-.56,1V67.49H61Zm.68-.14v15h2V52.19Zm2.73-.28V67.51h2.08V53.21c0-.24-.12-.66-.23-.69a14.64,14.64,0,0,0-1.85-.33Zm24.9,3.57c-1.22,1.11-2.48,2-2.09,4.4v9.92c0,.26.08.71.19.75.61.25,1.24.41,1.89.61Zm-19.49-2V67.05c0,.24.12.68.22.7.62.1,1.24.11,1.85.15a1.7,1.7,0,0,0,.06-.31v-12a.9.9,0,0,0-.25-.6Zm-31,17.36a13.49,13.49,0,0,1,1.65-.47c.36-.07.44-.27.44-.73V58.5a1.24,1.24,0,0,0-.08-.57c-.62-.74-1.26-1.44-2-2.28ZM58.28,53.73c-.65.44-1.19.83-1.74,1.19a1,1,0,0,0-.39.94v12l2.08-.19Zm14.4,2.05-.15.16V67.58c0,.14.13.39.22.4.62.11,1.24.17,1.85.24a1.55,1.55,0,0,0,.06-.31V58.45a.83.83,0,0,0-.09-.49C74,57.22,73.32,56.5,72.68,55.78Zm-17.1.15-.13-.14c-.55.6-1.09,1.2-1.64,1.78a1.54,1.54,0,0,0-.38,1.16v9.33a10,10,0,0,0,1.75-.17.74.74,0,0,0,.34-.56C55.58,63.53,55.58,59.73,55.58,55.93Zm31,3.15-.11-.1c-.29.47-.57,1-.87,1.4a6.91,6.91,0,0,0-1.16,4.44c.11,1.73,0,3.47,0,5.25l2.11.55ZM41.66,59l-.12.07V70.29l2.09-.54c0-1.94-.08-3.78,0-5.61C43.77,61.74,42.46,60.6,41.66,59ZM77.4,68.62c0-1.6-.05-3.06,0-4.52a4.89,4.89,0,0,0-.66-2.77L75.39,59l-.1.1v9.21ZM52.8,58.86c-1.06,1.86-2.38,3.26-2.1,5.85a16.68,16.68,0,0,1,0,2v1.78l2.08-.32ZM13.25,85.58c.51-.52,1-1,1.43-1.48a1.28,1.28,0,0,0,.24-.7V79h-.17l-.29,1.12h-1.8Zm99.36-4.9-.07-.16,1.17-.61c-.46-.46-1.27.09-1.42-1.13a3.85,3.85,0,0,0-.1.83v3.83a1.28,1.28,0,0,0,.12.61c.52.59,1.07,1.14,1.61,1.7l.55-5.07ZM83.84,69.91V64.56l-.17-.06-1.24,5.08Zm-38.19-.59-1.23-4.86-.16.07v5.09Zm33.68-.38-1.15-4.37-.14.08v4.08ZM50.11,64.63h-.2l-1,4.14a4.87,4.87,0,0,0,1-.17.52.52,0,0,0,.27-.4C50.12,67,50.11,65.8,50.11,64.63ZM12.33,77.81l.14.22.29-.77.16.18v.85c1.4-1,1.45-1.1,1.57-2.25C13.65,76.45,12.71,76.51,12.33,77.81ZM32.27,65c-.36.1-.43.61-.27,2C32.36,66.93,32.42,66.46,32.27,65Zm-1.88,3-.18-.1a1.23,1.23,0,0,0-.19.4v1.27c0,.13.12.24.18.36a1.33,1.33,0,0,0,.18-.38c0-.46,0-1,0-1.49Zm.9-3.52c.42-.32.49-1.24.25-2.24-.43.76-.16,1.5-.25,2.3ZM95.79,54c.1.75-.2,1.52.27,2.3C96.29,55,96.21,54.25,95.79,54Zm-65,18.66L31,72.6a3,3,0,0,0,0-.6,10.59,10.59,0,0,0-.16-1.43c-.07.49-.16,1-.2,1.48a2,2,0,0,0,.15.6ZM32.1,61.57c.37-.61.16-1.34.22-2.07C31.91,59.72,31.85,60.27,32.1,61.57ZM95.9,59.4c-.23,1.22-.14,2,.31,2.19C96,60.87,96.42,60.1,95.9,59.4ZM31.41,70.07a4.79,4.79,0,0,0,.26-2.22C31.27,68,31.19,68.65,31.41,70.07Zm65.31-.22c0-.69.26-1.42-.18-2C96.52,68.55,96.26,69.28,96.72,69.85Zm-64.86-1.1.26,1a4.9,4.9,0,0,0,.19-1,4.9,4.9,0,0,0-.19-1Zm.14-9.9c.36-.22.45-1.13.22-2.06C31.9,57,31.86,57.41,32,58.85Zm63.87-2.1c-.2,1.29-.11,2,.24,2C96.26,57.59,96.21,57.06,95.87,56.75ZM31.4,67.16c.31-.22.39-1,.18-2C31.26,65.36,31.18,66.2,31.4,67.16ZM96.56,65c-.25,1.22-.16,2,.26,2.12C96.72,66.44,97,65.7,96.56,65ZM32.31,62.17c-.16.11-.31.15-.31.21v1.79s.13.16.15.14a.61.61,0,0,0,.19-.29C32.32,63.45,32.31,62.87,32.31,62.17ZM96.2,64.33c-.15-.72.2-1.48-.29-2.19C95.67,63.3,95.76,64.15,96.2,64.33ZM32,56.12c.39-.22.48-1.14.19-2.09A4.49,4.49,0,0,0,32,56.12ZM97.53,71.58l-.25-1a4.29,4.29,0,0,0-.18,1,6.81,6.81,0,0,0,.2,1Zm-1-1.09-.13.08v1.7c0,.1.12.2.18.3.06-.1.17-.19.17-.3V70.85c0-.13-.09-.24-.17-.36Zm0-16.38c-.2,1.44-.12,2.07.29,2.19C96.72,55.61,97,54.85,96.53,54.11ZM30.74,56.55c.49-.57.22-1.31.21-2C30.44,55.11,30.75,55.86,30.74,56.55Zm66.65,2.67c.2-1.21.11-1.87-.27-1.92C97,58.87,97,59,97.39,59.22Zm-65.7.42c-.43.31-.5,1.19-.26,2.22C31.86,61.16,31.59,60.43,31.69,59.64Zm65,2.1c0-.69.3-1.43-.15-2a3,3,0,0,0,.16,2ZM95.88,65c0,.7-.25,1.43.18,2C96.1,66.33,96.38,65.59,95.88,65Zm-.08,2.56v2c0,.09.13.17.21.25,0-.09.14-.17.14-.26V68c0-.12-.15-.2-.35-.4Zm1.25-13.13c.16.76-.2,1.53.31,2.23.22-1.15.14-1.88-.31-2.2ZM98.2,69l-.32-1a6.69,6.69,0,0,0-.14,1,5.67,5.67,0,0,0,.18,1ZM31.31,72.75a3.06,3.06,0,0,0,.29-2.12c-.05,0-.28.11-.28.18C31.3,71.4,31.31,72,31.31,72.75ZM98.8,64.87c-.19-.68.18-1.43-.32-2.09C98.25,64,98.33,64.7,98.8,64.87Zm-1-2.11c.06.66-.32,1.42.21,2,0-.76.28-1.44-.2-2Zm-67.8,2c.41-.26.49-1.15.22-2.15C29.84,63.34,30.08,64.05,30,64.77Zm67.07-2.24c.07.73-.2,1.47.26,2.21.25-1.21.17-1.94-.24-2.21Zm-66.15,0c-.51.57-.19,1.32-.18,2,.47-.53.26-1.26.2-2Zm65.79,1.85c0-.69.3-1.45-.2-2,0,.74-.27,1.48.22,2.05Zm1.93,3c0-.65.29-1.38-.2-1.89,0,.71-.27,1.43.22,2Zm-2.74,3-.12.09v1.64c0,.12.13.23.2.34a1,1,0,0,0,.15-.33V70.76c0-.06-.13-.18-.21-.31Zm-65-13.2a3,3,0,0,0-.16,2c.49-.52.2-1.25.17-1.93Zm-.81,2.18c.47-.57.22-1.29.18-2-.43.64-.18,1.39-.17,2.07Zm67.73-2.11c-.22,1.29-.14,2,.28,2.11-.1-.61.22-1.36-.27-2Zm-.52,10,.15-.14V65.54c0-.12-.13-.24-.2-.35,0,.11-.15.21-.15.32,0,.45,0,.91,0,1.36,0,.21.14.32.21.45Zm-66.52-.09c.42-.55.16-1.29.24-2-.42.29-.45.52-.23,2.07ZM96.7,59.07c.24-1.23.14-2-.32-2.09.2.74-.17,1.5.33,2.16Zm1.75,1.17c0,.65-.29,1.38.2,1.9,0-.58.35-1.31-.19-1.83ZM31.31,59l.27.06a7.88,7.88,0,0,0,.08-2L31.4,57A7.88,7.88,0,0,0,31.31,59Zm-1.55-4c-.43.24-.52,1.08-.24,2.21A5.9,5.9,0,0,0,29.76,55ZM98,56.76c0-.66.3-1.41-.2-1.92C97.81,55.51,97.53,56.24,98,56.76ZM31.59,54.1c-.47.77-.22,1.51-.29,2.21C31.72,56.14,31.78,55.67,31.59,54.1ZM30.38,65.41l-.15-.08c-.07.14-.2.27-.21.42A10.43,10.43,0,0,0,30,67a1.22,1.22,0,0,0,.14.33c.08-.11.21-.22.21-.33C30.39,66.49,30.38,66,30.38,65.41Zm-.65,2.77-.16-.12a1.18,1.18,0,0,0-.19.39,9.11,9.11,0,0,0,0,1.28,1,1,0,0,0,.14.34c.07-.11.2-.22.2-.33C29.75,69.22,29.73,68.7,29.73,68.18Zm0-5.35c-.45.29-.52,1.06-.29,2.12.56-.64.19-1.36.33-2.12Zm68.71-5.15c0,.67-.31,1.39.19,1.94.05-.62.29-1.36-.15-1.94Zm0,10.39-.14.08v1.62c0,.1.12.19.18.29.06-.1.16-.19.17-.3V68.42c.07-.13-.06-.24-.13-.35Zm-69-8.45c.48-.55.19-1.28.19-1.93C29.16,58.24,29.46,59,29.46,59.62ZM30.11,62c.46-.55.2-1.26.14-1.94A3.14,3.14,0,0,0,30.11,62Zm2.3,9.52-.26-1a5.69,5.69,0,0,0-.19,1,5.62,5.62,0,0,0,.15,1ZM31,67.88c-.17.09-.32.12-.32.17v1.71c0,.06.17.18.19.15a.59.59,0,0,0,.15-.33C31,69.06,31,68.53,31,67.88Zm-1.66-.45.18.1a1.5,1.5,0,0,0,.18-.41V65.84c0-.11-.1-.21-.15-.31-.07.11-.2.22-.2.34,0,.52,0,1,0,1.56ZM98,67.56c.23-1.33.15-2-.26-2.14C97.81,66.09,97.55,66.8,98,67.56ZM97.31,70l.15-.13V68.59a.71.71,0,0,0,0-.29,3.9,3.9,0,0,0-.19-.35c-.06.1-.16.21-.16.32a10.14,10.14,0,0,0,0,1.35C97.11,69.75,97.24,69.87,97.31,70ZM29.72,60.25c-.41.29-.49,1.32-.13,2.18A6.39,6.39,0,0,0,29.72,60.25Zm0,10.5-.17-.07a1.71,1.71,0,0,0-.15.62c0,.46-.2,1,.32,1.5ZM98.46,55.09c0,.66-.31,1.39.21,1.93C98.65,56.37,99,55.64,98.46,55.09ZM98,62.25c.22-1.45.14-2-.28-2.11C97.83,60.79,97.53,61.53,98,62.25ZM30,72.74c.19-.11.3-.15.3-.19V70.83s-.13-.16-.15-.14A.6.6,0,0,0,30,71Zm68.2-1.07-.31-1a8.31,8.31,0,0,0-.15,1,5.16,5.16,0,0,0,.19,1ZM30,56.86c.46-.29.54-1.16.28-2.15C29.8,55.36,30.12,56.09,30,56.86ZM98.83,71.67l-.3-1a5.6,5.6,0,0,0-.14,1,4.17,4.17,0,0,0,.2.93ZM97.19,59.78c-.22,1.29-.14,2,.28,2.1C97.36,61.21,97.67,60.47,97.19,59.78ZM30.63,62c.44-.25.52-1.1.27-2.13C30.44,60.47,30.76,61.19,30.63,62Zm67.9,13.19.22-.06a5.34,5.34,0,0,0,0-.8,4.38,4.38,0,0,0-.2-.94,6,6,0,0,0-.16.93,5.62,5.62,0,0,0,.14.82Zm-.59-.28.16-.13a10.46,10.46,0,0,0,0-1.12c0-.1-.17-.18-.26-.28a8.42,8.42,0,0,0-.08,1,2,2,0,0,0,.18.48Zm-68.54-.2c.16-.16.3-.24.31-.32a8.37,8.37,0,0,0-.05-1h-.19c0,.26-.08.52-.1.78a4,4,0,0,0,0,.49Zm68.05-.12a8.34,8.34,0,0,0,0-1c0-.1-.22-.26-.27-.22s-.07,1,.27,1.17Z" transform="translate(0 0)"/><path d="M65.57,35.54l.43.52a1.8,1.8,0,0,1-2.32.43v2.57c-.89.09-1.71.11-2.53.27a3.36,3.36,0,0,0-1.27.59c-.59.4-.59.73-.07,1.35a.78.78,0,0,1-.9-.66.07.07,0,0,1,0,0,.94.94,0,0,1,.49-1.11,28.21,28.21,0,0,1,2.79-1.15c.42-.15.6-.33.58-1V33c.06-1.87,1.27-3,2.55-2.46a1.91,1.91,0,0,1,1.1,1.7c.12,1.35.17,2.71.16,4.06,0,1.74,0,1.75,1.18,2A3.41,3.41,0,0,1,70.64,41a9.31,9.31,0,0,0,.71,1.32,3.56,3.56,0,0,1-.76-.92,3.57,3.57,0,0,0-3.51-2.53c-.4,0-.6.14-.53.73a.83.83,0,0,1-.44,1,3.16,3.16,0,0,1-3-.08c.77-.07,1.68-.13,2.58-.23.36,0,.53-.3.52-.9V33.63c0-1.33-.46-2-1.25-2s-1.17.53-1.26,1.59c-.14,1.57-.34,1.56,1,1.67a3.22,3.22,0,0,1,.76,0,1.62,1.62,0,0,1,.46.22c-.11.19-.23.37-.35.55a2.32,2.32,0,0,0-.07-.46,7,7,0,0,0-1.45,0,.87.87,0,0,0-.22.61.94.94,0,0,0,1.74.25l-.45-.23Z" transform="translate(0 0)"/><path d="M48.35,83a2.94,2.94,0,0,1-.5-1,.7.7,0,0,1,.5-.85l.09,0a.67.67,0,0,1,.62.81,3.11,3.11,0,0,1-.45,1Z" transform="translate(0 0)"/><path d="M99.56,69.14l1.49-.55-.12.93-1.33-.15Z" transform="translate(0 0)"/><path d="M28.45,68.75l-1.36.17L26.94,68l1.52.53Z" transform="translate(0 0)"/><path d="M63.84,46.18,64,47.46c-.21,0-.56.1-.62,0C63.12,46.91,63.36,46.56,63.84,46.18Z" transform="translate(0 0)"/><path d="M63.07,46.77c-.22.24-.36.51-.53.55s-.26-.3-.39-.47l.55-.73Z" transform="translate(0 0)"/><path d="M65.55,47l.55-.6a2.6,2.6,0,0,1,.36.75.67.67,0,0,1-.43.45C65.91,47.63,65.77,47.31,65.55,47Z" transform="translate(0 0)"/><path d="M66.7,46.86l.44-.71.48.69c-.13.18-.26.47-.4.5S66.93,47.09,66.7,46.86Z" transform="translate(0 0)"/><path d="M64.79,46.46a.89.89,0,0,1,.39,1.15.41.41,0,0,1-.56,0C64.26,47.19,64.61,46.87,64.79,46.46Z" transform="translate(0 0)"/><path d="M66.82,39.15l1.4.16v.1h-1.4Z" transform="translate(0 0)"/></svg>