<svg id="Layer_1" data-name="Layer 1" xmlns="http://www.w3.org/2000/svg" viewBox="0 0 127 120"><path d="M75.12,0H127V120H0V75.12A75.12,75.12,0,0,1,75.12,0Z" transform="translate(0 0)" fill="#afff94"/><path d="M65.93,60.49v-.77c0-1,0-1.93,0-2.9,0-.39.16-.53.53-.52a8.85,8.85,0,0,0,1,0c.4,0,.56.14.55.55C68,57.91,68,59,68,60c0,.16,0,.31,0,.47h.13c0-.17,0-.35,0-.52,0-1,0-2.06,0-3.08,0-.45.16-.63.61-.6a8.68,8.68,0,0,0,1,0c.37,0,.5.15.5.51,0,1.07,0,2.15,0,3.22,0,.16,0,.31,0,.47h.14c0-.16,0-.32,0-.48,0-1,0-2.08,0-3.13,0-.45.17-.62.6-.59a8,8,0,0,0,1,0c.41,0,.55.16.55.56,0,1.06,0,2.12,0,3.18v.45l.14,0a3,3,0,0,0,.06-.43c0-1.07,0-2.15,0-3.22,0-.4.13-.58.54-.56a8,8,0,0,0,1,0c.43,0,.62.14.61.59,0,1,0,2.09,0,3.14,0,.15,0,.31,0,.47h.13c0-.16,0-.32,0-.48V56.94c0-.58,0-.63.64-.64.33,0,.65,0,1,0s.49.15.49.51c0,1.09,0,2.18,0,3.27,0,.14,0,.27,0,.4l.13,0c0-.15,0-.29,0-.44,0-1.06,0-2.12,0-3.18,0-.42.14-.6.57-.58a8.68,8.68,0,0,0,1,0c.41,0,.55.18.55.57,0,1.19,0,2.39,0,3.58,0,0,.05.06.08.07.75.07.75.07.74.88a5.28,5.28,0,0,0,0,.53,11,11,0,0,1,1.22-.06c.09,0,.23.24.24.37,0,.38,0,.75,0,1.12,0,.1.1.18.16.27.06-.08.19-.17.18-.25-.07-.48.21-1-.22-1.46,0-.05,0-.21,0-.3.22-.5.26-1.1.81-1.41,0,0,0-.14.06-.21l.37-.89a2.16,2.16,0,0,1-.66-2.76,7.85,7.85,0,0,1,2.43-2.6c.5-.38,1.05-.68,1.56-1,.13-.09.29-.27.28-.4,0-.45.15-.65.55-.62l.32-.64a1,1,0,0,0-.12-1.37,1.12,1.12,0,0,1,.43-1.36,4.3,4.3,0,0,1,.95-.17,1.28,1.28,0,0,1,1.44.89.64.64,0,0,1,0,.56,1.16,1.16,0,0,0-.06,1.65,2.1,2.1,0,0,1,.2.45c.43,0,.59.17.58.61,0,.15.17.35.32.43a13.08,13.08,0,0,1,3.08,2.41,7.25,7.25,0,0,1,.75,1,2.2,2.2,0,0,1-.62,3v1.68c.72.14.72.14.72.84v1.44c1,0,1.57.8,2.33,1.25.1.06.21.3.16.38a.5.5,0,0,1-.39.23c-.55,0-1.09,0-1.67,0v.67a5.05,5.05,0,0,1,.68-.07H103a.84.84,0,0,1,.36,0c.11.06.24.2.24.3s-.14.24-.24.28a1,1,0,0,1-.42,0c-2.13,0-4.27,0-6.4,0a3.42,3.42,0,0,1-.81-.19l-.32.21c.62,0,.75.37.64.79-.05.21-.26.37-.39.55l-.14-.07V70H96c0-.19-.12-.43,0-.52a.77.77,0,0,1,.53-.18H103c.56,0,.66.17.39.71h1.65c.23,0,.51,0,.51.32s-.28.32-.52.32h-9v.85h8.81c.1,0,.23,0,.32,0a2.21,2.21,0,0,1,.39.31c-.13.11-.24.28-.38.31a4.72,4.72,0,0,1-.85,0c.17.62-.2.64-.62.64H95.47v2c-.62-.2-.74-.62-.69-1.19a13.85,13.85,0,0,0,0-1.57H86.58a.84.84,0,0,1-.32,0c-.12-.06-.31-.21-.3-.28a.65.65,0,0,1,.3-.34c.09,0,.24,0,.37,0h7.24c.3,0,.6.06.92.09,0-1.17,0-2.39,0-3.6,0-.38-.25-.33-.48-.33-2.07,0-4.14,0-6.21,0-.7,0-1.39-.15-2.09-.22a4.07,4.07,0,0,0-.51,0,23.22,23.22,0,0,0,0,2.36,7.42,7.42,0,0,1,0,2,.54.54,0,0,1-.38.34,11.77,11.77,0,0,1-1.68,0,.61.61,0,0,1-.38-.4c0-.71,0-1.43,0-2.18h-.48c0,.38,0,.79-.42,1,.07.65-.48.39-.77.5v12c.48,0,.51.35.51.73,0,1,0,2,0,3h1.31V73c0-.84,0-.84.89-.84a7.09,7.09,0,0,1,1,0c.13,0,.33.21.33.32,0,1.25,0,2.49,0,3.73,0,3.32,0,6.64,0,10v.36c.91.17.91.17.91,1.1,0,.44,0,.88,0,1.31a1.19,1.19,0,0,0,0,.14c.11,0,.25,0,.38,0h3.13c.39,0,.58.14.56.55s0,.72,0,1h2.36c.53,0,1.06,0,1.59,0,.34,0,.43-.11.42-.43,0-.75,0-1.49,0-2.24,0-3.65,0-7.29,0-10.94,0-.17,0-.33,0-.51l.61.15V90.12h1.84c0-3.84,0-7.64,0-11.43a2.37,2.37,0,0,1,.35-1.35A4.23,4.23,0,0,1,99,76.08a2,2,0,0,1,2.46.64,2.19,2.19,0,0,1,.84,1.51c0,.17.15.34.15.51,0,3.66,0,7.32,0,11,0,.1,0,.21,0,.4.48,0,1,0,1.42,0,.17,0,.32.2.48.31-.16.11-.31.31-.47.31-2.79,0-5.58,0-8.41,0,0,.44-.32.52-.73.51-1.22,0-2.43,0-3.65,0a3.9,3.9,0,0,1-.65-.09s0,0,0,0c0,.24,0,.56-.33.56s-.32-.35-.32-.61c0-.45,0-.9,0-1.39H46.47c0,.46,0,.92,0,1.38,0,.26.06.62-.32.6-.15,0-.29-.32-.43-.48H41.41c-.46,0-.5,0-.64-.5H33a3,3,0,0,1-.42,0c-.26,0-.66.11-.66-.31s.42-.32.69-.33.77,0,1.18,0v-.69c0-3.53,0-7.07,0-10.61a2.8,2.8,0,0,1,.32-1.44,3.9,3.9,0,0,1,1.26-1.23,2.43,2.43,0,0,1,1.29-.25c.55,0,.9.41,1.32.75a3.06,3.06,0,0,1,.94,1.67,1.35,1.35,0,0,1,.08.4V89.67c0,.13,0,.27,0,.44h1.81V72.77H35.66c-1,0-2.08,0-3.13,0-.44,0-.76-.06-.63-.64h-.73c-.23,0-.47,0-.48-.3s.26-.34.5-.34h9v-.85H31.37a.84.84,0,0,1-.32,0,2.48,2.48,0,0,1-.36-.28c.12-.12.23-.32.35-.33.53,0,1.06,0,1.59,0h.2c0-.19-.16-.4-.09-.5a.64.64,0,0,1,.47-.2h6.63c.55,0,.65.17.39.69l.57,0V67.54c-.5,0-.67-.35-.54-.79.05-.21.27-.37.44-.59-.07,0-.16-.31-.42,0a.68.68,0,0,1-.43.11c-2.22,0-4.43,0-6.64,0-.24,0-.54,0-.5-.32,0-.12.33-.31.5-.31,2.22,0,4.43,0,6.64,0a3.65,3.65,0,0,1,.55.08V65c-.54,0-1,0-1.56,0a1.6,1.6,0,0,1-.54-.24,1.92,1.92,0,0,1,.31-.47,15,15,0,0,1,1.29-.92,5,5,0,0,1,.92-.3V61.63c0-.67,0-.67.69-.76V59.18a2.24,2.24,0,0,1-.42-3.32,10.94,10.94,0,0,1,3.59-3.07c.27-.15.45-.3.41-.64a.47.47,0,0,1,.18-.38,1.32,1.32,0,0,0,.5-2.14,1.24,1.24,0,0,1,.54-1.34,2.62,2.62,0,0,1,1.77,0,1.12,1.12,0,0,1,.43,1.44A1,1,0,0,0,48.42,51c.19.32.24.76.74.82.06,0,.15.22.13.32-.06.38.17.54.46.7a11.61,11.61,0,0,1,3.37,2.79,2.27,2.27,0,0,1,.27,3,3.49,3.49,0,0,1-.45.47l.36.91s0,.14.05.16c.53.33.61.91.82,1.42a.45.45,0,0,1,0,.34c-.42.47-.14,1-.2,1.52,0,0,.1.12.15.18s.17-.14.18-.21c0-.29,0-.59,0-.88s.09-.63.19-.65a4,4,0,0,1,1,.05s.08.07.22.19c0-.29.07-.49.07-.69,0-.86,0-.86.83-1V60c0-1,0-2.09,0-3.13,0-.38.15-.54.53-.53s.72,0,1.07,0,.53.15.53.53c0,1.06,0,2.12,0,3.18v.48l.15,0c0-.16,0-.31,0-.46,0-1.06,0-2.12,0-3.18,0-.42.14-.6.57-.57s.56,0,.84,0c.67,0,.69,0,.69.68,0,1,0,2,0,3,0,.17,0,.33,0,.49h.13a3.42,3.42,0,0,0,0-.45c0-1.06,0-2.12,0-3.18,0-.42.15-.6.57-.58a8.85,8.85,0,0,0,1,0c.38,0,.52.15.52.53,0,1.09,0,2.18,0,3.27,0,.14,0,.27,0,.41h.13a3.15,3.15,0,0,0,0-.43c0-1.06,0-2.12,0-3.18,0-.44.13-.64.59-.61a8.68,8.68,0,0,0,1,0c.4,0,.52.17.52.54,0,1.07,0,2.15,0,3.22,0,.15,0,.29,0,.44ZM41.46,71.43a4.53,4.53,0,0,1,.66-.11h7.57c.13,0,.28,0,.37,0a.52.52,0,0,1,.24.33c0,.08-.15.22-.26.26a.89.89,0,0,1-.37,0c-2.43,0-4.86,0-7.29,0-.3,0-.59,0-.88-.06V90.67h4.33v-.4c0-1.24-.19-1.18,1.18-1.17h2.93c0-.59,0-1.11,0-1.64,0-1,.07-.88.81-.91,0,0,0,0,.08-.06a1.62,1.62,0,0,0,0-.22q0-5.07,0-10.14c0-1.22-.06-2.43-.05-3.64,0-.12.23-.32.37-.34a4.58,4.58,0,0,1,1,0,1.94,1.94,0,0,1,.88.14c.11.06,0,.47,0,.73q0,6.49,0,13v.54h1.31c0-1,0-2,0-3,0-.4,0-.74.52-.82V70.84c-1,0-1.06-.81-1.26-1.52l-.42,0v2.13c0,.25-.06.47-.38.48-.57,0-1.15,0-1.73,0-.12,0-.34-.18-.34-.28a7.76,7.76,0,0,1,0-2.1c.2-.8-.16-1.52,0-2.32a4.53,4.53,0,0,0-.54,0c-.66.07-1.32.21-2,.22-2.1,0-4.2,0-6.31,0-.25,0-.45,0-.44.36C41.47,69,41.46,70.23,41.46,71.43Zm21.61-.59v2.93h-.62V72.06c0-.73,0-.73-.81-.6v11h.81v-.52c0-1.41,0-2.83,0-4.25a.73.73,0,0,1,.58-.81,6.54,6.54,0,0,1,.08.7c0,1.5,0,3,0,4.49,0,.34-.17.76.36.91.07,0,.11.24.12.37,0,.46,0,.91,0,1.36v1.85h9.08c0-1,0-2,0-3.06,0-.37,0-.67.5-.66v-12c-.33,0-.83.11-.8-.52,0,0-.08,0-.1-.08s-.25-.29-.24-.44c0-.43-.19-.46-.54-.46H64.76l-.5,0c0,.4,0,.79-.38,1C63.93,71,63.43,70.75,63.07,70.84ZM49.86,66.56H86.39c-.42-.53-.82-1-1.14-1.45a1.68,1.68,0,0,0-1.75-.84,19.09,19.09,0,0,1-2.15,0c0-.56,0-1,0-1.52a.59.59,0,0,0-.74-.52c-.32.09-.54.3-.37.78l.66-.38c-.06.19-.05.38-.13.41a1.07,1.07,0,0,0-.62,1.2H53.34c0-.49,0-.93,0-1.38a.62.62,0,0,0-1-.55l-.59.32.31,1.56c-.21.09-.41.11-.51.22C51,65.1,50.48,65.79,49.86,66.56Zm2.53,20V72.8h-.86V86.55l.7,0c0,.57-.36.68-.82.63a5.19,5.19,0,0,0-.79,0v1.85h35V87.22H82c-.59,0-.73-.17-.72-.77,0-1,0-2,0-2.93H79.43v3l.85,0c-.06.46-.25.64-.73.64q-7.58,0-15.14,0H53.84c-.17,0-.46,0-.49-.13C53.23,86.59,52.87,86.54,52.39,86.56ZM75.3,70.83v12c.46,0,.5.31.5.65,0,1,0,2,0,3.1h3v-.49c0-.9,0-1.8,0-2.71a1.39,1.39,0,0,1,.24-.49c.08-.14.23-.26.24-.41a9.53,9.53,0,0,0,0-1.07V70.84c-.3-.12-.85.16-.77-.51-.48-.16-.37-.61-.43-1H76.49c0,.39.07.81-.41,1C76.16,71,75.6,70.74,75.3,70.83ZM60.46,86.56V86c0-.86,0-1.72,0-2.57,0-.18.09-.47.2-.51.31-.09.3-.29.3-.53V70.85c-.28-.14-.78.16-.81-.5,0-.31-.34-.6-.58-1H58.16c.06.43,0,.78-.38,1,.06.66-.49.4-.79.52V82.23c0,.28-.07.58.34.69.09,0,.16.29.16.44,0,.64,0,1.28,0,1.92v1.28Zm41.39,3.54c0-.17,0-.32,0-.47-.13-3.88.28-7.78-.23-11.66,0-.26-.07-.42-.36-.49a.62.62,0,0,1-.36-.29,1.17,1.17,0,0,0-1.84-.38c-.25.31-.34.74-.83.79,0,0,0,.08,0,.12a13.6,13.6,0,0,0-.25,1.89c0,3.32,0,6.63,0,10v.54Zm-67.44,0h3.93s0-.08,0-.11c-.18-4,.29-8-.25-12,0-.3-.07-.5-.41-.55a.49.49,0,0,1-.31-.23,1.15,1.15,0,0,0-1.8-.47c-.29.3-.39.78-.89.86,0,0,0,.05,0,.08a11.65,11.65,0,0,0-.24,1.66c0,3.34,0,6.69,0,10ZM89.08,56.46H83.75c-.15,0-.36,0-.43.08a1.26,1.26,0,0,0-.15,1.28c.16.4.34.67.87.67,3.28,0,6.56,0,9.85,0a1,1,0,0,0,1.18-1.17c0-.6-.23-.85-.81-.85Zm-41.86,0H42c-.58,0-.69.1-.79.67s.33,1.35.81,1.35H52.37a.62.62,0,0,0,.39-.1A1.52,1.52,0,0,0,53.15,57a.61.61,0,0,0-.7-.55C50.71,56.48,49,56.46,47.22,56.46Zm47.55,5.11H85.38a4.49,4.49,0,0,0-.33.76,4.28,4.28,0,0,0,0,.8h9.73ZM51.29,63.15,51,61.58H41.5v1.57Zm.56-7.84.07-.12c-.54-.42-1.08-.86-1.63-1.27a3.26,3.26,0,0,0-2.5-.81,3.82,3.82,0,0,1-1.12,0,3.3,3.3,0,0,0-2.59.81L42.46,55.2l.07.11Zm32.46-.15.1.13h9.33l.06-.13-2.06-1.52a2.61,2.61,0,0,0-1.83-.53,16,16,0,0,1-2,0,1.85,1.85,0,0,0-1.27.35ZM68.14,67.66c-5.39,0-10.78,0-16.17,0-.19,0-.51-.19-.54.19A1.06,1.06,0,0,0,52,68q16.15,0,32.29,0a2.26,2.26,0,0,0,.6-.17,2,2,0,0,0-.59-.18Zm16.59,18.9V72.81H83.9V86.56ZM74.62,82.43v-11h-.78v11Zm-18.32,0v-11h-.76v11Zm24.4,0v-11H80v11ZM39.75,64.15l0,.21h.48c3.33,0,6.67,0,10,0,.45,0,.72-.09.86-.53l-.16,0c-3.4,0-6.79,0-10.19,0A3.8,3.8,0,0,0,39.75,64.15Zm45.39-.32-.07.15c.2.13.4.38.6.39,3.46,0,6.91,0,10.37,0l.48,0a1.41,1.41,0,0,0-1.21-.55c-3.26,0-6.51,0-9.76,0ZM62.93,86.55V83.49c-.54,0-1,0-1.56,0a.36.36,0,0,0-.25.24c0,.92,0,1.85,0,2.81Zm-6.08,0c0-1,0-1.91,0-2.86a.33.33,0,0,0-.25-.19c-.51,0-1,0-1.55,0v3.06Zm16.5-3v3h1.77v-3ZM78.15,57v3.38h.76V57ZM62.74,60.34V57H62v3.37ZM64.29,57v3.36h.76V57Zm-6.92,0v3.38h.74V57ZM71.2,60.32H72V57H71.2Zm2.32,0h.76V57h-.76Zm-3.86,0V57h-.75v3.38ZM75.85,57v3.38h.74V57Zm-8.51,3.38V57H66.6v3.37Zm-6.93,0V57h-.72v3.39Zm-3.62.87v0H79.48v0ZM46.68,49.32c-.11.75.51,1.43-.13,2.07h1.31c-.67-.66,0-1.37-.18-2.07Zm43,0h-1.1c-.12.73.5,1.41-.12,2h1.12a5.24,5.24,0,0,1-.12-1A6.85,6.85,0,0,1,89.66,49.34ZM51.39,69.93v1.36H52.5V69.93Zm33.51,1.3v-.52c0-.86-.06-.92-.91-.8a.4.4,0,0,0-.26.19c-.26,1,0,1.32,1,1.2C84.8,71.3,84.82,71.27,84.9,71.23ZM83,62.51v1.1h1.39V62.55a3,3,0,0,0-.39,0Zm11.77,3.77v-.14H86.92c.12.14.18.27.23.27Zm-45.46,0-.05-.11H41.52v.14a3,3,0,0,0,.41,0c1,0,2,0,3,0,1.35,0,2.7.07,4,.09C49.09,66.42,49.19,66.31,49.28,66.25Zm4.08-4.8c-.09-.56-.41-.84-.83-.8a.75.75,0,0,0-.68.8Zm31.07,0c-.08-.58-.46-.89-.91-.79a.63.63,0,0,0-.54.79ZM86.11,65l0,.1c.13.13.25.35.4.37a4.44,4.44,0,0,0,1,0,.3.3,0,0,0,.2-.22.28.28,0,0,0-.2-.22C87,65,86.57,65,86.11,65ZM50.23,65H48.86c-.33,0-.36.16-.25.47C49.12,65.32,49.78,65.82,50.23,65Zm43.61,0c-.09.31-.06.47.27.46s.7,0,1,0c.1-.32.07-.48-.26-.47S94.21,65,93.84,65Zm-52.73.43h1.31c.1-.28.07-.44-.26-.43s-.52,0-.78,0S41,65.16,41.11,65.44ZM92.64,65c-.38,0-.73,0-1.09,0-.09,0-.17.15-.25.23.08.07.15.2.24.21.27,0,.55,0,.83,0S92.74,65.32,92.64,65ZM47.49,65H46.11c0,.42,0,.48.3.42S47.3,65.77,47.49,65Zm41.37,0c-.1.32,0,.46.29.45s.46,0,.69,0,.43-.14.3-.45Zm-43.94.45V65h-1.3c-.12.32,0,.46.3.44S44.57,65.47,44.92,65.47Zm6.67-5.18.11,0,.55-1.16h-.66Zm33.09-1.14H84a2.61,2.61,0,0,1,.38.58c.14.46.12.46.34.58Zm2.91,0h-.08v1.64h.08Zm5.7,1.58h.08v-1.6h-.08Zm-2.91,0h.06V59.65h-.06Z" transform="translate(0 0)"/><path d="M56.6,56.16V59.7c0,.11,0,.24,0,.32a3.37,3.37,0,0,1-.33.44c-.1-.15-.3-.3-.3-.45,0-.95,0-1.9,0-2.85,0-.34,0-.69,0-1s.09-.64.42-.63l-.26-1.15H56a4,4,0,0,0,0,.6c0,.36-.15.51-.5.5a3,3,0,0,1-.6,0c-.14,0-.33-.19-.34-.31-.11-.75-.16-1.52-.24-2.28,0-.46.17-.6.6-.59.93,0,1.87,0,2.82,0v-3A3,3,0,0,1,56.55,49c-.17-.14-.07-.61-.11-.93-.08-.64.4-.57.84-.6a1.86,1.86,0,0,0-.13-.23,3.76,3.76,0,0,1,0-5,18.18,18.18,0,0,1,4.72-4.41c.73-.49,1.5-.94,2.27-1.38a.58.58,0,0,0,.36-.61c0-1,0-1,1.12-1.09a2.93,2.93,0,0,1,.79-1.8,1.57,1.57,0,0,0,0-1,10.45,10.45,0,0,0-.35-1.19c-.56-.2-.7-.59-.36-1.15.15-.25.3-.51.46-.75.3-.47.39-.48.84-.14l.13.1.45-.68.45.37.58-.34.35.66s0,0,0,0c.69-.46.69-.46,1.13.26l.32.52c.34.55.19,1-.41,1.16-.12.59-.27,1.18-.35,1.77,0,.18.15.39.25.58s.15.23.2.35,0,.24.06.26c.48.2.31.62.34,1h.68c.3,0,.52.12.46.43-.18.85.29,1.2,1,1.58a20.42,20.42,0,0,1,5.93,4.85A10.72,10.72,0,0,1,79.46,43a3.6,3.6,0,0,1-.21,4.12l-.26.38c.84.18.84.18.83,1.2s-.82.35-1.23.64v3h.78c.69,0,1.37,0,2.06,0,.41,0,.62.13.58.57-.07.76-.13,1.52-.23,2.28,0,.13-.23.27-.38.33a2.72,2.72,0,0,1-.5,0c-.43,0-.6-.17-.57-.59a2.94,2.94,0,0,0,0-.51h-.15l-.19,1.15c.32,0,.39.27.38.61,0,1.26,0,2.52,0,3.78,0,.26,0,.57-.34.53-.12,0-.3-.33-.3-.51,0-1.09,0-2.19,0-3.27,0-.38-.09-.49-.46-.48H56.6ZM68.13,43c-3.39,0-6.79,0-10.18,0a.76.76,0,0,0-.55.21A2.5,2.5,0,0,0,57,45.46a4.28,4.28,0,0,0,.9,1.6c.23.23.81.11,1.24.15H77.87a.84.84,0,0,0,.58-.18A3,3,0,0,0,79,43.45a.71.71,0,0,0-.72-.44Zm9.38-1.54a1.79,1.79,0,0,0-.18-.24A22.67,22.67,0,0,0,71.57,37a1,1,0,0,0-.49-.09H65.19a1.05,1.05,0,0,0-.53.11,22.36,22.36,0,0,0-5.72,4.22,1.09,1.09,0,0,0-.15.25Zm.41,7.72c-.16,0-.3,0-.33,0a.66.66,0,0,1-.69.36s-.11,0-.11.06c-.13.46-.51.34-.81.34H58.34v2.25H77.92ZM81.34,53H54.92v.71H81.34ZM69.49,34.32c.05-.33.13-.63-.23-.84a.51.51,0,0,1-.18-.4,2.77,2.77,0,0,1,.19-1.55,1.31,1.31,0,0,0,.11-.81c-.1-.47,0-.72.56-.67l-.42-.65c-.23.19-.42.35-.62.49s-.51.13-.6-.24a1.73,1.73,0,0,0-.17-.33,1.66,1.66,0,0,0-.17.32c-.1.4-.3.48-.63.23s-.39-.3-.61-.48l-.4.67c.54,0,.67.15.57.61a1.25,1.25,0,0,0,.08.81,2.94,2.94,0,0,1,.2,1.6.53.53,0,0,1-.16.4c-.38.22-.31.52-.24.84ZM79.1,48.17H57.58a.58.58,0,0,0-.23,0,1.18,1.18,0,0,0-.25.19,1,1,0,0,0,.23.18,1.31,1.31,0,0,0,.28,0H78.82C79.07,48.56,79.22,48.5,79.1,48.17Zm-.9-5.85c0-.07,0-.11,0-.12a.23.23,0,0,0-.12-.06H58.28a.56.56,0,0,0-.2.08.07.07,0,0,0,0,.05.11.11,0,0,0,0,0Zm-7.14-6.57,0-.15a1.14,1.14,0,0,0-.3-.09H65.48a1.17,1.17,0,0,0-.31.12l0,.13ZM64.73,54.23c-.37.45.1,1.06-.61,1.26h.81ZM61,55.52h.32l.46-.05c-.72-.2-.2-.83-.61-1.19Zm-3,0-.21-1.14h-.1l-.21,1.14Zm16.73,0h.5l-.21-1.15-.12,0Zm-1.72,0h.48l-.17-1.13h-.12ZM59.58,54.35l-.14,0-.17,1.12h.48Zm12.07,0-.15,0-.17,1.12h.48ZM68.39,55.5l-.21-1.15-.12,0-.17,1.13Zm8.6,0-.18-1.15h-.14l-.16,1.14Zm-6.86,0-.25-1.22c-.33.4.11,1-.58,1.22Zm8.1,0H79c-.68-.22-.24-.82-.58-1.22ZM63,54.35H62.9l-.18,1.15h.49Zm3.15,1.15h.5l-.21-1.15h-.1Z" transform="translate(0 0)"/><path d="M92.2,79.06v2c0,.25,0,.53-.33.48-.12,0-.29-.3-.3-.47,0-1.21,0-2.43,0-3.64,0-.18-.14-.35-.17-.54a3.41,3.41,0,0,1-.1-.9.56.56,0,0,0-.53-.67c-.15,0-.27-.25-.39-.4s-.22-.43-.39-.53a1.79,1.79,0,0,0-1.79,0c-.15.08-.35.25-.36.39,0,.4-.19.58-.6.61s-.38.22-.36.51c.08.88-.41,1.69-.31,2.61a18,18,0,0,1,0,2.65c0,.15-.21.28-.33.42-.1-.14-.29-.29-.29-.44,0-1.43,0-2.86,0-4.29a1.46,1.46,0,0,1,.12-.39c.06-.21.11-.42.17-.63s.12-.65.31-.77a4.67,4.67,0,0,0,.92-.91,2.3,2.3,0,0,1,3.5.4.71.71,0,0,0,.34.27,1,1,0,0,1,.63.94,4,4,0,0,0,.23.8,1.4,1.4,0,0,1,0,.41C92.21,77.69,92.2,78.37,92.2,79.06Z" transform="translate(0 0)"/><path d="M89.07,81H87.76a.37.37,0,0,1-.42-.43V78.09c0-.3.15-.42.44-.42h2.57a.38.38,0,0,1,.45.41v2.57c0,.27-.15.39-.42.38Zm1.05-.67v-2H88v2Z" transform="translate(0 0)"/><path d="M98.67,67.68c0,1-.28,1.22-1.26,1a.49.49,0,0,1-.3-.34,8.69,8.69,0,0,1,0-1.35c0-.12.16-.32.26-.33a4.7,4.7,0,0,1,1.06,0c.1,0,.22.21.24.34A5.43,5.43,0,0,1,98.67,67.68Z" transform="translate(0 0)"/><path d="M100.69,67.67c0,1-.37,1.25-1.31,1-.1,0-.25-.17-.25-.27a14.81,14.81,0,0,1,0-1.49.37.37,0,0,1,.26-.27,4.27,4.27,0,0,1,1,0,.49.49,0,0,1,.28.35A3.17,3.17,0,0,1,100.69,67.67Z" transform="translate(0 0)"/><path d="M35.57,67.59c0-1,0-1,1-1,.4,0,.58.14.56.55s0,.75,0,1.12a.57.57,0,0,1-.38.39C35.45,68.69,35.57,68.75,35.57,67.59Z" transform="translate(0 0)"/><path d="M35.17,67.62c0,1.12,0,1.12-1.16,1-.29,0-.43-.14-.43-.42V67c0-.28.12-.44.41-.44h.1C35.17,66.56,35.17,66.56,35.17,67.62Z" transform="translate(0 0)"/><path d="M102.68,67.62c0,1.15.12,1.07-1.2,1a.6.6,0,0,1-.37-.4,4.76,4.76,0,0,1,0-1.25c0-.15.23-.32.39-.38a2.38,2.38,0,0,1,.6,0c.41,0,.61.12.57.55C102.67,67.31,102.68,67.46,102.68,67.62Z" transform="translate(0 0)"/><path d="M37.58,67.61c0-1,.28-1.25,1.28-1a.55.55,0,0,1,.3.39,5.8,5.8,0,0,1,0,1.25c0,.15-.25.27-.39.41h-.05C37.59,68.75,37.59,68.74,37.58,67.61Z" transform="translate(0 0)"/><path d="M56.79,61.22H79.48v0H56.79Z" transform="translate(0 0)" fill="#fff"/><path d="M44.06,79c0-.59,0-1.18,0-1.77a6.28,6.28,0,0,1,.23-.85c0-.19,0-.41.06-.6s.16-.61.36-.75a3.21,3.21,0,0,0,.79-.77c.8-1.08,3.13-.88,3.57.31a.51.51,0,0,0,.28.26,1,1,0,0,1,.69,1,2.38,2.38,0,0,0,.2.66,1.59,1.59,0,0,1,.08.35c0,1.42,0,2.84,0,4.25,0,.16-.2.32-.31.48-.11-.17-.3-.32-.31-.49,0-1.18,0-2.36,0-3.55a4.15,4.15,0,0,0-.2-.66,4.27,4.27,0,0,1-.08-.87.54.54,0,0,0-.51-.68c-.16,0-.29-.24-.41-.39s-.18-.42-.34-.51a1.75,1.75,0,0,0-1.9,0c-.14.08-.3.25-.3.38,0,.41-.23.53-.59.58a.46.46,0,0,0-.33.27,16.46,16.46,0,0,0-.31,2.09c-.05,1.09,0,2.18,0,3.27,0,.25,0,.57-.34.52-.12,0-.28-.34-.29-.52C44,80.37,44.06,79.69,44.06,79Z" transform="translate(0 0)"/><path d="M47.19,81c-.41,0-.83,0-1.25,0s-.49-.13-.48-.47c0-.81,0-1.62,0-2.42,0-.34.14-.49.47-.48.84,0,1.68,0,2.52,0,.34,0,.48.14.47.47v2.47c0,.29-.13.43-.42.42H47.19Zm1.07-2.73c-.68,0-1.3,0-1.91,0a.31.31,0,0,0-.23.21c0,.6,0,1.21,0,1.83h2.15Z" transform="translate(0 0)"/><path d="M63,75.63a2.53,2.53,0,0,1,0,.55c0,.09-.13.16-.2.25-.06-.11-.2-.23-.18-.32a2.63,2.63,0,0,1,.24-.51Z" transform="translate(0 0)"/><path d="M62.46,75.2a1.23,1.23,0,0,1,.28-.72c.07,0,.2.1.2.13a1.89,1.89,0,0,1-.19.44C62.71,75.11,62.6,75.13,62.46,75.2Z" transform="translate(0 0)"/></svg>