<svg id="Layer_1" data-name="Layer 1" xmlns="http://www.w3.org/2000/svg" viewBox="0 0 127 120"><path d="M75.12,0H127V120H0V75.12A75.12,75.12,0,0,1,75.12,0Z" transform="translate(0 0)" fill="#ffd1b4"/><path d="M29.34,56.58h4.12c1.46,2.93,2.92,5.77,4.28,8.66a15.37,15.37,0,0,1,.46,2.43,1.45,1.45,0,0,0,.68.91,3.77,3.77,0,0,0,1.35.07H61.42c0-.75.09-1.35.09-2,0-5.71,0-11.41,0-17.11,0-1-.55-1.92-.56-2.88a41.21,41.21,0,0,1,.38-4.33l.76.93c1.37-4.5,4.58-8.23,3.67-13.14l2.65.7V23.75H69c0,1.77,0,3.53,0,5.29,0,.53.14,1.39.42,1.49a5.54,5.54,0,0,0,2.07-.19c-.65,4.68,2.29,8.49,3.78,12.94l.64-.91a3.08,3.08,0,0,1,.26.53c.63,2.21-.29,4.35-.28,6.53,0,5.71,0,11.41,0,17.11v2H99.07c-.53-4,3.14-6.5,3.93-10.1.14-.65.32-1.29.46-1.84h4.1c1.36,2.75,2.69,5.48,4,8.19a4.39,4.39,0,0,1,.71,3.23,24.16,24.16,0,0,0-.09,5.18q0,9.07,0,18.14v2.29c-14.56-.5-29-.44-43.43-.4S39.9,93,25.2,93.66V91.55c0-5.59.05-11.18,0-16.77,0-2.64-.33-5.27-.44-7.92,0-.4.33-.82.54-1.22,1.24-2.48,2.51-4.94,3.71-7.43A6.77,6.77,0,0,0,29.34,56.58Zm32.9-9.1V80.3l1.93-.09V71a1.23,1.23,0,0,0,0-.51c-.66-1.33-.45-2.36.92-2.61a13,13,0,0,1,3.71.44,25.9,25.9,0,0,1,2.5-.73c1.83-.08,2.22,1.26,2,3.41-.3,3-.08,6.11-.08,9.23h1.92V47.48H72.41l.44,3.82H64.56l.38-3.82ZM37.43,92.86V71.34H25.85V92.79H28c.44-4.49,1.18-5.93,3.32-5.94,4.09,0,3.84,3.19,4,6ZM61.36,74.23v-5H38.43l-.31,5Zm14.66,0h23.3L99,69.26H76ZM100,71.33V92.79h2.17c.43-4.56,1.21-5.89,3.44-6s3.17,1.2,3.86,6h2V71.33Zm-.84,4.33h-23v7.71h23ZM38.24,83.33H61.36v-7.7H38.24ZM62,44.91c2.39.39,4.08-.44,5-2.29.55-1.13,1.08-2.27,1.74-3.66,1.52,3,2.29,6.47,6.78,6.13-1.26-3-2.57-5.79-3.56-8.67-.68-2-1.76-2.77-3.74-2.36-.65.13-1.65.25-1.85.68C64.79,38,63.43,41.4,62,44.91ZM72.81,92.73c0-2,.09-3.81,0-5.61a4.13,4.13,0,0,0-4-3.94,3.91,3.91,0,0,0-4.1,3.36c-.16,2,0,4.06,0,6.19Zm-17.27-.34.6-.11c0-1.12-.07-2.24,0-3.34a2.07,2.07,0,0,1,2.24-2.1,2,2,0,0,1,2.17,2c.12.85,0,1.71.11,2.56a3.53,3.53,0,0,0,.32.91l.24-.09V84.63l-.41,0-.32,1.64H56.42l-.82-1.79-.4.14-.36,1.65H50.66l-.54-1.75h-.46l-.6,1.8c-.8-.1-2,.67-2.05-1.12-.15,1.72-1.22,1.11-2.11,1.08l-.33-1.68-.51-.15-.75,1.81H39.19l-.49-1.68-.52.1c0,2.53-.21,5.08.49,7.59a11.37,11.37,0,0,0,.38-3.15,2.12,2.12,0,0,1,2.27-2.25c1.41,0,2,.88,2.2,2.15.09.79,0,1.6.09,2.38,0,.38.46.71.71,1l.47-.21c0-1,0-2,0-3A2.11,2.11,0,0,1,47,86.83c1.47,0,2.15.88,2.28,2.24.07.8,0,1.61.08,2.39,0,.33.43.61.66.92l.49-.19c0-1.07,0-2.14,0-3.2a2.05,2.05,0,0,1,2-2.15,2.09,2.09,0,0,1,2.4,1.92c.15.77,0,1.59.13,2.38A5.23,5.23,0,0,0,55.54,92.39Zm56.39-25.76c-1.45-2.67-2.62-4.88-3.85-7-.53-.93-4-1.13-4.59-.21-1.34,2.23-2.54,4.54-3.95,7.1,2.4-.08,4.59.86,6.24-1.23C107.41,67.49,109.59,66.21,111.93,66.63Zm-74.12,0c-1.45-2.65-2.65-4.95-4-7.19-.49-.84-4-.83-4.47,0-1.32,2.24-2.53,4.53-3.95,7.09,2.37-.2,4.59,1,6.22-1.32C33.3,67.47,35.48,66.25,37.81,66.58ZM87.43,92.39l.64-.2c0-1,0-2,0-3a2.13,2.13,0,0,1,2.21-2.32c1.5,0,2.1.94,2.3,2.25.08.56,0,1.15.07,1.7a8.43,8.43,0,0,0,.62,1.51,7.12,7.12,0,0,0,.49-1.43c.09-.67,0-1.37.07-2a2.09,2.09,0,0,1,2.17-2,2,2,0,0,1,2.22,1.91c.13.84,0,1.7.13,2.55a4.51,4.51,0,0,0,.36,1l.29-.11V84.58l-.41,0-.45,1.72H94.09l-.79-1.69-1.09,1.72H88.29l-.63-1.81-.45,0-.58,2.07-1.95-.75-1.78.6-1.15-1.86-.81,1.72h-4l-.52-1.68-.43.07c.08,2.51-.3,5,.48,7.53a14.1,14.1,0,0,0,.28-3,2.16,2.16,0,0,1,2.2-2.35c1.48,0,2.16.89,2.3,2.23.09.85,0,1.71.08,2.56,0,.24.38.45.58.67.18-.23.49-.46.51-.71.06-.85,0-1.7.05-2.56a2.07,2.07,0,0,1,2.14-2.19,2.1,2.1,0,0,1,2.3,2c.11.78,0,1.6.1,2.38A4.26,4.26,0,0,0,87.43,92.39ZM67.59,80.13c0-3.14,0-6.2,0-9.25,0-.95-.24-1.95-1.45-1.91s-1.35,1-1.34,2c0,2.38,0,4.77,0,7.15S64.79,80.47,67.59,80.13Zm5,.05c0-3.31.06-6.49-.07-9.65,0-.55-.88-1.06-1.35-1.59-.43.44-1.23.87-1.25,1.33-.11,3.27-.06,6.54-.06,9.91Zm36,12.66c.15-2,.42-3.81-1.41-5a2.56,2.56,0,0,0-3.17.13c-1.69,1.29-1.18,3.09-1.12,4.9ZM65.52,50.76h6.3V44.67c-2.31-.36-1.83-2.89-3.14-3.94l-3.16,5Zm-31,42.08c.09-2,.5-4-1.51-5A3.63,3.63,0,0,0,30,88c-1.87,1.11-1.21,3.06-1.21,4.88ZM74.68,93l.44-.27V81.83H69.94c3.25,1.81,4.1,3.24,4.11,6.43,0,1.2,0,2.39,0,3.58C74.11,92.23,74.47,92.6,74.68,93Zm-11.54.35c.66-4.38-1.34-9.2,4.26-11.4H62.11c0,3.45,0,6.79,0,10.13C62.15,92.37,62.62,92.68,63.14,93.33Zm28.78-1.09a14.68,14.68,0,0,0-.08-3.47,2.15,2.15,0,0,0-1.65-1.25c-.53,0-1.31.86-1.45,1.47a14.51,14.51,0,0,0-.07,3.25Zm-43.17,0a16.34,16.34,0,0,0-.24-3.56,2.19,2.19,0,0,0-1.69-1.17c-.45,0-1.22.81-1.33,1.36a17.11,17.11,0,0,0-.06,3.37Zm28.58,0h3.39a16.43,16.43,0,0,0-.27-3.58,2.2,2.2,0,0,0-1.75-1.11c-.46,0-1.19.84-1.31,1.41A16.9,16.9,0,0,0,77.33,92.23Zm-34.26,0a16.32,16.32,0,0,0-.29-3.58,2.22,2.22,0,0,0-1.73-1.13c-.46,0-1.21.82-1.33,1.38a17.56,17.56,0,0,0-.06,3.33Zm11.25-.14a15.76,15.76,0,0,0-.07-3.29,2.15,2.15,0,0,0-1.46-1.32,1.91,1.91,0,0,0-1.57.94c-1.18,2.48,0,4.08,2.68,3.86A1.84,1.84,0,0,0,54.32,92.11Zm2.45.08h3.39a14.76,14.76,0,0,0-.29-3.5,2.2,2.2,0,0,0-1.72-1.16c-.45,0-1.2.82-1.32,1.39A16.06,16.06,0,0,0,56.77,92.19Zm41.06.07a15.71,15.71,0,0,0-.27-3.56,2.25,2.25,0,0,0-1.71-1.17c-.46,0-1.23.81-1.35,1.37a17,17,0,0,0-.06,3.36Zm-11.61-.1a16.57,16.57,0,0,0-.07-3.39,2.25,2.25,0,0,0-1.48-1.28,1.66,1.66,0,0,0-1.43.82,9.34,9.34,0,0,0,0,3.65c.07.3,1.61.25,2.47.35C85.82,92.33,85.93,92.26,86.22,92.16ZM69.12,80.34c0-3.18,0-6.22,0-9.26,0-.35-.39-.7-.6-1C67.86,77.25,68,79.61,69.12,80.34Zm-6.61.56v.18H75.05V80.9Zm48.63-10.4v-.14H100.36v.14Zm-84.81-.19v.19H36.85v-.19Zm4.27-1.07c-.09-.21-.26-1-.48-1-1.41-.12-2.83-.06-4.24-.06l0,.42ZM100,68.31l0,.3,4.58.64-.07-.94Zm11.4.34c-3.32-.91-4.56-.61-4.55.48Zm-74.12,0,0-.35c-1.46,0-2.93,0-4.39,0-.08,0-.13.7-.14.77Z" transform="translate(0 0)"/><path d="M74.13,63.91H63.34c-.61-2.55-.45-3,1.52-3.62-.3-1.71-.7-3.47-.86-5.25a2.32,2.32,0,0,1,.83-1.86,4.86,4.86,0,0,1,2.5-.45c.42,0,.83.55,1.25.85,2.15-1.36,3.46-1.42,4.36,0,.29.46.09,1.24.1,1.87,0,1.67-.51,3.59.14,4.95C74,62,74.4,61.81,74.13,63.91ZM69.77,60.2h2.37c0-1.77.08-3.46,0-5.14,0-.42-.77-.78-1.18-1.17-.38.42-1,.81-1.09,1.25C69.69,56.77,69.77,58.41,69.77,60.2Zm-2.15,0c0-1.82.08-3.46-.06-5.08,0-.44-.75-.82-1.15-1.23-.4.4-1.11.78-1.14,1.21-.14,1.66-.06,3.35-.06,5.1ZM69,55.44h-.64a19,19,0,0,0,.12,5H69Z" transform="translate(0 0)"/><path d="M35.54,85.65H27.7V82.17c0-2.06-.06-4.11,0-6.16a3.9,3.9,0,0,1,7.78-.2C35.63,79.05,35.54,82.29,35.54,85.65Zm-2.8-.44V79.27l-2.25.12V85.1Zm1.55-9.27c-.44-1.67-1.32-2.47-2.82-2.38a2.39,2.39,0,0,0-2.41,2.38Zm-4.63,9.13V79.45l-.79-.21c-1.13,1.11-.37,2.82-.52,4.22C28.26,84.24,28,85.43,29.66,85.07ZM35,79.54l-.62-.4c-.28.38-.77.74-.8,1.14a28.64,28.64,0,0,0,0,3.93c0,.33.43.63.66,1,.25-.34.71-.68.72-1C35,82.6,35,81.07,35,79.54Zm-4.64-1.71.23,1,2.23-.55c-.15-.25-.32-.72-.45-.72A19.51,19.51,0,0,0,30.34,77.83Z" transform="translate(0 0)"/><path d="M101.85,85.65c0-3.36-.08-6.6,0-9.84a3.86,3.86,0,0,1,7.69-.14c.19,3.29.05,6.58.05,10Zm2.69-.54h2.35v-5.7h-2.35Zm3.87-9.17c-.47-1.65-1.33-2.49-2.85-2.38a2.32,2.32,0,0,0-2.38,2.38ZM103.74,85V79.38c-1.48.13-1.47.13-1.37,4.42C102.39,84.7,102.43,85.45,103.74,85Zm5.31-5.62c-1.55,0-1.79.86-1.39,4.69,0,.43.62.81,1,1.21l.44-.34ZM105.63,79l1.33-.82a3.67,3.67,0,0,0-1.26-.64c-.39,0-.81.32-1.22.5Z" transform="translate(0 0)"/><path d="M80.53,82.93V78.18h-.81a22.55,22.55,0,0,1,0,2.85c-.09.77.67,2.2-1.51,2V78.2l-.73,0L77.23,83l-.37,0c-.15-1.62-.39-3.23-.39-4.85,0-.32,1.19-1,1.36-.91,1.13.84,3.19-1.13,3.63,1,.31,1.51-.14,3.17-.25,4.76Z" transform="translate(0 0)"/><path d="M91.19,78.24v4.59c-1.45.22-1.48.22-1.51-.81,0-1.26,0-2.52,0-3.78l-.84,0-.28,4.74-.35,0c-.13-1.62-.34-3.23-.31-4.85,0-.33,1.17-1,1.33-.91,1.14.84,3.2-1.08,3.62,1A9.74,9.74,0,0,1,92.16,83L92,78.18Z" transform="translate(0 0)"/><path d="M86.56,82.9l-.36-4.67c-1.57,1.4.19,3.74-2,5.28-.13-2.07-.23-3.66-.34-5.26l-.69,0-.26,4.71h-.33a46.68,46.68,0,0,1-.37-4.71c0-.35,1.25-1.1,1.41-1,1.11.82,3.29-1.26,3.59,1.18a21.57,21.57,0,0,1-.36,4.5Z" transform="translate(0 0)"/><path d="M96.88,78.27v4.62l-.57.33c-.3-.35-.81-.66-.88-1-.13-.83,0-1.7-.07-2.55A7.83,7.83,0,0,0,95,78.19l-.55,0L94.27,83H93.9c-.15-1.61-.37-3.22-.36-4.83,0-.32,1.2-1,1.34-.9,1.11.89,3.2-1.17,3.6,1A11.24,11.24,0,0,1,97.9,83l-.28-4.75Z" transform="translate(0 0)"/><path d="M54.49,83l-.21-4.71-.72,0L53.28,83C52.05,83,52,83,52,82c0-1.25,0-2.5,0-3.75l-.87,0v4.76h-.59a44.1,44.1,0,0,1-.36-4.72c0-.36,1.22-1.12,1.43-1,1.15.74,3.3-1.16,3.63,1.19a20.29,20.29,0,0,1-.36,4.5Z" transform="translate(0 0)"/><path d="M42.86,82.93V78.18h-.81A27.07,27.07,0,0,1,42,81c-.08.79.6,2.15-1.5,2V78.22l-.72,0L39.54,83l-.34,0c-.16-1.61-.39-3.22-.39-4.84,0-.32,1.21-1,1.36-.9,1.13.87,3.2-1.16,3.62,1,.3,1.51-.14,3.16-.25,4.75Z" transform="translate(0 0)"/><path d="M47.6,83.07c-2,.13-1.07-1.33-1.22-2.08a23,23,0,0,1-.21-2.77l-.72,0-.24,4.74-.31,0a39.49,39.49,0,0,1-.4-4.59c0-.39,1.22-1.19,1.33-1.1,1.12.88,3.29-1.21,3.67,1.09A11.26,11.26,0,0,1,48.85,83l-.23-4.76-.75,0Z" transform="translate(0 0)"/><path d="M56.25,82.93a37.12,37.12,0,0,1-.42-4.58c0-.4,1.23-1.21,1.33-1.13,1.12.92,3.3-1.21,3.68,1.1A11.84,11.84,0,0,1,60.26,83l-.37-4.77-.81,0c0,1.24,0,2.49,0,3.73,0,1-.24,1.4-1.28,1l-.26-4.75h-.74L56.58,83Z" transform="translate(0 0)"/><path d="M71.17,47.93a2.41,2.41,0,0,1-2.6,2.36,2.31,2.31,0,0,1-2.35-2.39,2.42,2.42,0,0,1,2.47-2.49A2.49,2.49,0,0,1,71.17,47.93Zm-1.73,1.52L68,46.15a1.73,1.73,0,0,0-.93,2.49A1.6,1.6,0,0,0,69.44,49.45Z" transform="translate(0 0)"/></svg>