<svg id="Layer_1" data-name="Layer 1" xmlns="http://www.w3.org/2000/svg" viewBox="0 0 127 120"><path d="M75.12,0H127V120H0V75.12A75.12,75.12,0,0,1,75.12,0Z" transform="translate(0 0)" fill="#f6aaff"/><path d="M62.12,24.28c-5,4.07-9.93,7.91-14.63,12a39.36,39.36,0,0,0-9.82,12.46C34,56.38,35,63.18,40.62,69.47c4.86,5.41,11.1,9,17.21,12.68a1.82,1.82,0,0,0,1.08.25c2.86-.5,5.7-1.07,8.56-1.54a16.6,16.6,0,0,1,3-.14c1.82,0,3.63.17,5.45.24.24,0,.6,0,.7-.18,1.7-2.54,4.48-1.22,6.7-1.84.43-.12,1.09.57,1.64.89s1.2,1.06,1.83,1.09a34.94,34.94,0,0,0,6.63-.11c.84-.11,1.54-1.26,2.38-2L87.35,68.45a5.33,5.33,0,0,1-.71-.89,5,5,0,0,1-.21-1.11c.36.1.81.09,1,.32a13.73,13.73,0,0,1,1.34,1.59l7.6,9.28c2.53-3.35,5-6.58,7.41-9.77a5.42,5.42,0,0,1,1.34-.9l.41.56L95.5,80.92h3.94c-.51,1.91-1.35,3-3.32,2.64a3.91,3.91,0,0,0-4.19,1.83c-1,1.34-2,2.59-3,3.94-1.3,1.85-.73,3.19,1.56,3.34,1.29.08,2.62-.35,3.95-.35-2.74,2-5.89.12-8.72.79-.58-1.44-1.21-2.87-1.75-4.32S83,86,84,84.52c.07.36.12.73.2,1.1A16.79,16.79,0,0,0,85,89.13a1.4,1.4,0,0,0,2.49.39C89,87.8,90.39,86,91.84,84.15l-.32-.56h-2c-10.62,0-21.25-.11-31.86.12a30.52,30.52,0,0,1-16.43-4.5c-5.54-3.24-10-7.62-12.46-13.64-2.63-6.37-1.38-12.41,2.09-18.13A42.67,42.67,0,0,1,44.65,34c5.14-3.32,10.63-6.12,16-9.13A13,13,0,0,1,62.12,24.28Z" transform="translate(0 0)"/><path d="M38.86,51.87C37,61.23,41.6,66.46,48.71,70.76a26.32,26.32,0,0,0,7.9,3,11.81,11.81,0,0,0,5.12.19c1.61-.34,3.63-.92,5.18.64a.53.53,0,0,0,.52,0c1.23-1.47,2.68-.42,4.06-.49a17.15,17.15,0,0,0,5-1.51,34.91,34.91,0,0,1,4-1.67,17.61,17.61,0,0,1-1.09,1.48c-4.81,5.16-10.56,7.61-17.71,6.31C52.08,77,44.32,72.38,39.17,63.92c-1.93-3.16-2.72-6.67-1.29-10.35.14-.35.26-.71.43-1A4.31,4.31,0,0,1,38.86,51.87Z" transform="translate(0 0)"/><path d="M64.1,51.74c3.16-1.35,3.63-4,4.33-6.47,4.32,6.89,4.74,21.22,2.45,26C70.43,68,70.14,64.42,69.41,61A15.65,15.65,0,0,0,64.1,51.74Z" transform="translate(0 0)"/><path d="M62.79,66.19H46.29l0-.25a43,43,0,0,1,5.14-.75c2.07-.06,3.67-1,5.43-1.92,2.35-1.17,4.89-2,7.32-3A15.79,15.79,0,0,0,66.24,59c1,.58.11,1.49-.33,2.25C65,62.84,64,64.34,62.79,66.19Z" transform="translate(0 0)"/><path d="M66.08,47.49a4,4,0,0,1-.51,1.7c-.49.63-1.34,1.39-2,1.37a3.44,3.44,0,0,1-2.22-1.36,4.22,4.22,0,0,1-.53-2.34c0-2.24,1.3-3.91,2.86-3.8S66.18,44.86,66.08,47.49Z" transform="translate(0 0)"/><path d="M62.06,84.92v6.32l.5.06L65,84.73l.7-.06,2.2,5.63-.62.27-1.9-4.66L63.67,91l4.83.29,0,.67c-2.34,0-4.68,0-7,0-.32,0-.72-.63-.91-1C60,89.68,59.48,88.4,59,87.15l-.51,0V92h-.58V84.74c2.23.82,1.67,3.47,3.32,4.7l.27-4.52Z" transform="translate(0 0)"/><path d="M56.87,60.2c-.58.87-.82,1.74-1.31,1.91-3.37,1.18-6.79,2.2-10.36,3.32a9.44,9.44,0,0,1,.89-2.06c.17-.23.81-.08,1.22-.16.81-.15,1.61-.33,2.42-.5L49.13,61c.35-.38.75-1.19,1.57.26.28.48,1.44,1.48,1.9-.32a1.07,1.07,0,0,1,1.89-.58C54.81,60.65,55.64,60.32,56.87,60.2Z" transform="translate(0 0)"/><path d="M69,92.56l.32-3.2.45,0,.63,1.75c1.44-.34,3.46,1,4.1-1.13.37-1.24,1-3.11-.72-4.11-1.31-.77-3.41-.09-4.42,1.61l-.24-2.67c2.17.3,4.7-1,6,1,.81,1.3.93,4.26,0,5.12C73.86,92.07,71.4,92,69,92.56Z" transform="translate(0 0)"/><path d="M41.64,92.25,38,88.68l-.23,3.44c-1.14-.92-1.29-5.84-.1-7.75L38,87.66l3.32-3,.59.3c-2.77,2.47-2.25,4.77.35,7Z" transform="translate(0 0)"/><path d="M54.07,85c-3.11,2.45-2,4.7.28,6.9l-.61.39-3.57-3.64L49.91,92c-1-.64-1.24-4.67-.17-7.17l.46,2.84,3.24-3Z" transform="translate(0 0)"/><path d="M45.4,85.92,43.77,91l4.74.25v.51h-6L45,84.68h.77l2.15,5.63-.62.25Z" transform="translate(0 0)"/><path d="M78.86,85.83,77.2,91l4.84.32,0,.54H75.9l2.56-7.13.7-.07,2.26,5.6-.68.32Z" transform="translate(0 0)"/><path d="M75.66,31.79c.14-.43.16-1,.45-1.27,2.58-2.52,7.82-2.51,10.38,0a2.92,2.92,0,0,1,.42,1.07c-.36,0-.81.1-1.08-.07C81.89,29,80.21,29.1,75.66,31.79Z" transform="translate(0 0)"/><path d="M85.35,33.19c-1.95-.48-3.3-1.09-4.65-1.06-1.14,0-2.26.79-3.46,1a5,5,0,0,1,7.23-1.3C84.86,32.13,85,32.71,85.35,33.19Z" transform="translate(0 0)"/><path d="M79,64.08V62.26h4.47v1.82Z" transform="translate(0 0)"/><path d="M78.63,75.42c0-2.23.25-2.31,5.21-1.86v1.86Z" transform="translate(0 0)"/><path d="M78.79,70l.1-1.93h4.88V70Z" transform="translate(0 0)"/><path d="M79.08,58.21l.16-1.81h4.17l.09,1.81Z" transform="translate(0 0)"/><path d="M55.45,84.31c.44.8.91,1.28.93,1.77.09,1.91,0,3.82,0,6-.75.31-1-.27-1-1.3C55.47,88.83,55.45,86.93,55.45,84.31Z" transform="translate(0 0)"/><path d="M79.38,52.48v-1.8h3.74l.22,1.8Z" transform="translate(0 0)"/><path d="M83.91,34.21c-.34.3-.57.68-.77.67-1.42-.11-2.84-.29-4.39-.47C80.5,32.69,81.6,32.64,83.91,34.21Z" transform="translate(0 0)"/><path d="M79.46,38l1.75-2,1.72,1.56-.27.39Z" transform="translate(0 0)"/><path d="M59.67,58.79c.56-.43,1.07-1.12,1.69-1.23s1.19.47,1.79.74l-.19.42-2.83.68Z" transform="translate(0 0)"/><polygon points="52.6 95.68 52.51 95.72 52.52 95.63 52.6 95.68"/><polygon points="72.25 41.47 72.25 46.81 79.46 44.14 72.25 41.47"/><polygon points="89.52 46.81 89.52 41.47 82.31 44.14 89.52 46.81"/><polygon points="78.99 48.55 79.36 39.73 82.56 39.73 83.68 48.55 78.99 48.55"/></svg>