<svg id="Layer_1" data-name="Layer 1" xmlns="http://www.w3.org/2000/svg" viewBox="0 0 127 120"><path d="M75.12,0H127V120H0V75.12A75.12,75.12,0,0,1,75.12,0Z" transform="translate(0 0)" fill="#ff949d"/><path d="M93.89,72.35c.85.48,1.74.9,2.54,1.45,1,.69,1.89,1.52,2.86,2.24a4.46,4.46,0,0,0,3.86,1,6.14,6.14,0,0,0,2.64-1.64,20.48,20.48,0,0,0,3.33-4.26c.28-.47.54-1,.84-1.41.06-.1.25-.12.38-.17,0,.13.08.29,0,.38a19.13,19.13,0,0,1-5.45,6.81,4.34,4.34,0,0,1-5.13.19c-1.1-.69-2.09-1.56-3.14-2.33-.62-.46-1.26-.9-1.91-1.32a5.6,5.6,0,0,0-.83-.37v7.32h2.94c.56,0,1.13,0,1.69,0,.41,0,.66.07.57.55a1.08,1.08,0,0,0,0,.33h5v1.2s0,.08,0,.09c-.82.67-.11,1.55-.41,2.31l.48.09c.17,1.07.11,1.29-.44,1.44V93h-5v1H88.56c-.06,0-.14,0-.19,0a4.81,4.81,0,0,1-.46-.22c.16-.08.31-.22.46-.22,2.33,0,4.65,0,7,0,1,0,1.91,0,2.91,0V86.37H85.59v6l.81.08,0,1.08a7.24,7.24,0,0,1,.81,0c.1,0,.18.14.27.22a1,1,0,0,1-.26.21,1,1,0,0,1-.34,0H77.35l-10.94,0L53.12,94a1,1,0,0,1-.34,0,2,2,0,0,1-.35-.24,1.1,1.1,0,0,1,.37-.22,4.34,4.34,0,0,1,.73,0l0-1.08.82-.08v-6H41.76v7.12h9.32a3.3,3.3,0,0,1,.63,0,1.1,1.1,0,0,1,.37.22,2.71,2.71,0,0,1-.35.24.7.7,0,0,1-.29,0l-9,0H41.27L41.22,93H38c-.47,0-.94,0-1.4,0s-.44-.11-.41-.42,0-.45,0-.68V86.26c-.58-.22-.63-.4-.47-1.47l.44-.09V82.76c0-.05,0-.13,0-.14-.71-.34-.17-1-.44-1.5h5c.07-.07.1-.1.1-.12.11-.78.1-.79.93-.79h4.33c0-.28,0-.51,0-.75V73.12c0-.53,0-1.06,0-1.59S45.8,70.47,46,70a9.59,9.59,0,0,0,.11-2.72,15.61,15.61,0,0,0-.14-2h1.83V60.48c0-.43,0-.87,0-1.3l-.09-5.49a1,1,0,0,1,.87-1.08,1,1,0,0,1,.87,1c0,3.25-.07,6.5-.08,9.75,0,.62.06,1.24.1,1.93h1.66l0,.86h3.42c0-1.12,0-2.21,0-3.3,0-.19-.22-.38-.2-.56.06-.64.22-1.26.27-1.9.07-.84.05-1.68.1-2.52a9.74,9.74,0,0,1,1.22-4,15.3,15.3,0,0,1,8.49-7.24c.15-.06.36,0,.55,0-.14.13-.25.33-.41.39A15.21,15.21,0,0,0,57,53a10.16,10.16,0,0,0-1.82,5.62c0,.87-.07,1.74-.11,2.61v.56h11.1c0-.14,0-.3,0-.46q0-3.18,0-6.38a4.45,4.45,0,0,0,0-1,1,1,0,0,1,.4-1.18c.45-.29.79,0,1.15.27.49-.27,1-.71,1.47,0,.67-.44.8-.44,1.57,0,.68-.51.86-.51,1.52,0a1,1,0,0,1,1.18-.21c.47.26.45.68.41,1.14s-.06,1.08-.07,1.62v9.25c0,.28-.06.63.49.49V62.81c-.51-.07-.18-.55-.3-.85a1.58,1.58,0,0,1,.43-.15c.71,0,1.42,0,2.13,0,2.61,0,5.23,0,7.84,0,.42,0,.57-.1.53-.54A40.27,40.27,0,0,0,84.55,57a12.74,12.74,0,0,0-5.94-8.37c-1-.64-2.1-1.06-3.14-1.61-.15-.07-.25-.26-.37-.39.17,0,.37-.09.51,0,4.8,1.89,8.17,5.12,9.4,10.26a18.86,18.86,0,0,1,.26,3c0,.53,0,1.06.12,1.59a.45.45,0,0,0,.29.32.6.6,0,0,1,.38.91,1.64,1.64,0,0,0-.14.22s0,.06,0,.09v3.18h2.9l.06-.87c.43,0,.85,0,1.26,0s.43-.08.43-.41c0-3.28,0-6.57.07-9.85,0-.46-.06-.92-.08-1.38a1,1,0,0,1,.86-1.08,1,1,0,0,1,.88,1c0,3.29-.07,6.57-.09,9.85,0,.58.07,1.17.11,1.82h1.57a30.88,30.88,0,0,0,0,3.61,13.27,13.27,0,0,1,0,3.45l-.71-.92H89.77c-.12.79-.12.79-.44.93,0-.24-.07-.47-.09-.71s.07-.88-.12-1-.71,0-1.07,0l-.13,0v2.7a5.38,5.38,0,0,1,.94-.55,4.63,4.63,0,0,1,1-.1,4.38,4.38,0,0,0-.11.67c0,1.57,0,3.13,0,4.69,0,.55,0,1.1,0,1.65,0,.11-.14.21-.22.32a1.6,1.6,0,0,1-.22-.31c0-.07,0-.16,0-.24,0-1.71,0-3.42,0-5.13,0-.36,0-.72-.07-1.14L87.71,74a2.07,2.07,0,0,1,.19.51c0,1.61,0,3.23,0,4.84,0,.24.17.6-.25.65a1.39,1.39,0,0,1-.2-.64c0-.93,0-1.86,0-2.82-.91,0-1.77-.06-2.61,0a6.81,6.81,0,0,0-1.61.5c-.07,0-.12.13-.16.22-.14.3-.28.3-.46,0a.44.44,0,0,0-.27-.2c-.32,0-.64-.07-1-.09a.56.56,0,0,0-.07.13c0,.06,0,.15,0,.18a.47.47,0,0,1-.26.17s-.14-.11-.17-.19a1,1,0,0,0-1.1-.74c-1.16,0-2.32,0-3.49,0-.15,0-.29-.15-.44-.24.14-.07.29-.2.43-.2.76,0,1.52,0,2.28,0A3.77,3.77,0,0,0,79,76c-1-.58-1.65-1.52-2.84-1.25a.17.17,0,0,1-.1,0l-.24-.19c.08-.09.14-.22.24-.25a2.57,2.57,0,0,1,.52-.06c0-.11-.08-.15-.09-.19-.08-.19-.26-.48-.21-.54.27-.26.44,0,.57.21a1.51,1.51,0,0,0,1.45.57,4.39,4.39,0,0,1,.63,0h1.72c0,.46-.21.47-.47.47-.62,0-1.23,0-1.85,0l0,.15a6.74,6.74,0,0,0,2.58,1.29V74c0-1-.1-1.93,0-2.89s-.12-1,1-1h.24c1,0,1,0,1,1v5.1A5,5,0,0,1,84,76.1c1,0,1.46-.72,2.11-1.23a1.18,1.18,0,0,0-.47-.09l-2,0a1.35,1.35,0,0,1-.41-.18l.05-.2h3.77c0,.87-1,1-1.41,1.69h1.86c-.09-.49-.19-1-.25-1.46a2.75,2.75,0,0,1,0-.7,3.89,3.89,0,0,0,.12-.55c0-.89,0-1.77,0-2.66,0-.17,0-.34,0-.55H89V67.32h-.78c0,.62,0,1.2,0,1.78,0,.12.18.24.27.35l.23.25a1.15,1.15,0,0,1-.29.2.87.87,0,0,1-.28,0c-1.92,0-3.83,0-5.75,0-.67,0-1.35-.07-2-.07-1.15,0-2.29,0-3.43.06a1.4,1.4,0,0,1-.48-.2c.16-.09.32-.24.48-.24,1.24,0,2.48,0,3.72,0,.43,0,.53-.17.5-.55,0-.56-.07-1.12-.06-1.69,0-.14.16-.29.24-.43.07.14.2.28.2.43,0,.61,0,1.22,0,1.83,0,.44.31.38.57.4s.32-.18.31-.43a14.93,14.93,0,0,1,0-1.64,1.84,1.84,0,0,1,.24-.59,2.32,2.32,0,0,1,.21.61c0,.65,0,1.31,0,2,1.6,0,3.11,0,4.63,0,.09,0,.26-.22.27-.34,0-.78,0-1.57,0-2.44H52.27c0,.85,0,1.6,0,2.36,0,.33.1.45.44.44,1.34,0,2.68,0,4,0,.38,0,.47-.14.46-.48,0-.58,0-1.16,0-1.74,0-.14.15-.27.23-.4a2.78,2.78,0,0,1,.22.42,1.19,1.19,0,0,1,0,.38v1.76c.85.12.85.1.81-.64a13.19,13.19,0,0,1,0-1.54c0-.13.13-.26.2-.38.08.13.23.26.23.39,0,.59,0,1.19,0,1.78,0,.32,0,.46.42.45,1.36,0,2.71,0,4.07,0a3.31,3.31,0,0,1,.72.23c0-.05,0-.21,0-.36,0-.68,0-1.36,0-2,0-.14.14-.27.22-.41.08.14.21.28.22.42,0,.47,0,.94,0,1.41v1.12h1.32v-.67c0-.64,0-1.29,0-1.93,0-.12.16-.23.25-.35a1.17,1.17,0,0,1,.2.33,7.48,7.48,0,0,1,0,.82v1.79h7.33v-.57c0-.68,0-1.36,0-2,0-.12.12-.23.19-.34a1.4,1.4,0,0,1,.26.34,1.54,1.54,0,0,1,0,.43v2.17h1.31c0-.8,0-1.56,0-2.32,0-.21.16-.6.21-.59.4,0,.23.39.24.61,0,.64,0,1.29,0,1.94a1.09,1.09,0,0,0,.11.39,2.35,2.35,0,0,0,.23.32,2.18,2.18,0,0,1-.47.16c-1.33,0-2.67,0-4,0-2.51,0-5,0-7.51,0-.17,0-.46-.07-.49-.16-.09-.3-.29-.26-.49-.26H51l0,.18,1.6.15v4.08h1.71c.73,0,1.45,0,2.17,0,.1,0,.2.14.31.21a2.55,2.55,0,0,1-.28.21.93.93,0,0,1-.29,0H52.84a.4.4,0,0,0-.29.26,9.24,9.24,0,0,0,0,1.06c1.2,0,2.32,0,3.43,0,.26,0,.63-.2.77.24a3,3,0,0,1-.77.21c-1.12,0-2.25,0-3.42,0,0,1,0,2,0,3,0,.16-.15.32-.23.49-.07-.16-.21-.31-.21-.47,0-2.68,0-5.36,0-8,0-1.15,0-.91-.92-1-.36,0-.49.1-.48.46,0,1.29,0,2.58,0,3.86,0,1.58,0,3.16,0,4.75,0,.13-.15.27-.23.4-.07-.14-.16-.27-.23-.42a1,1,0,0,1,0-.24V72c0-.17,0-.34,0-.54H46.51v8.74h7.83V78.36h3.41l.09-.67h3.65c-.05.26-.09.47-.12.69a9,9,0,0,0-.27,1.52c0,2.08,0,4.17,0,6.25a17.11,17.11,0,0,0,.2,1.72H78.63a5.18,5.18,0,0,0,.25-1.14c0-2.4,0-4.8,0-7.21a2.65,2.65,0,0,0-.13-.54c-.09-.42-.18-.84-.28-1.28h3.68l.07.67h3.41v1.81h7.84v-7.4l.65-.08ZM85.73,84.67H98.25c0-.18,0-.34,0-.5v-2H85.55c.06.41.15.81.18,1.2S85.73,84.22,85.73,84.67Zm-31.31,0a4.67,4.67,0,0,1,0-2.46H41.75v2.46Zm44.34,1.64v6.19c1.38,0,2.71,0,4,0,.47,0,.57-.17.57-.59,0-1.74,0-3.47,0-5.21v-.6C101.76,86.26,100.25,86,98.76,86.32Zm-62.13-.08v3.93c0,.61,0,1.22,0,1.83,0,.34.1.54.51.51.56,0,1.13,0,1.69,0h2.4V86.4A15.74,15.74,0,0,0,36.63,86.24ZM61.2,62.78c0,1,0,2,0,2.92,0,.44.14.55.55.53.9,0,1.8-.08,2.69-.08,3.73,0,7.45,0,11.18,0,1.07,0,2.14,0,3.21.07.34,0,.45-.1.45-.44,0-1,0-2,0-3h-3.2c0,.86-.06,1.7,0,2.53,0,.45-.06.53-.45.53H64.36c-.17,0-.34-.15-.51-.23l.46-.25s0,0,.1-.09V62.78ZM55,91.23h30.1c.08-.39.12-.65-.4-.65-3,0-6,0-9,0-1.82,0-3.63,0-5.45,0-1.52,0-3,0-4.57,0-1.33,0-2.66,0-4,.06q-3.12,0-6.24,0C55,90.59,54.79,90.7,55,91.23Zm30.12.5H54.92v.61H85.07Zm.82,1.77c.1-.65.1-.66-.51-.66l-18.58,0H54.51c-.22,0-.46-.06-.47.31s.23.32.46.32c3.12,0,6.24,0,9.37,0,2.14,0,4.28,0,6.43,0,1.76,0,3.52,0,5.28,0l9.71,0C85.48,93.49,85.67,93.5,85.89,93.5Zm-28-3.41a17,17,0,0,1,.21-3.36,8.53,8.53,0,0,0,0-1.68c0-.43-.08-.61-.55-.59-.73,0-1.46,0-2.18,0-.41,0-.56.09-.55.53,0,1.53,0,3.06,0,4.6v.49Zm27.11,0a.41.41,0,0,0,0-.11c0-1.73,0-3.46,0-5.18,0-.33-.2-.32-.42-.32-.79,0-1.58,0-2.37,0-.39,0-.5.13-.49.5A17,17,0,0,0,82,87.9a12.18,12.18,0,0,1,0,2.18Zm-3.68-2.82c0-2.64,0-5.18,0-7.72,0-.1-.21-.26-.33-.27-.43,0-.87,0-1.3,0-.24,0-.35.08-.35.34,0,2.44,0,4.89,0,7.34,0,.11.15.31.23.31C80.17,87.27,80.73,87.26,81.35,87.26Zm-22.72,0c.62,0,1.19,0,1.74,0,.09,0,.24-.23.24-.36,0-2.42,0-4.83,0-7.25,0-.3-.12-.39-.4-.38s-.74,0-1.11,0-.5.09-.5.48c0,1.61,0,3.22,0,4.83ZM61.33,89H78.65c0-.12,0-.23,0-.34s0-.21,0-.31H61.33ZM50.56,66.74a3.07,3.07,0,0,1-.69.21c-1,0-1.93,0-2.9,0-.14,0-.4.15-.41.24-.05.74-.06,1.48-.07,2.22,0,.25.11.42.41.41.87,0,1.74,0,2.61,0a6.44,6.44,0,0,1,1.05.19Zm38.88,3.42.12.14c0-.57.35-.46.63-.46.93,0,1.86,0,2.79,0,.37,0,.48-.11.47-.47q0-1,0-2c0-.33-.11-.45-.44-.44q-1.42,0-2.85,0a3.19,3.19,0,0,1-.72-.21Zm-28.11,20H78.64v-.64H61.33ZM59.45,66.19v-3.4H56.28v3.4ZM81,62.78c0,1,0,2,0,3,0,.13.17.37.27.38q1.31,0,2.61,0a.45.45,0,0,0,.3-.31c0-1,0-2.08,0-3.12Zm17.76,20v1.88h4.52V82.83Zm-57.53,0H36.72v1.84h4.51Zm13.66,0h3.26c0-.79,0-1.55,0-2.3a.47.47,0,0,0-.31-.3q-1.3,0-2.61,0a.47.47,0,0,0-.32.29C54.88,81.24,54.89,82,54.89,82.8Zm27,0H85.1c0-.79,0-1.54,0-2.3a.45.45,0,0,0-.3-.3c-.88,0-1.77,0-2.66,0-.09,0-.27.15-.27.23C81.83,81.22,81.84,82,81.84,82.8Zm.77-12.14a7,7,0,0,0-1-.07.43.43,0,0,0-.32.29c0,.54,0,1.08,0,1.63,0,1.14.07,2.28,0,3.42,0,.46.17.61.58.63.13,0,.25,0,.38,0s.38-.08.38-.35c0-.64,0-1.29,0-1.93Zm9.27-5.36c0-.65-.12-1.27-.13-1.89,0-2.47,0-4.93,0-7.4a7.85,7.85,0,0,0,0-1,.39.39,0,0,0-.28-.26c-.1,0-.24.14-.3.25s0,.22,0,.33c0,2.18,0,4.35,0,6.53,0,.77-.08,1.54-.1,2.31,0,.36,0,.72,0,1.1ZM48.2,54.84V65.29H49c0-.65-.11-1.26-.11-1.88,0-2.73,0-5.45,0-8.18C48.86,54.8,48.71,54.67,48.2,54.84Zm21.52.27v9.71c.42.14.59,0,.58-.41,0-3,0-5.93,0-8.89C70.31,55.08,70.16,55,69.72,55.11Zm-3,9.71c.5.16.61,0,.6-.43,0-2.47,0-4.94,0-7.4,0-.55,0-1.1,0-1.64,0-.11-.16-.21-.25-.31a3.19,3.19,0,0,0-.33.31s0,.12,0,.19c0,2.2,0,4.41,0,6.62ZM68.17,60c0,1.48,0,3,0,4.45,0,.21-.07.47.3.47s.3-.25.3-.47c0-3,0-5.93,0-8.89,0-.21.08-.49-.29-.48s-.31.25-.31.47Zm3,0v4.45c0,.21-.07.47.3.47s.31-.25.31-.47v-8.9c0-.21.07-.46-.31-.47s-.3.27-.3.47Zm2.08,4.86c0-.13,0-.28,0-.42V55.51c0-.2.1-.49-.29-.47s-.31.25-.31.48c0,3,0,5.93,0,8.89C72.71,64.85,72.87,65,73.29,64.82ZM58.43,90.07h2.41c0-.71,0-1.37,0-2a.41.41,0,0,0-.24-.3c-.71,0-1.41,0-2.15,0Zm23.13-2.34c-.76,0-1.46,0-2.17,0-.08,0-.22.11-.22.18,0,.71,0,1.43,0,2.17h2.4Zm3.12-21.55h.79v-3.4h-.79Zm-24.74-3.4v3.4h.78v-3.4Zm19.79,0c0,1.05,0,2.07,0,3.1,0,.3.16.34.4.33s.42,0,.41-.31V62.79Zm-24,0H55v3.39h.78Zm19,0v2.61c.3-.12.76.27.78-.35s0-1.51,0-2.26Zm-9.89,0v2.57h.76V62.78ZM51,69.47a1.91,1.91,0,0,0,.5,0c.11,0,.26-.15.26-.24,0-.62,0-1.24,0-1.89H51ZM69.79,54.3c.23-.18.49-.28.54-.45a1,1,0,0,0-.15-.63.45.45,0,0,0-.38,0C69.45,53.48,69.61,53.81,69.79,54.3Zm3.42,0,.2-.13c-.06-.3-.09-.6-.18-.9,0,0-.39,0-.41,0a1.24,1.24,0,0,0-.1.7C72.76,54.07,73,54.15,73.21,54.25Zm-1.12-.59-.58-.52c-.13.17-.34.33-.37.51s0,.6.36.51C71.69,54.12,71.83,53.89,72.09,53.66Zm-5.71,0c.26.25.4.49.58.54.4.1.4-.29.38-.49s-.24-.35-.36-.53Zm2.67,0-.58-.49c-.13.17-.35.33-.37.52s0,.58.38.51C68.66,54.13,68.8,53.88,69.05,53.63Zm-19.91-.06-.64-.48c-.12.17-.3.32-.34.51s.15.42.41.35S48.86,53.76,49.14,53.57Zm42.29.59c.2-.27.41-.43.39-.54s-.24-.35-.36-.53a1.83,1.83,0,0,0-.39.51C91,53.71,91.24,53.88,91.43,54.16Z" transform="translate(0 0)"/><path d="M65.47,35.77,64.93,33l-.61,0c-.19-.66-.7-.7-1.29-.62-.3,0-.73.15-.82-.28s.37-.52.67-.6c.86-.23,1.73-.4,2.59-.62.18-.05.33-.23.51-.32a1.73,1.73,0,0,1,.69-.29c1.72-.07,3.45-.13,5.17-.16a8.19,8.19,0,0,1,1.39.14c.34.05.72.05.87.49,0,.08.25.11.38.14.87.2,1.73.39,2.59.6a1.6,1.6,0,0,1,.53.24c.1.07.21.25.18.34a.46.46,0,0,1-.31.3c-.36,0-.74,0-1.11,0a.52.52,0,0,0-.37.17c-.32.45-.31.46-.94.44l-.53,2.79h2a14.68,14.68,0,0,1,0,1.5c0,.12-.28.21-.5.36-.08.73-.08.73-1,.73H64.11V37.08H76v-.84H64.13a2,2,0,0,1-.6-.21,2.15,2.15,0,0,1,.59-.24C64.55,35.75,65,35.77,65.47,35.77Zm5.12,0h2.93l.54-3c-.64,0-.7-.47-.71-.94l-1.51-.45-.44,1.11a2.48,2.48,0,0,0-.55,0c-.1,0-.25.14-.25.21C70.58,33.7,70.59,34.71,70.59,35.74Zm-4.67-3c.18,1,.34,1.9.53,2.81a.33.33,0,0,0,.25.22c.88,0,1.76,0,2.71,0v-2.5c0-.77,0-.77-.75-.82l-.1,0-.42-1.07-1.52.46C66.63,32.29,66.57,32.7,65.92,32.73Zm4,5.14h4.88a1.68,1.68,0,0,0,.39,0,.92.92,0,0,0,.22-.18,1,1,0,0,0-.21-.15,1.41,1.41,0,0,0-.29,0H65.07a1.25,1.25,0,0,0-.34,0c-.07,0-.12.12-.18.18s.11.12.17.13a1.7,1.7,0,0,0,.39,0Zm-1.61-6.93c.21.32,1.24.41,3,.29a1.12,1.12,0,0,0,.38-.15l0-.14Zm1.72,1.68a6.73,6.73,0,0,0,0,3.13Z" transform="translate(0 0)"/><path d="M65.09,41,66,41V39.68a2.74,2.74,0,0,1-.57,0,1.78,1.78,0,0,1-.45-.24c.14-.07.28-.2.42-.2.5,0,1,0,1.5,0h7.36a.93.93,0,0,1,.29,0,3.26,3.26,0,0,1,.4.24,1.9,1.9,0,0,1-.43.21,3,3,0,0,1-.6,0V41l.86,0c0,.6.21,1.2-.32,1.71a.7.7,0,0,0-.13.44c0,.43,0,.87,0,1.3,0,.26-.06.54.35.55.05,0,.14.16.15.25,0,.48,0,1,0,1.52H65.73a.7.7,0,0,1-.29,0,1.68,1.68,0,0,1-.29-.25,1.07,1.07,0,0,1,.28-.19,1.2,1.2,0,0,1,.38,0h8.55v-.84l-.57,0h-8a1.27,1.27,0,0,1-.39,0,.43.43,0,0,1-.21-.21c0-.05.09-.2.15-.2.38,0,.32-.3.32-.54s0-.71,0-1.06a1.81,1.81,0,0,0-.32-1A5.2,5.2,0,0,1,65.09,41Zm.58.47c-.14.45.12.46.41.46h7.83c.08,0,.19,0,.24,0a.41.41,0,0,0,.19-.26s-.11-.16-.19-.19a.69.69,0,0,0-.29,0H66.12ZM71.51,41V39.71h-3V41Zm.43,4a2.93,2.93,0,0,1,.52,0c.42.05.59-.1.54-.54,0-.28,0-.57,0-.86,0-1,0-1-1-.78Zm-3.91,0V42.73a4.45,4.45,0,0,0-.74,0c-.11,0-.28.14-.28.22,0,.65,0,1.31,0,2Zm1.44,0h1v-2.2a3.32,3.32,0,0,0-.71,0c-.11,0-.28.17-.28.27C69.45,43.64,69.47,44.27,69.47,44.94Zm-2.23-4c.58,0,.83-.2.81-.67s-.25-.62-.76-.62-.84.18-.84.65S66.68,41,67.24,41Zm5.49,0c.59,0,.8-.16.8-.62s-.26-.67-.82-.67-.78.23-.78.67S72.15,41,72.73,41Zm-1.29,2.9h0c0-.29,0-.58,0-.86,0-.1-.13-.18-.2-.27-.08.08-.22.15-.22.23,0,.59,0,1.18,0,1.78,0,.07.12.14.19.21s.21-.15.22-.23A8.19,8.19,0,0,0,71.44,43.87Zm-2.46,0A7.3,7.3,0,0,0,69,43c0-.1-.15-.19-.23-.28-.06.09-.19.17-.19.26q0,.84,0,1.68c0,.1.15.19.23.28.06-.09.18-.17.19-.26A8.42,8.42,0,0,0,69,43.83Zm4.91,0a8.19,8.19,0,0,0,0-.86c0-.1-.13-.18-.19-.27-.08.09-.22.17-.22.25q0,.87,0,1.74c0,.08.15.15.23.23.06-.09.17-.17.18-.27A7.45,7.45,0,0,0,73.89,43.87Zm-7.37,0a8.42,8.42,0,0,0,0-.87c0-.09-.12-.18-.19-.27-.08.08-.21.16-.21.25,0,.57,0,1.15,0,1.73,0,.08.14.16.21.24.07-.09.18-.17.19-.26A7.51,7.51,0,0,0,66.52,43.88Z" transform="translate(0 0)"/><path d="M70,94.63H86.88a1.18,1.18,0,0,1,.62.21c0,.39-.39.24-.61.24l-33.83,0a.64.64,0,0,1-.28,0,1.7,1.7,0,0,1-.34-.26l.33-.21a.33.33,0,0,1,.1,0l11.08,0h6Z" transform="translate(0 0)"/><path d="M69.94,39.05H65.16a1.67,1.67,0,0,1-.39,0,.27.27,0,0,1-.16-.19.25.25,0,0,1,.15-.21,1.46,1.46,0,0,1,.42,0c3.21,0,6.42,0,9.62,0,0,0,0,0,0,0l.54.25a1.51,1.51,0,0,1-.52.2C73.23,39.06,71.59,39.05,69.94,39.05Z" transform="translate(0 0)"/><path d="M35.84,79.67h3.75L39.37,81H36.05Z" transform="translate(0 0)"/><path d="M100.61,81l-.22-1.31h3.74L103.94,81Z" transform="translate(0 0)"/><path d="M66.76,81.09H73.2c0-.13,0-.24,0-.35q.07-4.11.14-8.2c0-.27-.09-.55-.08-.82,0-.11.16-.3.25-.3.64,0,1.29,0,1.93,0,.1,0,.3.18.28.23a11,11,0,0,0-.08,2.56c0,.79,0,1.58,0,2.37,0,1.49.11,3,.16,4.54h2a.7.7,0,0,1,.29,0c.17.06.33.15.5.23-.17.07-.34.21-.51.21H64.89c-1,0-2.1,0-3.15,0-.15,0-.3-.14-.46-.22.16-.08.31-.22.46-.22.79,0,1.57,0,2.38,0a2.86,2.86,0,0,0,0-.32c0-2.7.1-5.4.13-8.1,0-.34-.09-.67-.08-1a.38.38,0,0,1,.29-.27c.62,0,1.25,0,1.88,0,.27,0,.37.12.25.41a1.63,1.63,0,0,0,0,.59c0,1.24,0,2.48,0,3.73C66.63,77.77,66.7,79.4,66.76,81.09Zm8.59,0c0-.25,0-.44,0-.63,0-1.6-.1-3.2-.13-4.81,0-1.25,0-2.5,0-3.75H73.91c-.06,3.08-.12,6.13-.17,9.19Zm-9.1,0-.17-9.2H64.82l-.16,9.2Z" transform="translate(0 0)"/><path d="M59.17,70.22v4.1h4.34a.91.91,0,0,1,.33,0,1.36,1.36,0,0,1,.33.22c-.11.08-.23.22-.34.22-1.15,0-2.29,0-3.44,0H59.21V76.1h4.41a.91.91,0,0,1,.33,0c.09,0,.15.14.21.21a1.55,1.55,0,0,1-.23.21s-.12,0-.19,0H59.68a4.11,4.11,0,0,1-.5-.06,3.7,3.7,0,0,1,0,.67c0,.12-.16.23-.24.34-.08-.11-.22-.22-.22-.33,0-.85,0-1.7,0-2.56,0-1.22,0-2.44.06-3.66,0-.26-.07-.42-.41-.36a7.76,7.76,0,0,1-1,0v3.44c0,1,0,2,0,3,0,.16-.14.31-.22.47-.07-.15-.22-.3-.22-.45,0-1.5,0-3,0-4.49,0-.64,0-1.29,0-1.93,0-.27.1-.43.39-.42Z" transform="translate(0 0)"/><path d="M69.89,83.84H62a1.19,1.19,0,0,1-.38,0,1.36,1.36,0,0,1-.34-.25,3.45,3.45,0,0,1,.32-.2.93.93,0,0,1,.29,0H78a1.22,1.22,0,0,1,.63.21c0,.4-.39.24-.61.24Z" transform="translate(0 0)"/><path d="M70,85.63h8a1.52,1.52,0,0,1,.43,0,.3.3,0,0,1,.2.21.36.36,0,0,1-.2.22,1.27,1.27,0,0,1-.39,0H61.9a.65.65,0,0,1-.24,0c-.13-.06-.25-.14-.38-.21.13-.09.26-.24.39-.24,1.41,0,2.83,0,4.25,0Z" transform="translate(0 0)"/><path d="M70,82.25h8a1.2,1.2,0,0,1,.38,0c.1,0,.18.14.27.21-.08.08-.15.19-.25.23a1,1,0,0,1-.34,0c-5.38,0-10.76,0-16.15,0a1.59,1.59,0,0,1-.58-.24,1.8,1.8,0,0,1,.56-.2C64.56,82.24,67.27,82.25,70,82.25Z" transform="translate(0 0)"/><path d="M69.94,84.49h8a1.22,1.22,0,0,1,.43,0c.1,0,.17.15.25.23-.08.07-.14.17-.23.2A1.68,1.68,0,0,1,78,85H61.92c-.22,0-.57.16-.6-.24,0-.06.38-.21.59-.21Z" transform="translate(0 0)"/><path d="M70,87.21c-2.68,0-5.36,0-8,0-.23,0-.58.15-.6-.25,0-.06.39-.21.6-.21q8,0,16.06,0c.22,0,.57-.15.6.26a1.15,1.15,0,0,1-.6.19c-2.68,0-5.35,0-8,0Z" transform="translate(0 0)"/><path d="M70,70.63h5.57a.7.7,0,0,1,.29,0,2.67,2.67,0,0,1,.36.22c-.12.08-.24.22-.36.22-.86,0-1.71,0-2.57,0h-9a.34.34,0,0,1-.1,0l-.51-.24c.17-.07.34-.22.51-.22C66.17,70.62,68.1,70.63,70,70.63Z" transform="translate(0 0)"/><path d="M93.08,72.61a5.51,5.51,0,0,1-.71-.09c-.1,0-.17-.2-.25-.31.12-.06.28-.21.36-.17a4.24,4.24,0,0,1,.65.46Z" transform="translate(0 0)"/><path d="M91.25,72c.25.67-.18.55-.5.57Z" transform="translate(0 0)"/></svg>