<?xml version="1.0" encoding="utf-8"?>
<!-- Generator: Adobe Illustrator 26.0.1, SVG Export Plug-In . SVG Version: 6.00 Build 0)  -->
<svg version="1.1" id="Layer_1" xmlns="http://www.w3.org/2000/svg" xmlns:xlink="http://www.w3.org/1999/xlink" x="0px" y="0px"
	 viewBox="0 0 127 120" style="enable-background:new 0 0 127 120;" xml:space="preserve">
<style type="text/css">
	.st0{fill:#FFC13F;}
</style>
<path class="st0" d="M75.1,0H127v120H0V75.1C0,33.6,33.6,0,75.1,0C75.1,0,75.1,0,75.1,0z"/>
<path d="M45.7,67.1c0.1-1.3-0.5-2.6,0.9-3.2c0.6-0.3,1.5,0.1,2.3,0.2v0.5l1.2-1.1l-2.5-0.2c0-1,0-1.9,0-2.9c0-0.2,0.1-0.5,0.2-0.5
	c1.7-0.5,1.1-2.2,0.8-2.8c-0.7-1.3,0.1-2,0.5-3c0.1-0.2,0.2-0.3,0.2-0.4c0.3-2.3,0.5-4.5,0.8-6.8c0.1-0.5,0.5-1,0.6-1.6
	c0.1-0.7,0.1-1.3,0.1-2c0-0.3-0.2-0.6-0.2-0.9c0.2-0.9,0.7-1.8,0.8-2.7c0.1-1,0.1-2,0-3c1.2,0,1.2-0.8,1.1-1.7
	c-0.1-1.1-0.2-2.2-0.3-3.4c0-0.3,0-0.5,0.1-0.8c0.2-0.4,0.4-0.9,0.5-1.4c0-0.9,0-1.7,1.3-1.6c-0.1-0.7-0.1-1.3,0-2
	c0.1-0.6,0.5-1.1,0.6-1.7c0.2-0.4,0.3-0.9,0.3-1.4c-0.2-1.9,0.5-3.9,1.8-5.3l1.3,2.2l1.3-2.3l1.4,2.3l1.3-2.3l1.4,2.3l1.3-2.3
	l1.4,2.2l1.3-2.2l1.4,2.3l1.2-2l0.5-0.1c0.5,1.2,1,2.4,1.4,3.6c0.3,1.2-0.3,2.5,0.7,3.7c0.5,0.6,0.1,1.9,0.1,3
	c1.2,0,1.4,0.7,1.3,1.7c0,0.4,0.4,0.9,0.5,1.3c0.1,0.2,0.2,0.5,0.2,0.8c-0.1,1.1-0.3,2.3-0.4,3.5c0,0.7-0.2,1.4,0.9,1.5
	c0.1,0,0.3,0.5,0.3,0.8c0,1,0,1.9,0,2.9c0.1,0.5,0.2,1,0.4,1.5c0.1,0.2,0.4,0.5,0.3,0.6c-1.1,2.2,0.8,4.1,0.7,6.3
	c-0.1,2.3,0.4,4.6,1.5,6.7c0.2,0.3,0.2,0.6,0.2,1c-0.5,1.3-1,2.4,0.3,3.7c0.6,0.6,0.2,2,0.3,3.2l-2.5,0.1l1,0.7
	c0.8-0.2,1.7-0.3,2.6-0.3c1.2,0.4,0.8,1.7,0.8,2.6c0,0.2-0.8,0.6-1.2,0.6c-4,0-7.9,0-11.9,0L47,67.1C46.6,67.1,46.2,67.1,45.7,67.1z
	 M68.5,59.7h9.3v-3.1H71c-2.9,0-2.9,0-2.6,3C68.5,59.6,68.5,59.7,68.5,59.7z M58.5,59.7c0.1-0.8,0.1-1.5,0-2.3
	c0-0.3-0.5-0.8-0.7-0.8c-2.8-0.1-5.7,0-8.7,0v3.2L58.5,59.7z M68,62.7h10.9v-2.4H68.3C68.5,61.2,69.4,62.2,68,62.7L68,62.7z
	 M58.2,60.2H48.1v2.5h10.5L58.2,60.2z M66.5,34.3c0.9,0,1.8,0,2.6,0c0.7,0.1,1.3,0.4,0.7,1.2c-0.1,0.2-0.2,0.5-0.3,0.8h4.2
	c0.2-0.8,0.2-1.5,0.3-2.3c-0.1-0.7,0.7-1.9-0.8-2c-2,0-4.1,0-6.1,0c-0.3,0-0.7,0.5-0.8,0.9S66.4,33.8,66.5,34.3L66.5,34.3z M59.4,51
	c-0.8,0.1-1.4,0.1-1.9,0.1c-2.2,0-4.3,0-6.5,0c-1,0-1.4,0.3-1.3,1.3c0,0.4,0,0.7,0.1,1.2h9.2L59.4,51z M67.7,51.1
	c0.3,0.8-0.5,2.3,1.1,2.4c2.8,0.2,5.6,0.1,8.4,0.1c0.5-2.3,0.4-2.5-1.8-2.5c-1.1,0-2.3,0-3.4,0H67.7z M53.1,36.5h4.2
	c-0.7-1.9-0.6-2,1.5-2c1.8,0,2-0.3,1.8-2.2h-7.5V36.5z M80.8,66.6c-1.5-0.8-34.1-0.6-34.8,0H80.8z M66.8,41.4H75V39
	c-2.2-0.2-4.4-0.3-6.5-0.6c-1.2-0.2-1.5,0.6-1.7,1.5C66.8,40.4,66.8,40.9,66.8,41.4L66.8,41.4z M50.5,49.7h8.7v-2.4h-8.7V49.7z
	 M60,41.5c0.3-2.3,0.1-2.5-1.9-2.5c-1.2,0-2.4-0.8-3.7,0c-0.1,0.1-0.4-0.1-0.6-0.1l-1.9-0.4v3.1L60,41.5z M76.4,49.7v-2.4h-8.7v2.4
	H76.4z M68.2,45.4h7.3v-1.9H67v0.3l1.2,0.4L68.2,45.4z M60,43.4h-8.6v1.9h7.3L58.5,45L60,43.4z M56.2,37L56.2,37c-1.1,0-2.3,0-3.4,0
	c-0.3,0-0.6,0.3-0.9,0.5c0.3,0.2,0.6,0.3,0.8,0.4c0.2,0,0.4,0,0.5,0c2.4-0.3,4.7,0.1,7.2-0.5c2.4-0.5,4.9-0.4,7.3,0.3
	c2.2,0.7,4.7,0.2,7,0.1c0.1,0,0.4-0.3,0.4-0.4c0-0.2-0.2-0.4-0.4-0.4c-0.3,0-0.6,0-0.9,0L56.2,37z M53.4,28.6
	c-0.2,1.9-0.2,1.9,1.5,1.9c1.3,0,2.6-0.1,4,0s1.9-0.5,2.1-1.9L53.4,28.6z M73.6,28.6h-8c0.7,0.8,1.1,1.8,1.6,1.8
	c2.1,0.2,4.2,0.1,6.4,0.1V28.6z M65.7,25.4V28h4.8c0-0.4,0-0.8,0-1.3c0.2-1.1-0.3-1.5-1.4-1.4S66.9,25.4,65.7,25.4L65.7,25.4z
	 M56.7,25.5V28h4.6v-2.5L56.7,25.5z M71.5,23l0.1-0.5c-0.3-0.1-0.7-0.2-1.1-0.2c-4.7,0-9.4,0-14.1,0c-0.4,0.1-0.7,0.2-1,0.4l0.1,0.3
	L71.5,23z M63.5,35.2L63.5,35.2c-1.5,0-3.1,0-4.6,0c-0.3,0-0.5,0.3-0.8,0.5c0.3,0.2,0.5,0.6,0.8,0.6c3,0,6.1,0,9.1,0
	c0.3,0,0.5-0.4,0.8-0.6c-0.3-0.2-0.5-0.5-0.8-0.5C66.5,35.1,65.1,35.2,63.5,35.2z M61.8,51.9c0-1.7,0-3.2,0-4.8c0-0.4-0.4-0.7-0.7-1
	c-0.3,0.3-0.8,0.6-0.8,0.9c-0.1,1.6,0,3.2,0,4.9H61.8z M71.4,21v-0.3H55.5V21H71.4z M61.5,58.8L61.5,58.8c0-0.4,0-0.7,0-1.1
	c0-0.7,0-1.2-1-1.2s-1,0.5-1,1.2c0,0.9,0,1.8,0.1,2.7c0.1,0.4,0.6,0.7,0.9,1c0.3-0.3,0.8-0.6,1-1.1C61.5,59.9,61.6,59.4,61.5,58.8z
	 M65.5,56.6c0,1.4-0.1,2.6,0,3.8c0,0.4,0.5,0.7,0.8,1.1c0.3-0.3,0.9-0.6,1-0.9c0.1-1.3,0-2.6,0-4H65.5z M62.5,58.9
	c-0.1,0.4-0.1,0.9,0,1.4c0.3,0.5,0.6,0.9,0.9,1.3c0.3-0.4,0.9-0.8,0.9-1.3c0.1-0.9,0.1-1.8,0.1-2.7c0-0.7-0.3-1-1-1s-1,0.2-1,0.9
	C62.5,58,62.5,58.4,62.5,58.9L62.5,58.9z M64.2,51.9c0-1.7,0-3.2,0-4.7c0-0.4-0.5-0.7-0.8-1.1c-0.2,0.3-0.7,0.7-0.7,1
	c-0.1,1.6,0,3.1,0,4.8L64.2,51.9z M66.7,51.9c0-1.7,0.1-3.2,0-4.8c0-0.4-0.5-0.7-0.8-1.1c-0.2,0.3-0.7,0.7-0.7,1
	c-0.1,1.6,0,3.1,0,4.8L66.7,51.9z M58.3,55.2c-0.6-0.8-7.8-1-9.2-0.3C49.7,55.5,56.3,55.7,58.3,55.2L58.3,55.2z M78,54.9
	c-0.2-0.1-0.3-0.2-0.5-0.2c-2.7,0-5.4,0-8.1,0c-0.3,0-0.6,0.3-1.2,0.6C70.8,55.7,77.2,55.5,78,54.9z M70.9,24.9V28h1.3
	C72.8,25.6,72.5,24.8,70.9,24.9L70.9,24.9z M65.6,39c-0.6,0.8-1,4.3-0.6,4.7c0.2,0.2,0.9,0,0.9-0.1C66,42.1,66.4,40.6,65.6,39z
	 M64,41.6L64,41.6c0-0.5,0-1.1,0-1.6c0-0.3-0.3-0.5-0.5-0.8c-0.2,0.3-0.5,0.5-0.6,0.8c-0.1,1.1-0.1,2.2,0,3.3c0,0.2,0.4,0.4,0.6,0.7
	c0.2-0.2,0.4-0.4,0.5-0.7C64,42.7,64,42.2,64,41.6z M61.8,38.9c-0.8,0.8-1.2,4.4-0.7,4.8c0.2,0.1,0.4,0.2,0.6,0.1
	c0.2-0.1,0.3-0.4,0.4-0.6c0-0.8,0-1.6,0-2.5C62,40.3,61.9,39.7,61.8,38.9L61.8,38.9z M68.2,45.9v0.2h8.2V46L68.2,45.9z M54.7,24.9
	v3.2L56,28v-3.2L54.7,24.9z M50.6,46v0.3h8.1V46H50.6z M77.7,56L77.7,56l-8.6,0v0.1L77.7,56z M55.6,24v0.3H61V24H55.6z M66,24v0.3
	h5.3V24H66z M75.4,42.8l0.1-0.1h-8.2v0.1H75.4z M59.6,42.8v-0.1h-8.1v0.1H59.6z M61.6,33.6l0.5,0.1v-2.7h-0.5V33.6z M64.8,33.6
	c1-1,0.9-2.2,0-2.6V33.6z M53.1,31.4v0.1h7.1v-0.1H53.1z M73.8,31.5v-0.1h-7.1v0.1H73.8z M63.1,33.6h0.7c0-0.8,0.1-1.6,0.1-2.4
	c0-0.1-0.3-0.3-0.4-0.3c-0.2,0-0.3,0.2-0.4,0.3C63.1,32.1,63.1,32.8,63.1,33.6z M66.7,52.7l0.1-0.1h-6.5v0.1H66.7z M67.8,64.9
	c-0.8-1.2-1.2-1.2-2.1,0H67.8z M71.1,64.9c-1-1.3-1.5-1.3-2.2,0H71.1z M48.6,64.9c-0.5-0.4-0.8-0.8-1.1-0.8
	c-0.5,0.1-0.9,0.2-1.3,0.5l0.1,0.4H48.6z M56,56L56,56l-5.7-0.1V56H56z M74.4,65c-1-1.3-1.4-1.2-2.2,0H74.4z"/>
<path d="M84.9,99.7v1.8c0.4,0,0.9,0,1.3,0.1c0.2,0.1,0.4,0.4,0.6,0.6c-0.2,0.2-0.4,0.4-0.6,0.5c-0.3,0-0.5,0-0.8,0H41.6
	c-0.3,0-0.5,0-0.8,0c-0.2-0.1-0.5-0.3-0.7-0.5c0.2-0.2,0.4-0.5,0.7-0.6c0.4-0.1,0.8-0.1,1.2-0.1l0.1-1.6h16.1l0.1,1.6h10.4
	c-0.4-1.6,0.5-1.7,1.9-1.7c4.1,0.1,8.2,0,12.3,0L84.9,99.7z M84.4,100.6v-0.3H69.2v0.3H84.4z M42.6,100.3v0.3h15.2v-0.3H42.6z"/>
<path d="M68.5,85.5c0.4-0.5,0.8-1.2,1.4-1.3s1.3,0.3,2.2,0.6c1.5-1.1,1.5-1.1,3.1,0.2c1.5-1.3,1.8-1.3,3.2,0c1.7-1.3,1.8-1.3,3.3,0
	l1.4-1.2H43.3v-1.9h40.3c0,0.5,0.1,0.8,0.1,1.2c0,0.2,0,0.4-0.1,0.7l1.4,2.1H68.7L68.5,85.5z M63.5,82.2h-2.9c-5.2,0-10.5,0-15.7,0
	c-0.4,0-0.8,0.1-1.1,0.3c-0.1,0,0,0.6,0,0.6c0.3,0.2,0.7,0.2,1,0.2c12.4,0,24.7,0,37.1,0c0.5-0.1,0.9-0.3,1.3-0.6
	c-0.4-0.2-0.8-0.6-1.3-0.6C75.8,82.2,69.6,82.2,63.5,82.2L63.5,82.2z M77.7,85.4l0.1-0.4c-0.4-0.2-0.9-0.4-1.3-0.4
	c-0.3,0-0.6,0.4-1.1,0.8H77.7z M80.9,85.4l0.1-0.3c-0.4-0.2-0.8-0.6-1.1-0.6s-0.7,0.4-1.1,0.6l0.2,0.3H80.9z"/>
<path d="M58.9,79.4V69h0.3c0.1,0.3,0.1,0.5,0.1,0.8c0,3.6,0,7.3-0.1,10.9c0,0.3-0.6,0.8-1,0.8c-4,0.1-8,0.1-12,0
	c-0.4,0-0.8-0.3-1.2-0.5l0.8-1.1L46,80V68.9h0.3v10.5L58.9,79.4z M45.6,80.7v0.2h12.8v-0.2H45.6z"/>
<path d="M69.5,78.6c0-2.8-0.1-5.5,0.1-8.2c0-0.5,0.8-1.3,1.2-1.3c0.7,0,1.3,0.6,2,1c1.3-1.6,1.9-1.6,3.1,0c0.8-0.4,1.5-1.1,2.2-1
	c1.1,0.2,1.2,1.3,1.2,2.3c0,2.5-0.1,4.9-0.3,7.4c-0.1-0.3-0.1-0.6-0.2-0.9c0-2,0-4.1,0-6.2c0.1-0.4,0-0.7-0.1-1.1
	c-0.3-0.4-0.6-0.9-1-1.2c-0.4,0.3-0.7,0.7-1,1.2c-0.1,0.5-0.2,1-0.1,1.5c0,2.2,0,4.5,0,6.7l-1,0.1c0-0.1-0.1-0.2-0.1-0.4
	c0-2.2,0-4.4,0-6.6c0-0.3,0.1-0.7,0-0.9c-0.3-0.5-0.7-1-1.1-1.5c-0.4,0.5-1,1-1,1.5c-0.1,2.6-0.1,5.1-0.1,7.8l-1.1,0.1
	c0-2.4,0-4.8,0-7.1c0-0.9,0-2.2-1.1-2.2S70,70.7,70,71.7v6.9L69.5,78.6z"/>
<path d="M81.2,79.9c0.3,0.3,0.5,0.6,0.7,1c0,0.1-0.5,0.6-0.8,0.6c-4.3,0-8.7,0-13,0c-0.1,0-0.2-0.1-0.3-0.2V69h0.3v1.2
	c0,2.7,0,5.5,0,8.2c0,0.8,0.3,1.1,1.1,1.1c3.4,0,6.8,0,10.2,0c1,0,1.2-0.4,1.2-1.3c-0.1-3.1,0-6.2,0.3-9.3v11L81.2,79.9z M81.2,80.9
	l0.1-0.2H68.6V81L81.2,80.9z"/>
<path d="M58.3,85.8H41.9c0.5-0.7,0.9-1.5,1.3-1.6c0.9,0,1.7,0.1,2.5,0.4c1.3-1,1.4-1,2.9,0.2c1.7-1.2,1.7-1.2,3.3,0
	c1.5-1.3,1.7-1.2,3.2,0C56.9,83.5,57.9,83.7,58.3,85.8z"/>
<path d="M51.5,78.7h-1.2c0-2.4,0-4.8,0-7.1c0.1-0.4,0-0.8-0.1-1.2c-0.2-0.4-0.6-0.8-1-0.9c-0.2-0.1-0.8,0.4-0.9,0.8
	c-0.2,0.5-0.2,1-0.2,1.5c0,2.3,0,4.6,0,6.9h-0.4v-2.3c0-1.7,0-3.5,0-5.2c0-1,0.1-2,1.2-2.2c0.7-0.1,1.4,0.6,2.1,0.9
	c0.5-0.2,1.3-1,1.9-0.9c1.2,0.2,1.3,1.3,1.3,2.4c0,2.1,0,4.2,0,6.3c0,0.3-0.1,0.7-0.1,1h-0.4v-1.6c0-2.1,0.1-4.1-0.1-6.2
	c0-0.6-0.7-1.1-1-1.7c-0.4,0.6-1,1.1-1,1.7C51.4,73.6,51.5,76.1,51.5,78.7z"/>
<ellipse cx="63.5" cy="68.1" rx="23.7" ry="0.1"/>
<path d="M69,86.8v12h14.4v-12h0.3c0.1,0.4,0.1,0.7,0.1,1.1c0,3.4,0,6.8,0,10.2c0,0.6,0.1,1.2-0.9,1.2c-4.7,0-9.4,0-14.3,0V86.8H69z"
	/>
<path d="M48.2,98c0-2.7,0-5.4,0-8.1c0-1.1,0.2-2.6-1.2-2.6s-1.3,1.6-1.3,2.7c0,2.3,0,4.6,0,6.8c0,0.4-0.1,0.8-0.4,1.1
	c0-0.4-0.1-0.8-0.1-1.2c0-2.6,0-5.2,0-7.8c0-1.2,0.9-2.3,1.8-2.2c1.1,0.1,1.8,1.1,1.7,2.1c0,3,0,6,0,9.1L48.2,98z"/>
<path d="M49,98c0-3.2-0.1-6.4,0.1-9.5c0.2-0.8,0.9-1.4,1.7-1.6c1.1-0.1,1.6,0.8,1.7,1.9c0.1,2.4,0,4.7,0,7.1V98H52
	c0-0.4-0.1-0.8-0.1-1.2v-7.1c0.1-0.4,0-0.8-0.1-1.2c-0.3-0.5-0.7-1.1-1.1-1.1s-0.9,0.6-1.2,1.1c-0.2,0.5-0.2,1-0.2,1.5
	c0,2.7,0,5.4,0,8.1L49,98z"/>
<path d="M55.9,98c0-0.4-0.1-0.8-0.1-1.3c0-2.3,0-4.6,0-7c0.1-0.4,0-0.9-0.1-1.3c-0.2-0.5-0.8-1.1-1.1-1.1s-0.9,0.6-1.2,1.1
	c-0.2,0.5-0.2,1-0.1,1.5c0,2.7,0,5.4-0.3,8.1c-0.1-0.2-0.1-0.4-0.2-0.6c0-2.8,0-5.7,0-8.5c-0.1-1.1,0.7-2,1.8-2.2
	c0.9,0,1.6,1,1.6,2.3c0,3,0,5.9,0,8.9L55.9,98z"/>
<path d="M61.2,79.1L60.6,74l0.5-0.1l0.7,4.7c0.9,0.1,1.8,0,2.7-0.1c0.3-0.1,0.7-0.7,0.8-1.1c0.2-1.2,0.3-2.4,0.5-3.5l0.6,0.1
	l-0.6,4.8l-2.4,1.6L61.6,79L61.2,79.1z"/>
<path d="M43.2,99.2V86.7h0.3v4.1c0,2.3,0,4.7,0,7c0,0.7,0.1,1.2,0.9,1.1c4.3,0,8.6,0,12.8,0c0.2,0,0.5-0.1,0.7-0.2v-12h0.3v12.4
	H43.2z"/>
<path d="M74.6,98.1c-0.1-0.3-0.1-0.7-0.1-1c0-2.6,0-5.1,0-7.7c-0.1-0.5,0-1,0.2-1.4c0.4-0.5,1-1.1,1.5-1.1s1.5,0.8,1.5,1.2
	c0.1,3.3,0.1,6.6-0.2,9.9c0-2.7,0-5.4,0-8c0-0.6,0-1.2-0.2-1.7c-0.2-0.4-0.7-1-1-0.9c-0.5,0.1-0.9,0.5-1.2,0.9
	c-0.2,0.5-0.3,1-0.2,1.6c0,2.3,0,4.7,0,7c0,0.4,0,0.8-0.1,1.3L74.6,98.1z"/>
<path d="M57.1,78.7v-6.4c0.1-0.5,0.1-1,0-1.5c-0.3-0.5-0.7-1-1.1-1.5c-0.4,0.5-1,1-1,1.5c-0.1,1.8,0,3.6,0,5.3v2.4
	c-0.1,0-0.3-0.1-0.4-0.1c0-2.7-0.2-5.4-0.1-8c0-0.8,0.6-1.5,1.4-1.6c0.1,0,0.1,0,0.2,0c1,0.1,1.4,0.9,1.4,1.9c0,2.6,0,5.2,0,7.9
	L57.1,78.7z"/>
<path d="M81.4,97.9c0-2.7,0-5.4,0-8.1c0-1.6-0.6-2.8-1.4-2.6c-1.3,0.3-1.3,1.5-1.3,2.6V98h-0.4c0-1.4,0-2.8,0-4.3
	c-0.1-1.7,0-3.5,0.1-5.2c0.3-0.8,0.9-1.4,1.6-1.6c0.4-0.1,1.5,0.8,1.5,1.3c0.1,3.2,0.1,6.5,0.1,9.8L81.4,97.9z"/>
<path d="M70.7,98c0-0.9,0-1.8,0-2.7c0-2.1,0-4.3,0-6.4c0-1.2,0.5-2,1.7-2s1.7,0.9,1.7,2.1c0,3,0,6-0.3,9c0-0.3-0.1-0.7-0.1-1v-6.9
	c0-0.3,0-0.6,0-0.8c-0.1-0.9-0.2-1.9-1.3-2s-1.4,1-1.4,2c0,2.5,0,4.9,0,7.4c0,0.4,0,0.9,0,1.3L70.7,98z"/>
<path d="M63.6,74c0.1,0.9,0.3,1.9,0.3,2.8c0,0.2-0.3,0.5-0.4,0.7C63.3,77.3,63,77,63,76.8c0.1-0.9,0.3-1.8,0.4-2.8L63.6,74z"/>
</svg>
