<svg id="Layer_1" data-name="Layer 1" xmlns="http://www.w3.org/2000/svg" viewBox="0 0 127 120"><path d="M75.12,0H127V120H0V75.12A75.12,75.12,0,0,1,75.12,0Z" transform="translate(0 0)" fill="#7815ff"/><path d="M45.65,67.06c.12-1.26-.46-2.63.89-3.21.62-.26,1.52.12,2.29.21v.47l1.24-1.09-2.5-.16V60.42c0-.17.06-.46.15-.49,1.69-.55,1.09-2.21.76-2.82-.74-1.31.13-2,.46-3,.06-.16.23-.29.25-.44.28-2.26.51-4.53.83-6.79.07-.53.52-1,.62-1.56a8.91,8.91,0,0,0,.08-2c0-.31-.24-.63-.18-.9.23-.93.66-1.81.8-2.74a21.45,21.45,0,0,0,0-3c1.24,0,1.21-.84,1.14-1.69-.1-1.12-.22-2.24-.3-3.36a1.89,1.89,0,0,1,.14-.78,5.53,5.53,0,0,0,.52-1.37c0-.87,0-1.71,1.27-1.56a13.35,13.35,0,0,1,0-2c.1-.59.45-1.14.6-1.73A4.36,4.36,0,0,0,55,22.8a7,7,0,0,1,1.82-5.29l1.3,2.2,1.32-2.33,1.39,2.32,1.32-2.32,1.41,2.34,1.26-2.31,1.45,2.23,1.29-2.24L69,19.69l1.17-2,.48-.08A32,32,0,0,1,72,21.18c.31,1.19-.28,2.47.74,3.68.5.58.09,1.93.09,3,1.24,0,1.4.72,1.35,1.7,0,.43.37.87.54,1.33a1.67,1.67,0,0,1,.15.76c-.11,1.15-.29,2.31-.38,3.47,0,.65-.19,1.41.87,1.51.13,0,.31.5.33.78v2.87a5.47,5.47,0,0,0,.45,1.49c.08.2.38.46.33.57-1.14,2.24.82,4.12.7,6.33a14.36,14.36,0,0,0,1.46,6.69,1.38,1.38,0,0,1,.2,1c-.47,1.29-1,2.38.32,3.7.56.58.2,2,.27,3.22l-2.47.12,1,.72a6.75,6.75,0,0,1,2.57-.26c1.2.41.76,1.71.82,2.64,0,.19-.78.61-1.21.61H68.21L47,67.14C46.61,67.14,46.21,67.09,45.65,67.06Zm22.89-7.35h9.27V56.58H71c-2.94,0-2.94,0-2.58,3Zm-10,0a14.85,14.85,0,0,0,0-2.31c0-.32-.47-.82-.73-.82-2.85-.06-5.7,0-8.66,0v3.17Zm9.45,3H78.88V60.3H68.35c.19.89,1.09,1.85-.35,2.49Zm-9.77-2.5H48.12v2.47H58.67Zm8.31-25.86a23.25,23.25,0,0,1,2.64,0c.71.07,1.28.37.69,1.25a4.17,4.17,0,0,0-.28.77h4.16A11.93,11.93,0,0,0,74,34.06c-.09-.69.72-1.93-.84-2-2-.05-4.09-.05-6.13,0-.27,0-.66.55-.75.91a4.07,4.07,0,0,0,.28,1.46ZM59.4,51c-.84.06-1.37.13-1.91.13H51c-1,0-1.42.33-1.28,1.33a5.91,5.91,0,0,0,.08,1.15h9.18Zm8.27.13c.33.78-.49,2.31,1.08,2.43,2.79.21,5.6.06,8.39.06.49-2.35.38-2.49-1.75-2.49H67.67ZM53.12,36.47h4.24c-.72-1.94-.63-2,1.46-2,1.84,0,2-.26,1.75-2.22H53.12ZM80.85,66.55c-1.52-.81-34.09-.63-34.8,0Zm-14-25.13H75V39c-2.23-.2-4.37-.33-6.49-.59-1.2-.15-1.51.56-1.67,1.45a9,9,0,0,0,0,1.56ZM50.51,49.66h8.73V47.27H50.51ZM60,41.46c.27-2.34.13-2.53-1.92-2.49-1.22,0-2.43-.83-3.67,0-.13.09-.42-.08-.64-.13l-1.86-.44v3.1Zm16.43,8.23V47.26H67.77v2.43Zm-8.19-4.32h7.32V43.49H67v.28l1.15.36ZM60,43.42H51.4v1.92h7.31L58.49,45ZM56.19,37H52.78c-.31,0-.6.32-.9.5a8.37,8.37,0,0,0,.84.44,1.23,1.23,0,0,0,.54,0c2.37-.29,4.71.09,7.17-.51a13.61,13.61,0,0,1,7.27.33c2.16.68,4.69.15,7,.13.14,0,.38-.29.37-.43a.6.6,0,0,0-.38-.44,3.78,3.78,0,0,0-1,0Zm-2.78-8.4c-.2,1.89-.2,1.89,1.53,1.89,1.32,0,2.64-.1,4,0S60.81,30,61,28.63Zm20.15,0h-8c.69.83,1.09,1.77,1.57,1.81,2.11.17,4.24.07,6.43.07Zm-7.9-3.25V28h4.77a8.83,8.83,0,0,1,0-1.26c.16-1.12-.34-1.45-1.39-1.38s-2.15,0-3.38,0Zm-9,.11V28h4.61V25.49ZM71.49,23l.09-.47a5.57,5.57,0,0,0-1.06-.23H56.46a3,3,0,0,0-1,.37l.1.32ZM63.55,35.15H58.93c-.27,0-.53.32-.79.49.27.21.53.6.8.61q4.56.06,9.11,0c.27,0,.54-.41.81-.63-.28-.16-.54-.45-.82-.46C66.54,35.12,65.05,35.15,63.55,35.15ZM61.79,51.9c0-1.69.05-3.23,0-4.77,0-.36-.44-.7-.68-1.05-.28.3-.8.59-.82.91-.08,1.61,0,3.24,0,4.91ZM71.45,21v-.33H55.53V21ZM61.51,58.85h0V57.76c0-.72,0-1.2-1-1.2s-1,.5-1,1.21a24.52,24.52,0,0,0,.06,2.71c.06.38.56.69.86,1,.35-.35.84-.64,1-1.06A4.88,4.88,0,0,0,61.51,58.85Zm4-2.22c0,1.37-.06,2.6,0,3.81,0,.38.54.72.83,1.07.33-.31.92-.59,1-.93.12-1.29,0-2.6,0-3.95Zm-3,2.24a3.88,3.88,0,0,0,0,1.36,5.88,5.88,0,0,0,.93,1.29c.33-.42.86-.8.94-1.27a17.78,17.78,0,0,0,.06-2.73c0-.72-.29-1-1-1s-1,.2-1,.94a7.07,7.07,0,0,1,.09,1.41Zm1.73-7V47.15c0-.37-.5-.72-.77-1.08-.23.35-.66.68-.67,1-.08,1.57,0,3.14,0,4.77Zm2.48,0c0-1.68,0-3.22,0-4.75,0-.37-.5-.71-.77-1.06-.24.34-.66.67-.68,1-.07,1.57,0,3.14,0,4.78Zm-8.4,3.33c-.59-.75-7.79-1-9.25-.31.59.62,7.24.84,9.27.34ZM78,54.86c-.24-.13-.35-.24-.47-.24H69.47c-.3,0-.6.28-1.15.56C70.83,55.71,77.23,55.5,78,54.86Zm-7.07-30V28H72.2c.62-2.44.32-3.22-1.29-3.11ZM65.62,39c-.61.76-1,4.35-.57,4.73a1.2,1.2,0,0,0,.92-.08C66,42.14,66.44,40.61,65.62,39ZM64,41.64h0A9,9,0,0,0,64,40c0-.28-.35-.53-.54-.79-.19.26-.54.52-.56.8a25.33,25.33,0,0,0,0,3.26c0,.23.41.44.63.66.16-.22.42-.43.45-.67A12.51,12.51,0,0,0,64,41.64Zm-2.23-2.7c-.81.8-1.19,4.39-.72,4.83a.69.69,0,0,0,.6.14.84.84,0,0,0,.38-.6V40.85c0-.57-.12-1.13-.23-1.91Zm6.45,7v.24h8.17V46ZM54.73,24.88v3.2L56,28V24.79ZM50.62,46v.28h8.09V46Zm27.06,10v0H69.06v.1ZM55.63,24v.26H61V24ZM66,24v.26h5.29V24Zm9.36,18.76.12-.12H67.3v.12Zm-15.74,0v-.14h-8.1v.14Zm2-9.21.45.07V30.93h-.45Zm3.15,0c1-1,.93-2.2,0-2.56Zm-11.7-2.16v.13h7.14v-.13Zm20.76.13v-.13H66.75v.13ZM63.1,33.6h.69c0-.79.09-1.58.09-2.37,0-.09-.27-.27-.41-.26a.51.51,0,0,0-.36.31C63.08,32.07,63.1,32.84,63.1,33.6Zm3.6,19.08.12-.13H60.31v.13ZM67.76,64.9c-.79-1.2-1.2-1.21-2.12,0Zm3.35,0c-1-1.29-1.54-1.27-2.15,0Zm-22.56,0c-.51-.42-.8-.85-1.09-.85a3.92,3.92,0,0,0-1.29.47l.11.38ZM56,56v-.1H50.32V56Zm18.38,9c-1-1.26-1.38-1.25-2.17,0Z" transform="translate(0 0)"/><path d="M84.94,99.66v1.75a7.48,7.48,0,0,1,1.34.08c.23.06.39.36.59.55-.21.18-.38.43-.62.52a2.21,2.21,0,0,1-.81,0H41.61a2.75,2.75,0,0,1-.81,0,2.58,2.58,0,0,1-.67-.46c.22-.21.4-.52.67-.61a5.27,5.27,0,0,1,1.19-.1l.09-1.63H58.17l.12,1.58H68.67c-.39-1.6.5-1.74,1.86-1.71,4.09.08,8.19,0,12.28,0Zm-.57.92v-.28H69.24v.28Zm-41.81-.32v.29H57.72v-.29Z" transform="translate(0 0)"/><path d="M68.46,85.47c.45-.48.85-1.25,1.37-1.35a6.54,6.54,0,0,1,2.19.61c1.46-1.11,1.52-1.11,3.07.2,1.51-1.31,1.76-1.31,3.17,0,1.66-1.29,1.84-1.29,3.32,0L83,83.73H43.32v-1.9H83.6c0,.46.08.82.07,1.17s0,.43-.07.65L85,85.79H68.72Zm-5-3.28H44.85a2.81,2.81,0,0,0-1.1.29c-.07,0,0,.56,0,.6a2.29,2.29,0,0,0,1,.23H81.87a4.07,4.07,0,0,0,1.33-.55c-.43-.19-.85-.55-1.28-.55-6.13,0-12.31,0-18.5,0Zm14.27,3.16.12-.39a4.06,4.06,0,0,0-1.31-.44c-.29,0-.58.42-1.09.83Zm3.22,0,.12-.33c-.37-.2-.75-.56-1.12-.55s-.71.4-1.06.62l.15.26Z" transform="translate(0 0)"/><path d="M58.88,79.41V69h.29a5.58,5.58,0,0,1,.11.82c0,3.64,0,7.28-.08,10.92,0,.3-.64.84-1,.85q-6,.09-12,0c-.4,0-.8-.35-1.2-.53l.76-1.13L46,80V68.92h.29v10.5ZM45.64,80.7v.16H58.4V80.7Z" transform="translate(0 0)"/><path d="M69.49,78.62c0-2.75-.06-5.51.06-8.25,0-.5.81-1.35,1.23-1.34.67,0,1.32.62,2,1,1.28-1.6,1.94-1.59,3.06,0,.76-.37,1.52-1.08,2.19-1,1.12.15,1.21,1.27,1.2,2.29a70.31,70.31,0,0,1-.29,7.4,4.67,4.67,0,0,1-.15-.91V71.65a2.28,2.28,0,0,0-.07-1.07,7,7,0,0,0-1-1.23,5,5,0,0,0-1,1.15,3.82,3.82,0,0,0-.15,1.5v6.7l-1,.07a2.22,2.22,0,0,1-.09-.37V71.83a3,3,0,0,0,0-.94,16.27,16.27,0,0,0-1.11-1.51c-.37.51-1,1-1,1.54-.11,2.55-.05,5.1-.05,7.77l-1.12.06V71.63c0-.92,0-2.16-1.08-2.17S70,70.72,70,71.67v6.94Z" transform="translate(0 0)"/><path d="M81.18,79.91a4.21,4.21,0,0,1,.73,1,1.37,1.37,0,0,1-.78.61h-13c-.08,0-.16-.07-.35-.16V69h.27v9.44c0,.82.27,1.13,1.1,1.12H79.39c1,0,1.23-.38,1.22-1.3q-.09-4.64.27-9.26V80Zm0,1,.06-.18H68.61V81Z" transform="translate(0 0)"/><path d="M58.26,85.81H41.87c.55-.71.86-1.51,1.3-1.58a7.7,7.7,0,0,1,2.52.42c1.27-1,1.4-1,2.88.24,1.72-1.23,1.72-1.23,3.34,0,1.48-1.26,1.65-1.25,3.2,0C56.89,83.48,57.93,83.73,58.26,85.81Z" transform="translate(0 0)"/><path d="M51.49,78.72H50.34V71.59a2.9,2.9,0,0,0-.1-1.21,1.82,1.82,0,0,0-1-.93c-.24-.06-.75.45-.91.81a3.45,3.45,0,0,0-.2,1.46v6.94h-.39V71.2c0-1,.13-2,1.18-2.16.66-.08,1.41.57,2.11.89.49-.24,1.27-1,1.93-.88,1.15.18,1.3,1.33,1.29,2.4v6.29a8.27,8.27,0,0,1-.12,1h-.39V77.18c0-2.05.07-4.11-.06-6.15,0-.57-.67-1.11-1-1.66-.36.56-1,1.1-1,1.67C51.43,73.58,51.49,76.13,51.49,78.72Z" transform="translate(0 0)"/><ellipse cx="63.47" cy="68.06" rx="23.72" ry="0.13"/><path d="M69,86.84v12H83.44v-12h.33a10,10,0,0,1,.1,1.1V98.19c0,.61.06,1.19-.86,1.19H68.72V86.84Z" transform="translate(0 0)"/><path d="M48.15,98V89.94c0-1.09.15-2.6-1.25-2.6S45.6,88.89,45.59,90v6.84A1.77,1.77,0,0,1,45.21,98c0-.41-.08-.82-.08-1.23V89c0-1.25.86-2.3,1.76-2.16a1.93,1.93,0,0,1,1.69,2.13V98Z" transform="translate(0 0)"/><path d="M49,98c0-3.18-.08-6.36.08-9.53a2.36,2.36,0,0,1,1.67-1.56c1.08-.13,1.64.85,1.67,1.9.06,2.37,0,4.74,0,7.12V98H52c0-.42-.07-.83-.08-1.24V89.65a2.61,2.61,0,0,0-.1-1.21c-.27-.47-.74-1.1-1.14-1.12s-.93.59-1.18,1.05a3.71,3.71,0,0,0-.15,1.48V98Z" transform="translate(0 0)"/><path d="M55.92,98c0-.42-.07-.84-.07-1.26v-7a3,3,0,0,0-.12-1.34c-.25-.47-.75-1.1-1.14-1.1s-.93.61-1.18,1.07a3.37,3.37,0,0,0-.13,1.48A79.17,79.17,0,0,1,53,98a2.23,2.23,0,0,1-.16-.56V89a2,2,0,0,1,1.79-2.16c.92,0,1.64,1,1.64,2.29V98Z" transform="translate(0 0)"/><path d="M61.18,79.1,60.62,74l.51-.07.69,4.67a14.89,14.89,0,0,0,2.67-.06c.34-.06.73-.68.81-1.1.24-1.17.34-2.36.49-3.54l.57.07L65.8,78.8l-2.41,1.64L61.61,79Z" transform="translate(0 0)"/><path d="M43.2,99.21V86.73h.3V97.79c0,.67.07,1.15.93,1.14H57.28a3.14,3.14,0,0,0,.67-.17v-12h.27V99.21Z" transform="translate(0 0)"/><path d="M74.61,98.07a8.27,8.27,0,0,1-.12-1V89.41A2.73,2.73,0,0,1,74.72,88c.38-.5,1-1.14,1.53-1.09s1.51.76,1.53,1.22a81.76,81.76,0,0,1-.21,9.9V90a4.88,4.88,0,0,0-.23-1.74c-.16-.41-.69-1-1-.92a1.75,1.75,0,0,0-1.16.91,3.45,3.45,0,0,0-.24,1.59v7a9,9,0,0,1-.06,1.27Z" transform="translate(0 0)"/><path d="M57.1,78.73V72.36a4.15,4.15,0,0,0,0-1.49A7.75,7.75,0,0,0,56,69.38c-.36.51-1,1-1,1.54-.13,1.77,0,3.56,0,5.33v2.44a1.91,1.91,0,0,1-.41-.11c0-2.68-.15-5.36-.06-8A1.51,1.51,0,0,1,55.89,69a.74.74,0,0,1,.21,0c1,.14,1.38.91,1.37,1.89v7.88Z" transform="translate(0 0)"/><path d="M81.43,97.87V89.82c0-1.62-.59-2.77-1.39-2.56-1.29.34-1.27,1.48-1.27,2.55V98h-.39V93.72a37.49,37.49,0,0,1,.12-5.19,2.58,2.58,0,0,1,1.61-1.61c.38-.11,1.51.82,1.53,1.31.14,3.25.08,6.52.08,9.78Z" transform="translate(0 0)"/><path d="M70.67,98V88.9c0-1.15.52-2,1.71-2s1.69.92,1.7,2.06c0,3,0,6-.28,9,0-.34-.09-.67-.09-1V89.25c-.07-.9-.24-1.94-1.27-2s-1.36,1-1.37,2v8.69Z" transform="translate(0 0)"/><path d="M63.63,74c.12.94.27,1.87.33,2.81,0,.23-.28.48-.43.72-.2-.25-.58-.51-.57-.74.07-.93.26-1.85.4-2.78Z" transform="translate(0 0)"/></svg>