<?xml version="1.0" encoding="utf-8"?>
<!-- Generator: Adobe Illustrator 25.0.0, SVG Export Plug-In . SVG Version: 6.00 Build 0)  -->
<svg version="1.1" id="Layer_1" xmlns="http://www.w3.org/2000/svg" xmlns:xlink="http://www.w3.org/1999/xlink" x="0px" y="0px"
	 viewBox="0 0 2489 2500" style="enable-background:new 0 0 2489 2500;" xml:space="preserve">
<style type="text/css">
	.st0{fill:url(#SVGID_1_);}
	.st1{fill-rule:evenodd;clip-rule:evenodd;fill:#FFFFFF;}
	.st2{fill:#FFFFFF;}
</style>
<g>
	
		<linearGradient id="SVGID_1_" gradientUnits="userSpaceOnUse" x1="755.1177" y1="940.873" x2="755.1177" y2="2109.905" gradientTransform="matrix(2.0408 0 0 -2.0408 -296.5445 4363.0132)">
		<stop  offset="0" style="stop-color:#20B038"/>
		<stop  offset="1" style="stop-color:#60D66A"/>
	</linearGradient>
	<path class="st0" d="M57,2442.9l167.8-612.6c-103.5-179.3-157.9-382.7-157.9-591C67.1,587.4,597.6,57.1,1249.4,57.1
		c316.4,0.1,613.3,123.3,836.5,346.7c223.3,223.5,346.2,520.5,346.1,836.3c-0.3,651.8-530.8,1182.2-1182.5,1182.2c0,0,0,0,0,0h-0.5
		c-197.9-0.1-392.4-49.7-565.1-143.9L57,2442.9L57,2442.9z"/>
	<path class="st1" d="M943.5,727c-22.9-51-47.1-52-68.9-52.9c-17.8-0.8-38.3-0.7-58.7-0.7c-20.4,0-53.6,7.7-81.6,38.3
		c-28.1,30.6-107.1,104.7-107.1,255.3c0,150.6,109.7,296.1,125,316.6c15.3,20.4,211.7,339.3,522.9,462
		c258.6,102,311.2,81.7,367.3,76.6c56.1-5.1,181.1-74,206.6-145.5c25.5-71.5,25.5-132.7,17.9-145.5c-7.7-12.8-28.1-20.4-58.7-35.7
		c-30.6-15.3-181.1-89.4-209.1-99.6c-28.1-10.2-48.5-15.3-68.9,15.3c-20.4,30.6-79,99.5-96.9,119.9c-17.9,20.5-35.7,23-66.3,7.7
		c-30.6-15.4-129.2-47.6-246.1-151.9c-91-81.1-152.4-181.3-170.3-212c-17.9-30.6-1.9-47.2,13.4-62.5c13.7-13.7,30.6-35.7,45.9-53.6
		c15.3-17.9,20.4-30.6,30.6-51c10.2-20.4,5.1-38.3-2.6-53.6S970.7,787.5,943.5,727L943.5,727z"/>
	<path class="st2" d="M2116.2,373.5c-231.3-231.5-538.8-359-866.5-359.1c-675.2,0-1224.7,549.3-1225,1224.5
		c-0.1,215.8,56.3,426.5,163.5,612.2L14.4,2485.7l649.4-170.3c178.9,97.6,380.4,149,585.4,149.1h0.5h0
		c675.1,0,1224.7-549.4,1225-1224.6C2474.7,912.6,2347.4,605,2116.2,373.5L2116.2,373.5z M1249.6,2257.6h-0.4
		c-182.7-0.1-361.9-49.2-518.2-141.9l-37.2-22.1l-385.4,101l102.9-375.6l-24.2-38.5c-101.9-162.1-155.7-349.4-155.7-541.7
		C231.7,677.8,688.4,221.2,1250,221.2c272,0.1,527.6,106.1,719.8,298.5c192.2,192.4,298,448.1,297.9,720.1
		C2267.6,1801,1810.8,2257.6,1249.6,2257.6z"/>
</g>
</svg>
